0
SECTION
2
HEADER
9
$INSUNITS
70
4
9
$ACADVER
1
AC1014
9
$HANDSEED
5
FFFF
0
ENDSEC
0
SECTION
2
TABLES
0
TABLE
2
VPORT
5
8
100
AcDbSymbolTable
0
ENDTAB
0
TABLE
2
LTYPE
5
5
100
AcDbSymbolTable
0
LTYPE
5
14
100
AcDbSymbolTableRecord
100
AcDbLinetypeTableRecord
2
BYBLOCK
70
0
0
LTYPE
5
15
100
AcDbSymbolTableRecord
100
AcDbLinetypeTableRecord
2
BYLAYER
70
0
0
ENDTAB
0
TABLE
2
LAYER
5
2
100
AcDbSymbolTable
70
2
0
LAYER
5
50
100
AcDbSymbolTableRecord
100
AcDbLayerTableRecord
2
0
70
0
6
CONTINUOUS
0
ENDTAB
0
TABLE
2
STYLE
5
3
100
AcDbSymbolTable
70
1
0
STYLE
5
11
100
AcDbSymbolTableRecord
100
AcDbTextStyleTableRecord
2
STANDARD
70
0
0
ENDTAB
0
TABLE
2
VIEW
5
6
100
AcDbSymbolTable
70
0
0
ENDTAB
0
TABLE
2
UCS
5
7
100
AcDbSymbolTable
70
0
0
ENDTAB
0
TABLE
2
APPID
5
9
100
AcDbSymbolTable
70
2
0
APPID
5
12
100
AcDbSymbolTableRecord
100
AcDbRegAppTableRecord
2
ACAD
70
0
0
ENDTAB
0
TABLE
2
DIMSTYLE
5
A
100
AcDbSymbolTable
70
1
0
ENDTAB
0
TABLE
2
BLOCK_RECORD
5
1
100
AcDbSymbolTable
70
1
0
BLOCK_RECORD
5
1F
100
AcDbSymbolTableRecord
100
AcDbBlockTableRecord
2
*MODEL_SPACE
0
BLOCK_RECORD
5
1B
100
AcDbSymbolTableRecord
100
AcDbBlockTableRecord
2
*PAPER_SPACE
0
ENDTAB
0
ENDSEC
0
SECTION
2
BLOCKS
0
BLOCK
5
20
100
AcDbEntity
100
AcDbBlockBegin
2
*MODEL_SPACE
0
ENDBLK
5
21
100
AcDbEntity
100
AcDbBlockEnd
0
BLOCK
5
1C
100
AcDbEntity
100
AcDbBlockBegin
2
*PAPER_SPACE
0
ENDBLK
5
1D
100
AcDbEntity
100
AcDbBlockEnd
0
ENDSEC
0
SECTION
2
ENTITIES
0
SPLINE
5
100
100
AcDbEntity
8
OUTER_PROFILES
100
AcDbSpline
70
0
71
3
72
8
73
4
74
0
42
0.000000001
43
0.0000000001
44
0.0000000001
40
4.7123889803846382
40
4.7123889803846382
40
4.7123889803846382
40
4.7123889803846382
40
5.0301186884025579
40
5.0301186884025579
40
5.0301186884025579
40
5.0301186884025579
10
46.3534189695335
20
31.999999999999993
30
0
10
46.95468653097258
20
32.006073660408212
30
0
10
47.555953548754189
20
32.012139376139658
30
0
10
48.157060133617087
20
32.015860623558552
30
0
0
LINE
5
101
100
AcDbEntity
8
OUTER_PROFILES
100
AcDbLine
10
46.3534189695335
20
31.999999999999993
30
0
11
-2.1897729953281875
21
32.000000000000014
31
0
0
SPLINE
5
102
100
AcDbEntity
8
OUTER_PROFILES
100
AcDbSpline
70
0
71
3
72
8
73
4
74
0
42
0.000000001
43
0.0000000001
44
0.0000000001
40
1.2530666187770396
40
1.2530666187770396
40
1.2530666187770396
40
1.2530666187770396
40
1.5707963267949596
40
1.5707963267949596
40
1.5707963267949596
40
1.5707963267949596
10
-3.9934141594117456
20
32.015860623558567
30
0
10
-3.3923075745488509
20
32.012139376139672
30
0
10
-2.7910405567672294
20
32.006073660408212
30
0
10
-2.1897729953281515
20
31.999999999999993
30
0
0
SPLINE
5
103
100
AcDbEntity
8
OUTER_PROFILES
100
AcDbSpline
70
0
71
3
72
8
73
4
74
0
42
0.000000001
43
0.0000000001
44
0.0000000001
40
4.7123889803847003
40
4.7123889803847003
40
4.7123889803847003
40
4.7123889803847003
40
4.9506348183690863
40
4.9506348183690863
40
4.9506348183690863
40
4.9506348183690863
10
-5.2983395031754652
20
31.333420290407762
30
0
10
-4.8634926340366755
20
31.56277450182392
30
0
10
-4.4286450368646824
20
31.792118074209228
30
0
10
-3.9934141594117416
20
32.015860623558567
30
0
0
LINE
5
104
100
AcDbEntity
8
OUTER_PROFILES
100
AcDbLine
10
-5.2983395031754652
20
31.333420290407762
30
0
11
-32.108518291063362
21
18.826186085505917
31
0
0
LINE
5
105
100
AcDbEntity
8
OUTER_PROFILES
100
AcDbLine
10
-32.108518291063362
20
18.826186085505917
30
0
11
-19.45699159800774
21
-8.2932942907088538
31
0
0
LINE
5
106
100
AcDbEntity
8
OUTER_PROFILES
100
AcDbLine
10
-19.45699159800774
20
-8.2932942907088538
30
0
11
-3.1085665078472613
21
-0.66657970959215884
31
0
0
SPLINE
5
107
100
AcDbEntity
8
OUTER_PROFILES
100
AcDbSpline
70
0
71
3
72
8
73
4
74
0
42
0.000000001
43
0.0000000001
44
0.0000000001
40
4.712388980384687
40
4.712388980384687
40
4.712388980384687
40
4.712388980384687
40
4.9983432507676362
40
4.9983432507676362
40
4.9983432507676362
40
4.9983432507676362
10
-3.1085665078472724
20
-0.66657970959213664
30
0
10
-2.5828765797360367
20
-0.44632452885469576
30
0
10
-2.057185258318043
20
-0.22608970904788972
30
0
10
-1.5309856416029242
20
-0.01328280507661983
30
0
0
SPLINE
5
108
100
AcDbEntity
8
OUTER_PROFILES
100
AcDbSpline
70
0
71
3
72
8
73
4
74
0
42
0.000000001
43
0.0000000001
44
0.0000000001
40
1.3007750511756058
40
1.3007750511756058
40
1.3007750511756058
40
1.3007750511756058
40
1.570796326794959
40
1.570796326794959
40
1.570796326794959
40
1.570796326794959
10
-1.5309856416029213
20
-0.013282805076628712
30
0
10
-1.0207078209612517
20
-0.0081139165473098629
30
0
10
-0.51035400329879799
20
-0.0040556018858106668
30
0
10
-2.7755575615628914e-15
20
-8.8817841970012523e-15
30
0
0
LINE
5
109
100
AcDbEntity
8
OUTER_PROFILES
100
AcDbLine
10
-2.7657560916895974e-15
20
-8.8818287998077274e-15
30
0
11
44.16364597420538
21
-8.8817841970012523e-15
31
0
0
SPLINE
5
110
100
AcDbEntity
8
OUTER_PROFILES
100
AcDbSpline
70
0
71
3
72
8
73
4
74
0
42
0.000000001
43
0.0000000001
44
0.0000000001
40
-1.5707963267949365
40
-1.5707963267949365
40
-1.5707963267949365
40
-1.5707963267949365
40
-1.3007750511755833
40
-1.3007750511755833
40
-1.3007750511755833
40
-1.3007750511755833
10
45.694631615808305
20
-0.013282805076624271
30
0
10
45.184353795166629
20
-0.0081139165473098629
30
0
10
44.673999977504167
20
-0.0040556018858195486
30
0
10
44.163645974205366
20
-1.7763568394002505e-14
30
0
0
SPLINE
5
111
100
AcDbEntity
8
OUTER_PROFILES
100
AcDbSpline
70
0
71
3
72
8
73
4
74
0
42
0.000000001
43
0.0000000001
44
0.0000000001
40
1.2848420564119487
40
1.2848420564119487
40
1.2848420564119487
40
1.2848420564119487
40
1.5707963267948968
40
1.5707963267948968
40
1.5707963267948968
40
1.5707963267948968
10
47.272212482052645
20
-0.66657970959213664
30
0
10
46.746522553941404
20
-0.4463245288547002
30
0
10
46.220831232523437
20
-0.22608970904790304
30
0
10
45.694631615808305
20
-0.013282805076633153
30
0
0
LINE
5
112
100
AcDbEntity
8
OUTER_PROFILES
100
AcDbLine
10
47.272212482052645
20
-0.66657970959213664
30
0
11
63.620637572213127
21
-8.2932942907088361
31
0
0
LINE
5
113
100
AcDbEntity
8
OUTER_PROFILES
100
AcDbLine
10
63.620637572213127
20
-8.2932942907088361
30
0
11
76.272164265268714
21
18.826186085505956
31
0
0
LINE
5
114
100
AcDbEntity
8
OUTER_PROFILES
100
AcDbLine
10
76.272164265268714
20
18.826186085505956
30
0
11
49.461985477380807
21
31.333420290407737
31
0
0
SPLINE
5
115
100
AcDbEntity
8
OUTER_PROFILES
100
AcDbSpline
70
0
71
3
72
8
73
4
74
0
42
0.000000001
43
0.0000000001
44
0.0000000001
40
1.3325504888104993
40
1.3325504888104993
40
1.3325504888104993
40
1.3325504888104993
40
1.5707963267948817
40
1.5707963267948817
40
1.5707963267948817
40
1.5707963267948817
10
48.157060133617094
20
32.015860623558567
30
0
10
48.592291011070031
20
31.792118074209235
30
0
10
49.027138608242005
20
31.562774501823931
30
0
10
49.461985477380779
20
31.333420290407776
30
0
0
CIRCLE
5
116
100
AcDbEntity
8
INTERIOR_PROFILES
100
AcDbCircle
10
11.234906513774501
20
4.7740697524256248
30
0
40
1.7500000000000004
210
0
220
0
230
-1
0
CIRCLE
5
117
100
AcDbEntity
8
INTERIOR_PROFILES
100
AcDbCircle
10
-9.5818229871026794
20
4.0500000000000069
30
0
40
1.7500000000000004
210
0
220
0
230
-1
0
CIRCLE
5
118
100
AcDbEntity
8
INTERIOR_PROFILES
100
AcDbCircle
10
-55.398552487979856
20
4.7740697524256381
30
0
40
1.7500000000000007
210
0
220
0
230
-1
0
CIRCLE
5
119
100
AcDbEntity
8
INTERIOR_PROFILES
100
AcDbCircle
10
-22.081822987102679
20
10.049999999999999
30
0
40
1.7500000000000004
210
0
220
0
230
-1
0
CIRCLE
5
120
100
AcDbEntity
8
INTERIOR_PROFILES
100
AcDbCircle
10
-34.581822987102683
20
4.0500000000000069
30
0
40
1.7500000000000004
210
0
220
0
230
-1
0
LINE
5
121
100
AcDbEntity
8
BEND
100
AcDbLine
10
45.738609179730084
20
-0.031085860937380971
30
-2.8839524983954857e-14
11
47.931474435973371
21
32.014360393151335
31
1.2945583764214598e-12
0
LINE
5
122
100
AcDbEntity
8
BEND
100
AcDbLine
10
-3.7647362011497028
20
31.968914139042155
30
-1.1091251573446652e-14
11
-1.5749632058215168
21
-0.031085860957715816
31
-1.3311733074276189e-14
0
LINE
5
123
100
AcDbEntity
8
BEND_EXTENT
100
AcDbLine
10
5.5511151231257827e-16
20
-8.8817841970012523e-15
30
0
11
-2.1897729953281893
21
32.000000000000014
31
-8.8817487454220317e-15
0
LINE
5
124
100
AcDbEntity
8
BEND_EXTENT
100
AcDbLine
10
-5.2983395031754554
20
31.333420290407737
30
2.1921239220742828e-17
11
-3.1085665078472626
21
-0.66657970959215884
31
-1.1544130877337475e-13
0
LINE
5
125
100
AcDbEntity
8
BEND_EXTENT
100
AcDbLine
10
46.353418969533557
20
32.000000000000007
30
-9.2185848042232078e-15
11
44.16364597420538
21
-8.8817841970012523e-15
31
-3.0644685382473082e-16
0
LINE
5
126
100
AcDbEntity
8
BEND_EXTENT
100
AcDbLine
10
47.272212482052652
20
-0.66657970959216328
30
-9.8027327259579371e-14
11
49.461985477380807
21
31.333420290407737
31
1.7405513548039696e-14
0
ENDSEC
0
SECTION
2
OBJECTS
0
DICTIONARY
5
C
100
AcDbDictionary
3
ACAD_GROUP
350
D
3
ACAD_MLINESTYLE
350
17
0
DICTIONARY
5
D
100
AcDbDictionary
0
DICTIONARY
5
1A
330
C
100
AcDbDictionary
0
DICTIONARY
5
17
100
AcDbDictionary
0
ENDSEC
0
EOF
