0
SECTION
2
HEADER
9
$INSUNITS
70
4
9
$ACADVER
1
AC1014
9
$HANDSEED
5
FFFF
0
ENDSEC
0
SECTION
2
TABLES
0
TABLE
2
VPORT
5
8
100
AcDbSymbolTable
0
ENDTAB
0
TABLE
2
LTYPE
5
5
100
AcDbSymbolTable
0
LTYPE
5
14
100
AcDbSymbolTableRecord
100
AcDbLinetypeTableRecord
2
BYBLOCK
70
0
0
LTYPE
5
15
100
AcDbSymbolTableRecord
100
AcDbLinetypeTableRecord
2
BYLAYER
70
0
0
ENDTAB
0
TABLE
2
LAYER
5
2
100
AcDbSymbolTable
70
2
0
LAYER
5
50
100
AcDbSymbolTableRecord
100
AcDbLayerTableRecord
2
0
70
0
6
CONTINUOUS
0
ENDTAB
0
TABLE
2
STYLE
5
3
100
AcDbSymbolTable
70
1
0
STYLE
5
11
100
AcDbSymbolTableRecord
100
AcDbTextStyleTableRecord
2
STANDARD
70
0
0
ENDTAB
0
TABLE
2
VIEW
5
6
100
AcDbSymbolTable
70
0
0
ENDTAB
0
TABLE
2
UCS
5
7
100
AcDbSymbolTable
70
0
0
ENDTAB
0
TABLE
2
APPID
5
9
100
AcDbSymbolTable
70
2
0
APPID
5
12
100
AcDbSymbolTableRecord
100
AcDbRegAppTableRecord
2
ACAD
70
0
0
ENDTAB
0
TABLE
2
DIMSTYLE
5
A
100
AcDbSymbolTable
70
1
0
ENDTAB
0
TABLE
2
BLOCK_RECORD
5
1
100
AcDbSymbolTable
70
1
0
BLOCK_RECORD
5
1F
100
AcDbSymbolTableRecord
100
AcDbBlockTableRecord
2
*MODEL_SPACE
0
BLOCK_RECORD
5
1B
100
AcDbSymbolTableRecord
100
AcDbBlockTableRecord
2
*PAPER_SPACE
0
ENDTAB
0
ENDSEC
0
SECTION
2
BLOCKS
0
BLOCK
5
20
100
AcDbEntity
100
AcDbBlockBegin
2
*MODEL_SPACE
0
ENDBLK
5
21
100
AcDbEntity
100
AcDbBlockEnd
0
BLOCK
5
1C
100
AcDbEntity
100
AcDbBlockBegin
2
*PAPER_SPACE
0
ENDBLK
5
1D
100
AcDbEntity
100
AcDbBlockEnd
0
ENDSEC
0
SECTION
2
ENTITIES
0
SPLINE
5
100
100
AcDbEntity
8
OUTER_PROFILES
100
AcDbSpline
70
0
71
3
72
11
73
7
74
0
42
0.000000001
43
0.0000000001
44
0.0000000001
40
0.45777022997371591
40
0.45777022997371591
40
0.45777022997371591
40
0.45777022997371591
40
0.57293624320377101
40
0.57293624320377101
40
0.57293624320377101
40
0.60571929827388982
40
0.60571929827388982
40
0.60571929827388982
40
0.60571929827388982
10
41.122839639856977
20
6.4909303201189905
30
0
10
41.566791271198589
20
6.4605505296957455
30
0
10
42.003136596066867
20
6.1949035054738664
30
0
10
42.174372527663607
20
5.8150540482734883
30
0
10
42.223116395911489
20
5.7069264390553123
30
0
10
42.24920360282853
20
5.591179047932294
30
0
10
42.251072129901885
20
5.4798166930924816
30
0
0
SPLINE
5
101
100
AcDbEntity
8
OUTER_PROFILES
100
AcDbSpline
70
0
71
3
72
8
73
4
74
0
42
0.000000001
43
0.0000000001
44
0.0000000001
40
5.1445789240838193
40
5.1445789240838193
40
5.1445789240838193
40
5.1445789240838193
40
5.2379736958550716
40
5.2379736958550716
40
5.2379736958550716
40
5.2379736958550716
10
42.251072129901843
20
5.4798166930947056
30
0
10
42.285850294617717
20
3.4070726722206208
30
0
10
42.323668360983469
20
1.3787519102885715
30
0
10
42.365127294637759
20
-0.59636344931081609
30
0
0
LINE
5
102
100
AcDbEntity
8
OUTER_PROFILES
100
AcDbLine
10
42.532736740154178
20
-0.66657970959209445
30
0
11
42.365127294637766
21
-0.59636344931081597
31
0
0
LINE
5
103
100
AcDbEntity
8
OUTER_PROFILES
100
AcDbLine
10
42.532736740154178
20
-0.66657970959209445
30
0
11
58.127967643538213
21
-7.9419211734195052
31
0
0
LINE
5
104
100
AcDbEntity
8
OUTER_PROFILES
100
AcDbLine
10
58.127967643538213
20
-7.9419211734195052
30
0
11
71.570214754909813
21
20.872526726308621
31
0
0
LINE
5
105
100
AcDbEntity
8
OUTER_PROFILES
100
AcDbLine
10
71.570214754909813
20
20.872526726308621
30
0
11
44.859370547690517
21
33.333420290407673
31
0
0
SPLINE
5
106
100
AcDbEntity
8
OUTER_PROFILES
100
AcDbSpline
70
0
71
3
72
8
73
4
74
0
42
0.000000001
43
0.0000000001
44
0.0000000001
40
4.712388980384711
40
4.712388980384711
40
4.712388980384711
40
4.712388980384711
40
4.9983432507677179
40
4.9983432507677179
40
4.9983432507677179
40
4.9983432507677179
10
44.859370547690517
20
33.333420290407673
30
0
10
44.33368061957917
20
33.553675471145155
30
0
10
43.807989298161075
20
33.773910290951996
30
0
10
43.281789681445836
20
33.986717194923301
30
0
0
SPLINE
5
107
100
AcDbEntity
8
OUTER_PROFILES
100
AcDbSpline
70
0
71
3
72
8
73
4
74
0
42
0.000000001
43
0.0000000001
44
0.0000000001
40
1.3007750511750578
40
1.3007750511750578
40
1.3007750511750578
40
1.3007750511750578
40
1.5707963267943525
40
1.5707963267943525
40
1.5707963267943525
40
1.5707963267943525
10
41.750804039843231
20
33.999999999999901
30
0
10
42.261158043141918
20
33.995944398114098
30
0
10
42.771511860804274
20
33.991886083452613
30
0
10
43.281789681445836
20
33.986717194923287
30
0
0
LINE
5
108
100
AcDbEntity
8
OUTER_PROFILES
100
AcDbLine
10
41.750804039843231
20
33.999999999999901
30
0
11
-6.7508040398431834
21
33.999999999999922
31
0
0
SPLINE
5
109
100
AcDbEntity
8
OUTER_PROFILES
100
AcDbSpline
70
0
71
3
72
8
73
4
74
0
42
0.000000001
43
0.0000000001
44
0.0000000001
40
-1.5707963267943275
40
-1.5707963267943275
40
-1.5707963267943275
40
-1.5707963267943275
40
-1.3007750511750318
40
-1.3007750511750318
40
-1.3007750511750318
40
-1.3007750511750318
10
-6.7508040398431834
20
33.999999999999922
30
0
10
-7.2611580431418776
20
33.995944398114119
30
0
10
-7.7715118608042122
20
33.991886083452627
30
0
10
-8.2817896814457814
20
33.986717194923301
30
0
0
SPLINE
5
110
100
AcDbEntity
8
OUTER_PROFILES
100
AcDbSpline
70
0
71
3
72
8
73
4
74
0
42
0.000000001
43
0.0000000001
44
0.0000000001
40
1.2848420564118677
40
1.2848420564118677
40
1.2848420564118677
40
1.2848420564118677
40
1.5707963267948717
40
1.5707963267948717
40
1.5707963267948717
40
1.5707963267948717
10
-9.8593705476904336
20
33.333420290407688
30
0
10
-9.3336806195790967
20
33.553675471145169
30
0
10
-8.8079892981610097
20
33.773910290952003
30
0
10
-8.2817896814457814
20
33.986717194923301
30
0
0
LINE
5
111
100
AcDbEntity
8
OUTER_PROFILES
100
AcDbLine
10
-9.8593705476904336
20
33.333420290407688
30
0
11
-36.570214754909756
21
20.872526726308674
31
0
0
LINE
5
112
100
AcDbEntity
8
OUTER_PROFILES
100
AcDbLine
10
-36.570214754909756
20
20.872526726308674
30
0
11
-23.127967643538216
21
-7.9419211734194972
31
0
0
LINE
5
113
100
AcDbEntity
8
OUTER_PROFILES
100
AcDbLine
10
-23.127967643538216
20
-7.9419211734194972
30
0
11
-8.5667323956672714
21
-1.148949705430985
31
0
0
LINE
5
114
100
AcDbEntity
8
OUTER_PROFILES
100
AcDbLine
10
-8.5667323956672714
20
-1.148949705430985
30
0
11
-8.4869337177539439
21
5.4636765888542183
31
0
0
ELLIPSE
5
115
100
AcDbEntity
8
OUTER_PROFILES
100
AcDbEllipse
10
-7.310439133215727
20
5.4757541849493325
30
0
11
-1.1745741700562056
21
-0.080376587456231607
31
0.0
40
0.84938597850057207
41
0.068323891722446864
42
0.99493321312561134
0
SPLINE
5
116
100
AcDbEntity
8
OUTER_PROFILES
100
AcDbSpline
70
0
71
3
72
8
73
4
74
0
42
0.000000001
43
0.0000000001
44
0.0000000001
40
0.1020386845710895
40
0.1020386845710895
40
0.1020386845710895
40
0.1020386845710895
40
0.16346779717890705
40
0.16346779717890705
40
0.16346779717890705
40
0.16346779717890705
10
-8.0073241765344783
20
6.2687501152664771
30
0
10
-7.8006932479827924
20
6.3875147471522231
30
0
10
-7.5579399005886039
20
6.4611562325817911
30
0
10
-7.3193428762980766
20
6.4774835238492035
30
0
0
SPLINE
5
117
100
AcDbEntity
8
OUTER_PROFILES
100
AcDbSpline
70
0
71
3
72
8
73
4
74
0
42
0.000000001
43
0.0000000001
44
0.0000000001
40
0.16346779717890705
40
0.16346779717890705
40
0.16346779717890705
40
0.16346779717890705
40
0.17087155493670095
40
0.17087155493670095
40
0.17087155493670095
40
0.17087155493670095
10
-7.3193428762980766
20
6.4774835238492035
30
0
10
-7.2905859157205155
20
6.4794513743398428
30
0
10
-7.2631646772832736
20
6.4805712880122979
30
0
10
-7.2345633329175651
20
6.480946396777223
30
0
0
SPLINE
5
118
100
AcDbEntity
8
OUTER_PROFILES
100
AcDbSpline
70
0
71
3
72
8
73
4
74
0
42
0.000000001
43
0.0000000001
44
0.0000000001
40
1.1535919221885487
40
1.1535919221885487
40
1.1535919221885487
40
1.1535919221885487
40
1.5707963267948368
40
1.5707963267948368
40
1.5707963267948368
40
1.5707963267948368
10
-7.2345633329175651
20
6.480946396777223
30
0
10
-6.4463043360451788
20
6.49128447232283
30
0
10
-5.6577683277775215
20
6.497574473174196
30
0
10
-4.8692306927473528
20
6.5038407015156672
30
0
0
LINE
5
119
100
AcDbEntity
8
OUTER_PROFILES
100
AcDbLine
10
-4.8692306927473537
20
6.5038407015156672
30
0
11
-0.99999999999999312
21
6.5038407015156707
31
0
0
ARC
5
120
100
AcDbEntity
8
OUTER_PROFILES
100
AcDbCircle
10
0.99999999999998757
20
5.5038407015156743
30
0
40
0.99999999999999645
210
0
220
0
230
-1
100
AcDbArc
50
89.999999999999673
51
180
0
LINE
5
121
100
AcDbEntity
8
OUTER_PROFILES
100
AcDbLine
10
9.1593399531575415e-15
20
5.5038407015156796
30
0
11
0
21
0
31
0
0
LINE
5
122
100
AcDbEntity
8
OUTER_PROFILES
100
AcDbLine
10
0
20
0
30
0
11
35.000000000000014
21
-2.2204460492503131e-15
31
0
0
LINE
5
123
100
AcDbEntity
8
OUTER_PROFILES
100
AcDbLine
10
35.000000000000014
20
-2.2204460492503131e-15
30
0
11
35.000000000000028
21
5.5038407015156778
31
0
0
ARC
5
124
100
AcDbEntity
8
OUTER_PROFILES
100
AcDbCircle
10
-36.000000000000021
20
5.5038407015156832
30
0
40
0.99999999999999645
210
-0
220
0
230
-1
100
AcDbArc
50
0
51
90
0
LINE
5
125
100
AcDbEntity
8
OUTER_PROFILES
100
AcDbLine
10
36.000000000000021
20
6.5038407015156796
30
0
11
39.869230692747394
21
6.5038407015156761
31
0
0
SPLINE
5
126
100
AcDbEntity
8
OUTER_PROFILES
100
AcDbSpline
70
0
71
3
72
8
73
4
74
0
42
0.000000001
43
0.0000000001
44
0.0000000001
40
-1.5707963267948954
40
-1.5707963267948954
40
-1.5707963267948954
40
-1.5707963267948954
40
-1.3636450998685319
40
-1.3636450998685319
40
-1.3636450998685319
40
-1.3636450998685319
10
41.043775359652734
20
6.4940020952668913
30
0
10
40.652283443224505
20
6.497617337301385
30
0
10
40.260757092686205
20
6.5007293803627721
30
0
10
39.869230692747408
20
6.5038407015156778
30
0
0
SPLINE
5
127
100
AcDbEntity
8
OUTER_PROFILES
100
AcDbSpline
70
0
71
3
72
8
73
4
74
0
42
0.000000001
43
0.0000000001
44
0.0000000001
40
0.4508576297308664
40
0.4508576297308664
40
0.4508576297308664
40
0.4508576297308664
40
0.45777022997371591
40
0.45777022997371591
40
0.45777022997371591
40
0.45777022997371591
10
41.043775359652209
20
6.4940020952669091
30
0
10
41.070418486551574
20
6.4937560586356247
30
0
10
41.096192367206363
20
6.4927538038080366
30
0
10
41.122839639856977
20
6.4909303201189905
30
0
0
CIRCLE
5
128
100
AcDbEntity
8
INTERIOR_PROFILES
100
AcDbCircle
10
16.719556803461231
20
6.6567318929016803
30
0
40
1.7500000000000002
210
0
220
0
230
-1
0
CIRCLE
5
129
100
AcDbEntity
8
INTERIOR_PROFILES
100
AcDbCircle
10
-51.719556803461259
20
6.6567318929016661
30
0
40
1.7500000000000004
210
0
220
0
230
-1
0
CIRCLE
5
130
100
AcDbEntity
8
INTERIOR_PROFILES
100
AcDbCircle
10
-17.500000000000014
20
12.553840701400272
30
0
40
1.7500000000000004
210
0
220
0
230
-1
0
CIRCLE
5
131
100
AcDbEntity
8
INTERIOR_PROFILES
100
AcDbCircle
10
-30.000000000000014
20
6.5538407014002855
30
0
40
1.7500000000000004
210
0
220
0
230
-1
0
CIRCLE
5
132
100
AcDbEntity
8
INTERIOR_PROFILES
100
AcDbCircle
10
-5.0000000000000133
20
6.5538407014002846
30
0
40
1.7500000000000004
210
0
220
0
230
-1
0
LINE
5
133
100
AcDbEntity
8
BEND
100
AcDbLine
10
-8.3288770435028336
20
34.014359193081873
30
3.8474246156322095e-14
11
-6.4453961089861789
21
6.4900964250185966
31
1.4471168583273541e-15
0
LINE
5
134
100
AcDbEntity
8
BEND
100
AcDbLine
10
41.425281334799621
20
6.1961547639816867
30
-3.1843943173521022e-14
11
43.328877043845694
21
34.014359193058439
31
7.7715611723761037e-15
0
LINE
5
135
100
AcDbEntity
8
BEND_EXTENT
100
AcDbLine
10
41.750804039843231
20
33.999999999999936
30
0
11
39.869230692747394
21
6.5038407015156752
31
0
0
LINE
5
136
100
AcDbEntity
8
BEND_EXTENT
100
AcDbLine
10
42.532736740154178
20
-0.66657970959209112
30
-1.9539925233402755e-13
11
44.859370547690517
21
33.333420290407688
31
0
0
LINE
5
137
100
AcDbEntity
8
BEND_EXTENT
100
AcDbLine
10
-4.8692306927473528
20
6.5038407015156761
30
0
11
-6.7508040398431834
21
33.999999999999936
31
0
0
LINE
5
138
100
AcDbEntity
8
BEND_EXTENT
100
AcDbLine
10
-9.8593705476904514
20
33.333420290407688
30
-8.8817841970012523e-15
11
-8.0073241765344783
21
6.2687501152664593
31
0
0
ENDSEC
0
SECTION
2
OBJECTS
0
DICTIONARY
5
C
100
AcDbDictionary
3
ACAD_GROUP
350
D
3
ACAD_MLINESTYLE
350
17
0
DICTIONARY
5
D
100
AcDbDictionary
0
DICTIONARY
5
1A
330
C
100
AcDbDictionary
0
DICTIONARY
5
17
100
AcDbDictionary
0
ENDSEC
0
EOF
