G04 #@! TF.GenerationSoftware,KiCad,Pcbnew,5.1.6*
G04 #@! TF.CreationDate,2020-08-26T23:46:25+02:00*
G04 #@! TF.ProjectId,line_follower,6c696e65-5f66-46f6-9c6c-6f7765722e6b,rev?*
G04 #@! TF.SameCoordinates,Original*
G04 #@! TF.FileFunction,Soldermask,Top*
G04 #@! TF.FilePolarity,Negative*
%FSLAX46Y46*%
G04 Gerber Fmt 4.6, Leading zero omitted, Abs format (unit mm)*
G04 Created by KiCad (PCBNEW 5.1.6) date 2020-08-26 23:46:25*
%MOMM*%
%LPD*%
G01*
G04 APERTURE LIST*
%ADD10C,0.100000*%
G04 APERTURE END LIST*
D10*
G36*
X3937617Y-70078420D02*
G01*
X4028403Y-70105960D01*
X4060335Y-70115646D01*
X4173424Y-70176094D01*
X4272554Y-70257447D01*
X4353906Y-70356575D01*
X4414354Y-70469664D01*
X4417010Y-70478420D01*
X4451580Y-70592382D01*
X4461000Y-70688027D01*
X4461000Y-71551973D01*
X4451580Y-71647618D01*
X4446639Y-71663905D01*
X4414354Y-71770336D01*
X4353906Y-71883425D01*
X4272554Y-71982554D01*
X4173425Y-72063906D01*
X4060336Y-72124354D01*
X4028404Y-72134040D01*
X3937618Y-72161580D01*
X3810000Y-72174149D01*
X3682383Y-72161580D01*
X3591597Y-72134040D01*
X3559665Y-72124354D01*
X3446576Y-72063906D01*
X3347447Y-71982554D01*
X3266095Y-71883425D01*
X3205647Y-71770336D01*
X3191699Y-71724355D01*
X3168420Y-71647618D01*
X3159000Y-71551973D01*
X3159000Y-70688028D01*
X3168420Y-70592383D01*
X3205645Y-70469669D01*
X3205646Y-70469665D01*
X3266094Y-70356576D01*
X3347447Y-70257446D01*
X3446575Y-70176094D01*
X3559664Y-70115646D01*
X3591596Y-70105960D01*
X3682382Y-70078420D01*
X3810000Y-70065851D01*
X3937617Y-70078420D01*
G37*
G36*
X11557617Y-70078420D02*
G01*
X11648403Y-70105960D01*
X11680335Y-70115646D01*
X11793424Y-70176094D01*
X11892554Y-70257447D01*
X11973906Y-70356575D01*
X12034354Y-70469664D01*
X12037010Y-70478420D01*
X12071580Y-70592382D01*
X12081000Y-70688027D01*
X12081000Y-71551973D01*
X12071580Y-71647618D01*
X12066639Y-71663905D01*
X12034354Y-71770336D01*
X11973906Y-71883425D01*
X11892554Y-71982554D01*
X11793425Y-72063906D01*
X11680336Y-72124354D01*
X11648404Y-72134040D01*
X11557618Y-72161580D01*
X11430000Y-72174149D01*
X11302383Y-72161580D01*
X11211597Y-72134040D01*
X11179665Y-72124354D01*
X11066576Y-72063906D01*
X10967447Y-71982554D01*
X10886095Y-71883425D01*
X10825647Y-71770336D01*
X10811699Y-71724355D01*
X10788420Y-71647618D01*
X10779000Y-71551973D01*
X10779000Y-70688028D01*
X10788420Y-70592383D01*
X10825645Y-70469669D01*
X10825646Y-70469665D01*
X10886094Y-70356576D01*
X10967447Y-70257446D01*
X11066575Y-70176094D01*
X11179664Y-70115646D01*
X11211596Y-70105960D01*
X11302382Y-70078420D01*
X11430000Y-70065851D01*
X11557617Y-70078420D01*
G37*
G36*
X-6222383Y-70078420D02*
G01*
X-6131597Y-70105960D01*
X-6099665Y-70115646D01*
X-5986576Y-70176094D01*
X-5887446Y-70257447D01*
X-5806094Y-70356575D01*
X-5745646Y-70469664D01*
X-5742990Y-70478420D01*
X-5708420Y-70592382D01*
X-5699000Y-70688027D01*
X-5699000Y-71551973D01*
X-5708420Y-71647618D01*
X-5713361Y-71663905D01*
X-5745646Y-71770336D01*
X-5806094Y-71883425D01*
X-5887446Y-71982554D01*
X-5986575Y-72063906D01*
X-6099664Y-72124354D01*
X-6131596Y-72134040D01*
X-6222382Y-72161580D01*
X-6350000Y-72174149D01*
X-6477617Y-72161580D01*
X-6568403Y-72134040D01*
X-6600335Y-72124354D01*
X-6713424Y-72063906D01*
X-6812553Y-71982554D01*
X-6893905Y-71883425D01*
X-6954353Y-71770336D01*
X-6968301Y-71724355D01*
X-6991580Y-71647618D01*
X-7001000Y-71551973D01*
X-7001000Y-70688028D01*
X-6991580Y-70592383D01*
X-6954355Y-70469669D01*
X-6954354Y-70469665D01*
X-6893906Y-70356576D01*
X-6812553Y-70257446D01*
X-6713425Y-70176094D01*
X-6600336Y-70115646D01*
X-6568404Y-70105960D01*
X-6477618Y-70078420D01*
X-6350000Y-70065851D01*
X-6222383Y-70078420D01*
G37*
G36*
X-3682383Y-70078420D02*
G01*
X-3591597Y-70105960D01*
X-3559665Y-70115646D01*
X-3446576Y-70176094D01*
X-3347446Y-70257447D01*
X-3266094Y-70356575D01*
X-3205646Y-70469664D01*
X-3202990Y-70478420D01*
X-3168420Y-70592382D01*
X-3159000Y-70688027D01*
X-3159000Y-71551973D01*
X-3168420Y-71647618D01*
X-3173361Y-71663905D01*
X-3205646Y-71770336D01*
X-3266094Y-71883425D01*
X-3347446Y-71982554D01*
X-3446575Y-72063906D01*
X-3559664Y-72124354D01*
X-3591596Y-72134040D01*
X-3682382Y-72161580D01*
X-3810000Y-72174149D01*
X-3937617Y-72161580D01*
X-4028403Y-72134040D01*
X-4060335Y-72124354D01*
X-4173424Y-72063906D01*
X-4272553Y-71982554D01*
X-4353905Y-71883425D01*
X-4414353Y-71770336D01*
X-4428301Y-71724355D01*
X-4451580Y-71647618D01*
X-4461000Y-71551973D01*
X-4461000Y-70688028D01*
X-4451580Y-70592383D01*
X-4414355Y-70469669D01*
X-4414354Y-70469665D01*
X-4353906Y-70356576D01*
X-4272553Y-70257446D01*
X-4173425Y-70176094D01*
X-4060336Y-70115646D01*
X-4028404Y-70105960D01*
X-3937618Y-70078420D01*
X-3810000Y-70065851D01*
X-3682383Y-70078420D01*
G37*
G36*
X-1142383Y-70078420D02*
G01*
X-1051597Y-70105960D01*
X-1019665Y-70115646D01*
X-906576Y-70176094D01*
X-807446Y-70257447D01*
X-726094Y-70356575D01*
X-665646Y-70469664D01*
X-662990Y-70478420D01*
X-628420Y-70592382D01*
X-619000Y-70688027D01*
X-619000Y-71551973D01*
X-628420Y-71647618D01*
X-633361Y-71663905D01*
X-665646Y-71770336D01*
X-726094Y-71883425D01*
X-807446Y-71982554D01*
X-906575Y-72063906D01*
X-1019664Y-72124354D01*
X-1051596Y-72134040D01*
X-1142382Y-72161580D01*
X-1270000Y-72174149D01*
X-1397617Y-72161580D01*
X-1488403Y-72134040D01*
X-1520335Y-72124354D01*
X-1633424Y-72063906D01*
X-1732553Y-71982554D01*
X-1813905Y-71883425D01*
X-1874353Y-71770336D01*
X-1888301Y-71724355D01*
X-1911580Y-71647618D01*
X-1921000Y-71551973D01*
X-1921000Y-70688028D01*
X-1911580Y-70592383D01*
X-1874355Y-70469669D01*
X-1874354Y-70469665D01*
X-1813906Y-70356576D01*
X-1732553Y-70257446D01*
X-1633425Y-70176094D01*
X-1520336Y-70115646D01*
X-1488404Y-70105960D01*
X-1397618Y-70078420D01*
X-1270000Y-70065851D01*
X-1142383Y-70078420D01*
G37*
G36*
X1397617Y-70078420D02*
G01*
X1488403Y-70105960D01*
X1520335Y-70115646D01*
X1633424Y-70176094D01*
X1732554Y-70257447D01*
X1813906Y-70356575D01*
X1874354Y-70469664D01*
X1877010Y-70478420D01*
X1911580Y-70592382D01*
X1921000Y-70688027D01*
X1921000Y-71551973D01*
X1911580Y-71647618D01*
X1906639Y-71663905D01*
X1874354Y-71770336D01*
X1813906Y-71883425D01*
X1732554Y-71982554D01*
X1633425Y-72063906D01*
X1520336Y-72124354D01*
X1488404Y-72134040D01*
X1397618Y-72161580D01*
X1270000Y-72174149D01*
X1142383Y-72161580D01*
X1051597Y-72134040D01*
X1019665Y-72124354D01*
X906576Y-72063906D01*
X807447Y-71982554D01*
X726095Y-71883425D01*
X665647Y-71770336D01*
X651699Y-71724355D01*
X628420Y-71647618D01*
X619000Y-71551973D01*
X619000Y-70688028D01*
X628420Y-70592383D01*
X665645Y-70469669D01*
X665646Y-70469665D01*
X726094Y-70356576D01*
X807447Y-70257446D01*
X906575Y-70176094D01*
X1019664Y-70115646D01*
X1051596Y-70105960D01*
X1142382Y-70078420D01*
X1270000Y-70065851D01*
X1397617Y-70078420D01*
G37*
G36*
X6477617Y-70078420D02*
G01*
X6568403Y-70105960D01*
X6600335Y-70115646D01*
X6713424Y-70176094D01*
X6812554Y-70257447D01*
X6893906Y-70356575D01*
X6954354Y-70469664D01*
X6957010Y-70478420D01*
X6991580Y-70592382D01*
X7001000Y-70688027D01*
X7001000Y-71551973D01*
X6991580Y-71647618D01*
X6986639Y-71663905D01*
X6954354Y-71770336D01*
X6893906Y-71883425D01*
X6812554Y-71982554D01*
X6713425Y-72063906D01*
X6600336Y-72124354D01*
X6568404Y-72134040D01*
X6477618Y-72161580D01*
X6350000Y-72174149D01*
X6222383Y-72161580D01*
X6131597Y-72134040D01*
X6099665Y-72124354D01*
X5986576Y-72063906D01*
X5887447Y-71982554D01*
X5806095Y-71883425D01*
X5745647Y-71770336D01*
X5731699Y-71724355D01*
X5708420Y-71647618D01*
X5699000Y-71551973D01*
X5699000Y-70688028D01*
X5708420Y-70592383D01*
X5745645Y-70469669D01*
X5745646Y-70469665D01*
X5806094Y-70356576D01*
X5887447Y-70257446D01*
X5986575Y-70176094D01*
X6099664Y-70115646D01*
X6131596Y-70105960D01*
X6222382Y-70078420D01*
X6350000Y-70065851D01*
X6477617Y-70078420D01*
G37*
G36*
X9017617Y-70078420D02*
G01*
X9108403Y-70105960D01*
X9140335Y-70115646D01*
X9253424Y-70176094D01*
X9352554Y-70257447D01*
X9433906Y-70356575D01*
X9494354Y-70469664D01*
X9497010Y-70478420D01*
X9531580Y-70592382D01*
X9541000Y-70688027D01*
X9541000Y-71551973D01*
X9531580Y-71647618D01*
X9526639Y-71663905D01*
X9494354Y-71770336D01*
X9433906Y-71883425D01*
X9352554Y-71982554D01*
X9253425Y-72063906D01*
X9140336Y-72124354D01*
X9108404Y-72134040D01*
X9017618Y-72161580D01*
X8890000Y-72174149D01*
X8762383Y-72161580D01*
X8671597Y-72134040D01*
X8639665Y-72124354D01*
X8526576Y-72063906D01*
X8427447Y-71982554D01*
X8346095Y-71883425D01*
X8285647Y-71770336D01*
X8271699Y-71724355D01*
X8248420Y-71647618D01*
X8239000Y-71551973D01*
X8239000Y-70688028D01*
X8248420Y-70592383D01*
X8285645Y-70469669D01*
X8285646Y-70469665D01*
X8346094Y-70356576D01*
X8427447Y-70257446D01*
X8526575Y-70176094D01*
X8639664Y-70115646D01*
X8671596Y-70105960D01*
X8762382Y-70078420D01*
X8890000Y-70065851D01*
X9017617Y-70078420D01*
G37*
G36*
X14097617Y-70078420D02*
G01*
X14188403Y-70105960D01*
X14220335Y-70115646D01*
X14333424Y-70176094D01*
X14432554Y-70257447D01*
X14513906Y-70356575D01*
X14574354Y-70469664D01*
X14577010Y-70478420D01*
X14611580Y-70592382D01*
X14621000Y-70688027D01*
X14621000Y-71551973D01*
X14611580Y-71647618D01*
X14606639Y-71663905D01*
X14574354Y-71770336D01*
X14513906Y-71883425D01*
X14432554Y-71982554D01*
X14333425Y-72063906D01*
X14220336Y-72124354D01*
X14188404Y-72134040D01*
X14097618Y-72161580D01*
X13970000Y-72174149D01*
X13842383Y-72161580D01*
X13751597Y-72134040D01*
X13719665Y-72124354D01*
X13606576Y-72063906D01*
X13507447Y-71982554D01*
X13426095Y-71883425D01*
X13365647Y-71770336D01*
X13351699Y-71724355D01*
X13328420Y-71647618D01*
X13319000Y-71551973D01*
X13319000Y-70688028D01*
X13328420Y-70592383D01*
X13365645Y-70469669D01*
X13365646Y-70469665D01*
X13426094Y-70356576D01*
X13507447Y-70257446D01*
X13606575Y-70176094D01*
X13719664Y-70115646D01*
X13751596Y-70105960D01*
X13842382Y-70078420D01*
X13970000Y-70065851D01*
X14097617Y-70078420D01*
G37*
G36*
X16637617Y-70078420D02*
G01*
X16728403Y-70105960D01*
X16760335Y-70115646D01*
X16873424Y-70176094D01*
X16972554Y-70257447D01*
X17053906Y-70356575D01*
X17114354Y-70469664D01*
X17117010Y-70478420D01*
X17151580Y-70592382D01*
X17161000Y-70688027D01*
X17161000Y-71551973D01*
X17151580Y-71647618D01*
X17146639Y-71663905D01*
X17114354Y-71770336D01*
X17053906Y-71883425D01*
X16972554Y-71982554D01*
X16873425Y-72063906D01*
X16760336Y-72124354D01*
X16728404Y-72134040D01*
X16637618Y-72161580D01*
X16510000Y-72174149D01*
X16382383Y-72161580D01*
X16291597Y-72134040D01*
X16259665Y-72124354D01*
X16146576Y-72063906D01*
X16047447Y-71982554D01*
X15966095Y-71883425D01*
X15905647Y-71770336D01*
X15891699Y-71724355D01*
X15868420Y-71647618D01*
X15859000Y-71551973D01*
X15859000Y-70688028D01*
X15868420Y-70592383D01*
X15905645Y-70469669D01*
X15905646Y-70469665D01*
X15966094Y-70356576D01*
X16047447Y-70257446D01*
X16146575Y-70176094D01*
X16259664Y-70115646D01*
X16291596Y-70105960D01*
X16382382Y-70078420D01*
X16510000Y-70065851D01*
X16637617Y-70078420D01*
G37*
G36*
X19177617Y-70078420D02*
G01*
X19268403Y-70105960D01*
X19300335Y-70115646D01*
X19413424Y-70176094D01*
X19512554Y-70257447D01*
X19593906Y-70356575D01*
X19654354Y-70469664D01*
X19657010Y-70478420D01*
X19691580Y-70592382D01*
X19701000Y-70688027D01*
X19701000Y-71551973D01*
X19691580Y-71647618D01*
X19686639Y-71663905D01*
X19654354Y-71770336D01*
X19593906Y-71883425D01*
X19512554Y-71982554D01*
X19413425Y-72063906D01*
X19300336Y-72124354D01*
X19268404Y-72134040D01*
X19177618Y-72161580D01*
X19050000Y-72174149D01*
X18922383Y-72161580D01*
X18831597Y-72134040D01*
X18799665Y-72124354D01*
X18686576Y-72063906D01*
X18587447Y-71982554D01*
X18506095Y-71883425D01*
X18445647Y-71770336D01*
X18431699Y-71724355D01*
X18408420Y-71647618D01*
X18399000Y-71551973D01*
X18399000Y-70688028D01*
X18408420Y-70592383D01*
X18445645Y-70469669D01*
X18445646Y-70469665D01*
X18506094Y-70356576D01*
X18587447Y-70257446D01*
X18686575Y-70176094D01*
X18799664Y-70115646D01*
X18831596Y-70105960D01*
X18922382Y-70078420D01*
X19050000Y-70065851D01*
X19177617Y-70078420D01*
G37*
G36*
X21717617Y-70078420D02*
G01*
X21808403Y-70105960D01*
X21840335Y-70115646D01*
X21953424Y-70176094D01*
X22052554Y-70257447D01*
X22133906Y-70356575D01*
X22194354Y-70469664D01*
X22197010Y-70478420D01*
X22231580Y-70592382D01*
X22241000Y-70688027D01*
X22241000Y-71551973D01*
X22231580Y-71647618D01*
X22226639Y-71663905D01*
X22194354Y-71770336D01*
X22133906Y-71883425D01*
X22052554Y-71982554D01*
X21953425Y-72063906D01*
X21840336Y-72124354D01*
X21808404Y-72134040D01*
X21717618Y-72161580D01*
X21590000Y-72174149D01*
X21462383Y-72161580D01*
X21371597Y-72134040D01*
X21339665Y-72124354D01*
X21226576Y-72063906D01*
X21127447Y-71982554D01*
X21046095Y-71883425D01*
X20985647Y-71770336D01*
X20971699Y-71724355D01*
X20948420Y-71647618D01*
X20939000Y-71551973D01*
X20939000Y-70688028D01*
X20948420Y-70592383D01*
X20985645Y-70469669D01*
X20985646Y-70469665D01*
X21046094Y-70356576D01*
X21127447Y-70257446D01*
X21226575Y-70176094D01*
X21339664Y-70115646D01*
X21371596Y-70105960D01*
X21462382Y-70078420D01*
X21590000Y-70065851D01*
X21717617Y-70078420D01*
G37*
G36*
X24257617Y-70078420D02*
G01*
X24348403Y-70105960D01*
X24380335Y-70115646D01*
X24493424Y-70176094D01*
X24592554Y-70257447D01*
X24673906Y-70356575D01*
X24734354Y-70469664D01*
X24737010Y-70478420D01*
X24771580Y-70592382D01*
X24781000Y-70688027D01*
X24781000Y-71551973D01*
X24771580Y-71647618D01*
X24766639Y-71663905D01*
X24734354Y-71770336D01*
X24673906Y-71883425D01*
X24592554Y-71982554D01*
X24493425Y-72063906D01*
X24380336Y-72124354D01*
X24348404Y-72134040D01*
X24257618Y-72161580D01*
X24130000Y-72174149D01*
X24002383Y-72161580D01*
X23911597Y-72134040D01*
X23879665Y-72124354D01*
X23766576Y-72063906D01*
X23667447Y-71982554D01*
X23586095Y-71883425D01*
X23525647Y-71770336D01*
X23511699Y-71724355D01*
X23488420Y-71647618D01*
X23479000Y-71551973D01*
X23479000Y-70688028D01*
X23488420Y-70592383D01*
X23525645Y-70469669D01*
X23525646Y-70469665D01*
X23586094Y-70356576D01*
X23667447Y-70257446D01*
X23766575Y-70176094D01*
X23879664Y-70115646D01*
X23911596Y-70105960D01*
X24002382Y-70078420D01*
X24130000Y-70065851D01*
X24257617Y-70078420D01*
G37*
G36*
X-8762383Y-70078420D02*
G01*
X-8671597Y-70105960D01*
X-8639665Y-70115646D01*
X-8526576Y-70176094D01*
X-8427446Y-70257447D01*
X-8346094Y-70356575D01*
X-8285646Y-70469664D01*
X-8282990Y-70478420D01*
X-8248420Y-70592382D01*
X-8239000Y-70688027D01*
X-8239000Y-71551973D01*
X-8248420Y-71647618D01*
X-8253361Y-71663905D01*
X-8285646Y-71770336D01*
X-8346094Y-71883425D01*
X-8427446Y-71982554D01*
X-8526575Y-72063906D01*
X-8639664Y-72124354D01*
X-8671596Y-72134040D01*
X-8762382Y-72161580D01*
X-8890000Y-72174149D01*
X-9017617Y-72161580D01*
X-9108403Y-72134040D01*
X-9140335Y-72124354D01*
X-9253424Y-72063906D01*
X-9352553Y-71982554D01*
X-9433905Y-71883425D01*
X-9494353Y-71770336D01*
X-9508301Y-71724355D01*
X-9531580Y-71647618D01*
X-9541000Y-71551973D01*
X-9541000Y-70688028D01*
X-9531580Y-70592383D01*
X-9494355Y-70469669D01*
X-9494354Y-70469665D01*
X-9433906Y-70356576D01*
X-9352553Y-70257446D01*
X-9253425Y-70176094D01*
X-9140336Y-70115646D01*
X-9108404Y-70105960D01*
X-9017618Y-70078420D01*
X-8890000Y-70065851D01*
X-8762383Y-70078420D01*
G37*
G36*
X-11302383Y-70078420D02*
G01*
X-11211597Y-70105960D01*
X-11179665Y-70115646D01*
X-11066576Y-70176094D01*
X-10967446Y-70257447D01*
X-10886094Y-70356575D01*
X-10825646Y-70469664D01*
X-10822990Y-70478420D01*
X-10788420Y-70592382D01*
X-10779000Y-70688027D01*
X-10779000Y-71551973D01*
X-10788420Y-71647618D01*
X-10793361Y-71663905D01*
X-10825646Y-71770336D01*
X-10886094Y-71883425D01*
X-10967446Y-71982554D01*
X-11066575Y-72063906D01*
X-11179664Y-72124354D01*
X-11211596Y-72134040D01*
X-11302382Y-72161580D01*
X-11430000Y-72174149D01*
X-11557617Y-72161580D01*
X-11648403Y-72134040D01*
X-11680335Y-72124354D01*
X-11793424Y-72063906D01*
X-11892553Y-71982554D01*
X-11973905Y-71883425D01*
X-12034353Y-71770336D01*
X-12048301Y-71724355D01*
X-12071580Y-71647618D01*
X-12081000Y-71551973D01*
X-12081000Y-70688028D01*
X-12071580Y-70592383D01*
X-12034355Y-70469669D01*
X-12034354Y-70469665D01*
X-11973906Y-70356576D01*
X-11892553Y-70257446D01*
X-11793425Y-70176094D01*
X-11680336Y-70115646D01*
X-11648404Y-70105960D01*
X-11557618Y-70078420D01*
X-11430000Y-70065851D01*
X-11302383Y-70078420D01*
G37*
G36*
X-19881234Y-70469669D02*
G01*
X-19792382Y-70478420D01*
X-19701596Y-70505960D01*
X-19669664Y-70515646D01*
X-19556575Y-70576094D01*
X-19457446Y-70657446D01*
X-19376094Y-70756575D01*
X-19315646Y-70869664D01*
X-19315645Y-70869668D01*
X-19278420Y-70992382D01*
X-19265851Y-71120000D01*
X-19278420Y-71247618D01*
X-19295043Y-71302415D01*
X-19315646Y-71370336D01*
X-19376094Y-71483425D01*
X-19457446Y-71582554D01*
X-19556575Y-71663906D01*
X-19669664Y-71724354D01*
X-19701596Y-71734040D01*
X-19792382Y-71761580D01*
X-19856145Y-71767860D01*
X-19888026Y-71771000D01*
X-20751974Y-71771000D01*
X-20783855Y-71767860D01*
X-20847618Y-71761580D01*
X-20938404Y-71734040D01*
X-20970336Y-71724354D01*
X-21083425Y-71663906D01*
X-21182554Y-71582554D01*
X-21263906Y-71483425D01*
X-21324354Y-71370336D01*
X-21344957Y-71302415D01*
X-21361580Y-71247618D01*
X-21374149Y-71120000D01*
X-21361580Y-70992382D01*
X-21324355Y-70869668D01*
X-21324354Y-70869664D01*
X-21263906Y-70756575D01*
X-21182554Y-70657446D01*
X-21083425Y-70576094D01*
X-20970336Y-70515646D01*
X-20938404Y-70505960D01*
X-20847618Y-70478420D01*
X-20758766Y-70469669D01*
X-20751974Y-70469000D01*
X-19888026Y-70469000D01*
X-19881234Y-70469669D01*
G37*
G36*
X32025256Y-68411298D02*
G01*
X32131579Y-68432447D01*
X32432042Y-68556903D01*
X32702451Y-68737585D01*
X32932415Y-68967549D01*
X33113097Y-69237958D01*
X33237553Y-69538421D01*
X33301000Y-69857391D01*
X33301000Y-70182609D01*
X33237553Y-70501579D01*
X33199940Y-70592384D01*
X33131931Y-70756574D01*
X33113097Y-70802042D01*
X32932415Y-71072451D01*
X32702451Y-71302415D01*
X32432042Y-71483097D01*
X32432041Y-71483098D01*
X32432040Y-71483098D01*
X32344037Y-71519550D01*
X32131579Y-71607553D01*
X32025256Y-71628702D01*
X31812611Y-71671000D01*
X31487389Y-71671000D01*
X31274744Y-71628702D01*
X31168421Y-71607553D01*
X30955963Y-71519550D01*
X30867960Y-71483098D01*
X30867959Y-71483098D01*
X30867958Y-71483097D01*
X30597549Y-71302415D01*
X30367585Y-71072451D01*
X30186903Y-70802042D01*
X30168070Y-70756574D01*
X30100060Y-70592384D01*
X30062447Y-70501579D01*
X29999000Y-70182609D01*
X29999000Y-69857391D01*
X30062447Y-69538421D01*
X30186903Y-69237958D01*
X30367585Y-68967549D01*
X30597549Y-68737585D01*
X30867958Y-68556903D01*
X31168421Y-68432447D01*
X31274744Y-68411298D01*
X31487389Y-68369000D01*
X31812611Y-68369000D01*
X32025256Y-68411298D01*
G37*
G36*
X-14774744Y-68411298D02*
G01*
X-14668421Y-68432447D01*
X-14367958Y-68556903D01*
X-14097549Y-68737585D01*
X-13867585Y-68967549D01*
X-13686903Y-69237958D01*
X-13562447Y-69538421D01*
X-13499000Y-69857391D01*
X-13499000Y-70182609D01*
X-13562447Y-70501579D01*
X-13600060Y-70592384D01*
X-13668069Y-70756574D01*
X-13686903Y-70802042D01*
X-13867585Y-71072451D01*
X-14097549Y-71302415D01*
X-14367958Y-71483097D01*
X-14367959Y-71483098D01*
X-14367960Y-71483098D01*
X-14455963Y-71519550D01*
X-14668421Y-71607553D01*
X-14774744Y-71628702D01*
X-14987389Y-71671000D01*
X-15312611Y-71671000D01*
X-15525256Y-71628702D01*
X-15631579Y-71607553D01*
X-15844037Y-71519550D01*
X-15932040Y-71483098D01*
X-15932041Y-71483098D01*
X-15932042Y-71483097D01*
X-16202451Y-71302415D01*
X-16432415Y-71072451D01*
X-16613097Y-70802042D01*
X-16631930Y-70756574D01*
X-16699940Y-70592384D01*
X-16737553Y-70501579D01*
X-16801000Y-70182609D01*
X-16801000Y-69857391D01*
X-16737553Y-69538421D01*
X-16613097Y-69237958D01*
X-16432415Y-68967549D01*
X-16202451Y-68737585D01*
X-15932042Y-68556903D01*
X-15631579Y-68432447D01*
X-15525256Y-68411298D01*
X-15312611Y-68369000D01*
X-14987389Y-68369000D01*
X-14774744Y-68411298D01*
G37*
G36*
X-31874744Y-68241298D02*
G01*
X-31768421Y-68262447D01*
X-31555963Y-68350450D01*
X-31511179Y-68369000D01*
X-31467958Y-68386903D01*
X-31197549Y-68567585D01*
X-30967585Y-68797549D01*
X-30786903Y-69067958D01*
X-30786902Y-69067960D01*
X-30662447Y-69368422D01*
X-30599000Y-69687389D01*
X-30599000Y-70012611D01*
X-30619495Y-70115645D01*
X-30662447Y-70331579D01*
X-30719646Y-70469669D01*
X-30770476Y-70592385D01*
X-30786903Y-70632042D01*
X-30967585Y-70902451D01*
X-31197549Y-71132415D01*
X-31467958Y-71313097D01*
X-31768421Y-71437553D01*
X-31874744Y-71458702D01*
X-32087389Y-71501000D01*
X-32412611Y-71501000D01*
X-32625256Y-71458702D01*
X-32731579Y-71437553D01*
X-33032042Y-71313097D01*
X-33302451Y-71132415D01*
X-33532415Y-70902451D01*
X-33713097Y-70632042D01*
X-33729523Y-70592385D01*
X-33780354Y-70469669D01*
X-33837553Y-70331579D01*
X-33880505Y-70115645D01*
X-33901000Y-70012611D01*
X-33901000Y-69687389D01*
X-33837553Y-69368422D01*
X-33713098Y-69067960D01*
X-33713097Y-69067958D01*
X-33532415Y-68797549D01*
X-33302451Y-68567585D01*
X-33032042Y-68386903D01*
X-32988820Y-68369000D01*
X-32944037Y-68350450D01*
X-32731579Y-68262447D01*
X-32625256Y-68241298D01*
X-32412611Y-68199000D01*
X-32087389Y-68199000D01*
X-31874744Y-68241298D01*
G37*
G36*
X-19856145Y-67932140D02*
G01*
X-19792382Y-67938420D01*
X-19701596Y-67965960D01*
X-19669664Y-67975646D01*
X-19556575Y-68036094D01*
X-19457446Y-68117446D01*
X-19376094Y-68216575D01*
X-19315646Y-68329664D01*
X-19315645Y-68329668D01*
X-19278420Y-68452382D01*
X-19265851Y-68580000D01*
X-19278420Y-68707618D01*
X-19305700Y-68797549D01*
X-19315646Y-68830336D01*
X-19376094Y-68943425D01*
X-19457446Y-69042554D01*
X-19556575Y-69123906D01*
X-19669664Y-69184354D01*
X-19701596Y-69194040D01*
X-19792382Y-69221580D01*
X-19856145Y-69227860D01*
X-19888026Y-69231000D01*
X-20751974Y-69231000D01*
X-20783855Y-69227860D01*
X-20847618Y-69221580D01*
X-20938404Y-69194040D01*
X-20970336Y-69184354D01*
X-21083425Y-69123906D01*
X-21182554Y-69042554D01*
X-21263906Y-68943425D01*
X-21324354Y-68830336D01*
X-21334300Y-68797549D01*
X-21361580Y-68707618D01*
X-21374149Y-68580000D01*
X-21361580Y-68452382D01*
X-21324355Y-68329668D01*
X-21324354Y-68329664D01*
X-21263906Y-68216575D01*
X-21182554Y-68117446D01*
X-21083425Y-68036094D01*
X-20970336Y-67975646D01*
X-20938404Y-67965960D01*
X-20847618Y-67938420D01*
X-20783855Y-67932140D01*
X-20751974Y-67929000D01*
X-19888026Y-67929000D01*
X-19856145Y-67932140D01*
G37*
G36*
X-19856145Y-65392140D02*
G01*
X-19792382Y-65398420D01*
X-19701596Y-65425960D01*
X-19669664Y-65435646D01*
X-19556575Y-65496094D01*
X-19457446Y-65577446D01*
X-19376094Y-65676575D01*
X-19315646Y-65789664D01*
X-19315645Y-65789668D01*
X-19278420Y-65912382D01*
X-19265851Y-66040000D01*
X-19278420Y-66167618D01*
X-19305960Y-66258404D01*
X-19315646Y-66290336D01*
X-19376094Y-66403425D01*
X-19457446Y-66502554D01*
X-19556575Y-66583906D01*
X-19669664Y-66644354D01*
X-19701596Y-66654040D01*
X-19792382Y-66681580D01*
X-19856145Y-66687860D01*
X-19888026Y-66691000D01*
X-20751974Y-66691000D01*
X-20783855Y-66687860D01*
X-20847618Y-66681580D01*
X-20938404Y-66654040D01*
X-20970336Y-66644354D01*
X-21083425Y-66583906D01*
X-21182554Y-66502554D01*
X-21263906Y-66403425D01*
X-21324354Y-66290336D01*
X-21334040Y-66258404D01*
X-21361580Y-66167618D01*
X-21374149Y-66040000D01*
X-21361580Y-65912382D01*
X-21324355Y-65789668D01*
X-21324354Y-65789664D01*
X-21263906Y-65676575D01*
X-21182554Y-65577446D01*
X-21083425Y-65496094D01*
X-20970336Y-65435646D01*
X-20938404Y-65425960D01*
X-20847618Y-65398420D01*
X-20783855Y-65392140D01*
X-20751974Y-65389000D01*
X-19888026Y-65389000D01*
X-19856145Y-65392140D01*
G37*
G36*
X-19856145Y-62852140D02*
G01*
X-19792382Y-62858420D01*
X-19701596Y-62885960D01*
X-19669664Y-62895646D01*
X-19556575Y-62956094D01*
X-19457446Y-63037446D01*
X-19376094Y-63136575D01*
X-19315646Y-63249664D01*
X-19315645Y-63249668D01*
X-19278420Y-63372382D01*
X-19265851Y-63500000D01*
X-19278420Y-63627618D01*
X-19305960Y-63718404D01*
X-19315646Y-63750336D01*
X-19376094Y-63863425D01*
X-19457446Y-63962554D01*
X-19556575Y-64043906D01*
X-19669664Y-64104354D01*
X-19701596Y-64114040D01*
X-19792382Y-64141580D01*
X-19856145Y-64147860D01*
X-19888026Y-64151000D01*
X-20751974Y-64151000D01*
X-20783855Y-64147860D01*
X-20847618Y-64141580D01*
X-20938404Y-64114040D01*
X-20970336Y-64104354D01*
X-21083425Y-64043906D01*
X-21182554Y-63962554D01*
X-21263906Y-63863425D01*
X-21324354Y-63750336D01*
X-21334040Y-63718404D01*
X-21361580Y-63627618D01*
X-21374149Y-63500000D01*
X-21361580Y-63372382D01*
X-21324355Y-63249668D01*
X-21324354Y-63249664D01*
X-21263906Y-63136575D01*
X-21182554Y-63037446D01*
X-21083425Y-62956094D01*
X-20970336Y-62895646D01*
X-20938404Y-62885960D01*
X-20847618Y-62858420D01*
X-20783855Y-62852140D01*
X-20751974Y-62849000D01*
X-19888026Y-62849000D01*
X-19856145Y-62852140D01*
G37*
G36*
X30261000Y-62011000D02*
G01*
X28159000Y-62011000D01*
X28159000Y-59909000D01*
X30261000Y-59909000D01*
X30261000Y-62011000D01*
G37*
G36*
X-19856145Y-60312140D02*
G01*
X-19792382Y-60318420D01*
X-19701596Y-60345960D01*
X-19669664Y-60355646D01*
X-19556575Y-60416094D01*
X-19457446Y-60497446D01*
X-19376094Y-60596575D01*
X-19315646Y-60709664D01*
X-19315645Y-60709668D01*
X-19278420Y-60832382D01*
X-19265851Y-60960000D01*
X-19278420Y-61087618D01*
X-19305960Y-61178404D01*
X-19315646Y-61210336D01*
X-19376094Y-61323425D01*
X-19457446Y-61422554D01*
X-19556575Y-61503906D01*
X-19669664Y-61564354D01*
X-19701596Y-61574040D01*
X-19792382Y-61601580D01*
X-19856145Y-61607860D01*
X-19888026Y-61611000D01*
X-20751974Y-61611000D01*
X-20783855Y-61607860D01*
X-20847618Y-61601580D01*
X-20938404Y-61574040D01*
X-20970336Y-61564354D01*
X-21083425Y-61503906D01*
X-21182554Y-61422554D01*
X-21263906Y-61323425D01*
X-21324354Y-61210336D01*
X-21334040Y-61178404D01*
X-21361580Y-61087618D01*
X-21374149Y-60960000D01*
X-21361580Y-60832382D01*
X-21324355Y-60709668D01*
X-21324354Y-60709664D01*
X-21263906Y-60596575D01*
X-21182554Y-60497446D01*
X-21083425Y-60416094D01*
X-20970336Y-60355646D01*
X-20938404Y-60345960D01*
X-20847618Y-60318420D01*
X-20783855Y-60312140D01*
X-20751974Y-60309000D01*
X-19888026Y-60309000D01*
X-19856145Y-60312140D01*
G37*
G36*
X29516564Y-57409389D02*
G01*
X29707833Y-57488615D01*
X29707835Y-57488616D01*
X29879973Y-57603635D01*
X30026365Y-57750027D01*
X30070210Y-57815645D01*
X30141385Y-57922167D01*
X30220611Y-58113436D01*
X30261000Y-58316484D01*
X30261000Y-58523516D01*
X30220611Y-58726564D01*
X30197058Y-58783425D01*
X30141384Y-58917835D01*
X30026365Y-59089973D01*
X29879973Y-59236365D01*
X29707835Y-59351384D01*
X29707834Y-59351385D01*
X29707833Y-59351385D01*
X29516564Y-59430611D01*
X29313516Y-59471000D01*
X29106484Y-59471000D01*
X28903436Y-59430611D01*
X28712167Y-59351385D01*
X28712166Y-59351385D01*
X28712165Y-59351384D01*
X28540027Y-59236365D01*
X28393635Y-59089973D01*
X28278616Y-58917835D01*
X28222942Y-58783425D01*
X28199389Y-58726564D01*
X28159000Y-58523516D01*
X28159000Y-58316484D01*
X28199389Y-58113436D01*
X28278615Y-57922167D01*
X28349791Y-57815645D01*
X28393635Y-57750027D01*
X28540027Y-57603635D01*
X28712165Y-57488616D01*
X28712167Y-57488615D01*
X28903436Y-57409389D01*
X29106484Y-57369000D01*
X29313516Y-57369000D01*
X29516564Y-57409389D01*
G37*
G36*
X-19856145Y-57772140D02*
G01*
X-19792382Y-57778420D01*
X-19701596Y-57805960D01*
X-19669664Y-57815646D01*
X-19556575Y-57876094D01*
X-19457446Y-57957446D01*
X-19376094Y-58056575D01*
X-19315646Y-58169664D01*
X-19315645Y-58169668D01*
X-19278420Y-58292382D01*
X-19265851Y-58420000D01*
X-19278420Y-58547618D01*
X-19305960Y-58638404D01*
X-19315646Y-58670336D01*
X-19376094Y-58783425D01*
X-19457446Y-58882554D01*
X-19556575Y-58963906D01*
X-19669664Y-59024354D01*
X-19701596Y-59034040D01*
X-19792382Y-59061580D01*
X-19856145Y-59067860D01*
X-19888026Y-59071000D01*
X-20751974Y-59071000D01*
X-20783855Y-59067860D01*
X-20847618Y-59061580D01*
X-20938404Y-59034040D01*
X-20970336Y-59024354D01*
X-21083425Y-58963906D01*
X-21182554Y-58882554D01*
X-21263906Y-58783425D01*
X-21324354Y-58670336D01*
X-21334040Y-58638404D01*
X-21361580Y-58547618D01*
X-21374149Y-58420000D01*
X-21361580Y-58292382D01*
X-21324355Y-58169668D01*
X-21324354Y-58169664D01*
X-21263906Y-58056575D01*
X-21182554Y-57957446D01*
X-21083425Y-57876094D01*
X-20970336Y-57815646D01*
X-20938404Y-57805960D01*
X-20847618Y-57778420D01*
X-20783855Y-57772140D01*
X-20751974Y-57769000D01*
X-19888026Y-57769000D01*
X-19856145Y-57772140D01*
G37*
G36*
X29516564Y-54869389D02*
G01*
X29707833Y-54948615D01*
X29707835Y-54948616D01*
X29879973Y-55063635D01*
X30026365Y-55210027D01*
X30070210Y-55275645D01*
X30141385Y-55382167D01*
X30220611Y-55573436D01*
X30261000Y-55776484D01*
X30261000Y-55983516D01*
X30220611Y-56186564D01*
X30155998Y-56342553D01*
X30141384Y-56377835D01*
X30026365Y-56549973D01*
X29879973Y-56696365D01*
X29707835Y-56811384D01*
X29707834Y-56811385D01*
X29707833Y-56811385D01*
X29516564Y-56890611D01*
X29313516Y-56931000D01*
X29106484Y-56931000D01*
X28903436Y-56890611D01*
X28712167Y-56811385D01*
X28712166Y-56811385D01*
X28712165Y-56811384D01*
X28540027Y-56696365D01*
X28393635Y-56549973D01*
X28278616Y-56377835D01*
X28264002Y-56342553D01*
X28199389Y-56186564D01*
X28159000Y-55983516D01*
X28159000Y-55776484D01*
X28199389Y-55573436D01*
X28278615Y-55382167D01*
X28349791Y-55275645D01*
X28393635Y-55210027D01*
X28540027Y-55063635D01*
X28712165Y-54948616D01*
X28712167Y-54948615D01*
X28903436Y-54869389D01*
X29106484Y-54829000D01*
X29313516Y-54829000D01*
X29516564Y-54869389D01*
G37*
G36*
X-19856145Y-55232140D02*
G01*
X-19792382Y-55238420D01*
X-19701596Y-55265960D01*
X-19669664Y-55275646D01*
X-19556575Y-55336094D01*
X-19457446Y-55417446D01*
X-19376094Y-55516575D01*
X-19315646Y-55629664D01*
X-19315645Y-55629668D01*
X-19278420Y-55752382D01*
X-19265851Y-55880000D01*
X-19278420Y-56007618D01*
X-19298283Y-56073097D01*
X-19315646Y-56130336D01*
X-19376094Y-56243425D01*
X-19457446Y-56342554D01*
X-19556575Y-56423906D01*
X-19669664Y-56484354D01*
X-19701596Y-56494040D01*
X-19792382Y-56521580D01*
X-19856145Y-56527860D01*
X-19888026Y-56531000D01*
X-20751974Y-56531000D01*
X-20783855Y-56527860D01*
X-20847618Y-56521580D01*
X-20938404Y-56494040D01*
X-20970336Y-56484354D01*
X-21083425Y-56423906D01*
X-21182554Y-56342554D01*
X-21263906Y-56243425D01*
X-21324354Y-56130336D01*
X-21341717Y-56073097D01*
X-21361580Y-56007618D01*
X-21374149Y-55880000D01*
X-21361580Y-55752382D01*
X-21324355Y-55629668D01*
X-21324354Y-55629664D01*
X-21263906Y-55516575D01*
X-21182554Y-55417446D01*
X-21083425Y-55336094D01*
X-20970336Y-55275646D01*
X-20938404Y-55265960D01*
X-20847618Y-55238420D01*
X-20783855Y-55232140D01*
X-20751974Y-55229000D01*
X-19888026Y-55229000D01*
X-19856145Y-55232140D01*
G37*
G36*
X-31874744Y-53001298D02*
G01*
X-31768421Y-53022447D01*
X-31467958Y-53146903D01*
X-31197549Y-53327585D01*
X-30967585Y-53557549D01*
X-30786903Y-53827958D01*
X-30786902Y-53827960D01*
X-30662447Y-54128422D01*
X-30599000Y-54447389D01*
X-30599000Y-54772611D01*
X-30662447Y-55091578D01*
X-30782812Y-55382167D01*
X-30786903Y-55392042D01*
X-30967585Y-55662451D01*
X-31197549Y-55892415D01*
X-31467958Y-56073097D01*
X-31768421Y-56197553D01*
X-31874744Y-56218702D01*
X-32087389Y-56261000D01*
X-32412611Y-56261000D01*
X-32625256Y-56218702D01*
X-32731579Y-56197553D01*
X-33032042Y-56073097D01*
X-33302451Y-55892415D01*
X-33532415Y-55662451D01*
X-33713097Y-55392042D01*
X-33717187Y-55382167D01*
X-33837553Y-55091578D01*
X-33901000Y-54772611D01*
X-33901000Y-54447389D01*
X-33837553Y-54128422D01*
X-33713098Y-53827960D01*
X-33713097Y-53827958D01*
X-33532415Y-53557549D01*
X-33302451Y-53327585D01*
X-33032042Y-53146903D01*
X-32731579Y-53022447D01*
X-32625256Y-53001298D01*
X-32412611Y-52959000D01*
X-32087389Y-52959000D01*
X-31874744Y-53001298D01*
G37*
G36*
X-19856145Y-52692140D02*
G01*
X-19792382Y-52698420D01*
X-19701596Y-52725960D01*
X-19669664Y-52735646D01*
X-19556575Y-52796094D01*
X-19457446Y-52877446D01*
X-19376094Y-52976575D01*
X-19315646Y-53089664D01*
X-19315645Y-53089668D01*
X-19278420Y-53212382D01*
X-19265851Y-53340000D01*
X-19278420Y-53467618D01*
X-19305700Y-53557549D01*
X-19315646Y-53590336D01*
X-19376094Y-53703425D01*
X-19457446Y-53802554D01*
X-19556575Y-53883906D01*
X-19669664Y-53944354D01*
X-19701596Y-53954040D01*
X-19792382Y-53981580D01*
X-19856145Y-53987860D01*
X-19888026Y-53991000D01*
X-20751974Y-53991000D01*
X-20783855Y-53987860D01*
X-20847618Y-53981580D01*
X-20938404Y-53954040D01*
X-20970336Y-53944354D01*
X-21083425Y-53883906D01*
X-21182554Y-53802554D01*
X-21263906Y-53703425D01*
X-21324354Y-53590336D01*
X-21334300Y-53557549D01*
X-21361580Y-53467618D01*
X-21374149Y-53340000D01*
X-21361580Y-53212382D01*
X-21324355Y-53089668D01*
X-21324354Y-53089664D01*
X-21263906Y-52976575D01*
X-21182554Y-52877446D01*
X-21083425Y-52796094D01*
X-20970336Y-52735646D01*
X-20938404Y-52725960D01*
X-20847618Y-52698420D01*
X-20783855Y-52692140D01*
X-20751974Y-52689000D01*
X-19888026Y-52689000D01*
X-19856145Y-52692140D01*
G37*
G36*
X-28947415Y-48198802D02*
G01*
X-28797590Y-48228604D01*
X-28515326Y-48345521D01*
X-28261295Y-48515259D01*
X-28045259Y-48731295D01*
X-27875521Y-48985326D01*
X-27758604Y-49267590D01*
X-27699000Y-49567240D01*
X-27699000Y-49872760D01*
X-27758604Y-50172410D01*
X-27875521Y-50454674D01*
X-28045259Y-50708705D01*
X-28261295Y-50924741D01*
X-28515326Y-51094479D01*
X-28797590Y-51211396D01*
X-28947415Y-51241198D01*
X-29097239Y-51271000D01*
X-29402761Y-51271000D01*
X-29552585Y-51241198D01*
X-29702410Y-51211396D01*
X-29984674Y-51094479D01*
X-30238705Y-50924741D01*
X-30454741Y-50708705D01*
X-30624479Y-50454674D01*
X-30741396Y-50172410D01*
X-30801000Y-49872760D01*
X-30801000Y-49567240D01*
X-30741396Y-49267590D01*
X-30624479Y-48985326D01*
X-30454741Y-48731295D01*
X-30238705Y-48515259D01*
X-29984674Y-48345521D01*
X-29702410Y-48228604D01*
X-29552585Y-48198802D01*
X-29402761Y-48169000D01*
X-29097239Y-48169000D01*
X-28947415Y-48198802D01*
G37*
G36*
X-33947415Y-48198802D02*
G01*
X-33797590Y-48228604D01*
X-33515326Y-48345521D01*
X-33261295Y-48515259D01*
X-33045259Y-48731295D01*
X-32875521Y-48985326D01*
X-32758604Y-49267590D01*
X-32699000Y-49567240D01*
X-32699000Y-49872760D01*
X-32758604Y-50172410D01*
X-32875521Y-50454674D01*
X-33045259Y-50708705D01*
X-33261295Y-50924741D01*
X-33515326Y-51094479D01*
X-33797590Y-51211396D01*
X-33947415Y-51241198D01*
X-34097239Y-51271000D01*
X-34402761Y-51271000D01*
X-34552585Y-51241198D01*
X-34702410Y-51211396D01*
X-34984674Y-51094479D01*
X-35238705Y-50924741D01*
X-35454741Y-50708705D01*
X-35624479Y-50454674D01*
X-35741396Y-50172410D01*
X-35801000Y-49872760D01*
X-35801000Y-49567240D01*
X-35741396Y-49267590D01*
X-35624479Y-48985326D01*
X-35454741Y-48731295D01*
X-35238705Y-48515259D01*
X-34984674Y-48345521D01*
X-34702410Y-48228604D01*
X-34552585Y-48198802D01*
X-34402761Y-48169000D01*
X-34097239Y-48169000D01*
X-33947415Y-48198802D01*
G37*
G36*
X32025256Y-44911298D02*
G01*
X32131579Y-44932447D01*
X32432042Y-45056903D01*
X32702451Y-45237585D01*
X32932415Y-45467549D01*
X32932416Y-45467551D01*
X33113098Y-45737960D01*
X33237553Y-46038422D01*
X33301000Y-46357389D01*
X33301000Y-46682611D01*
X33285292Y-46761580D01*
X33237553Y-47001579D01*
X33113097Y-47302042D01*
X32932415Y-47572451D01*
X32702451Y-47802415D01*
X32432042Y-47983097D01*
X32131579Y-48107553D01*
X32025256Y-48128702D01*
X31812611Y-48171000D01*
X31487389Y-48171000D01*
X31274744Y-48128702D01*
X31168421Y-48107553D01*
X30867958Y-47983097D01*
X30597549Y-47802415D01*
X30367585Y-47572451D01*
X30186903Y-47302042D01*
X30062447Y-47001579D01*
X30014708Y-46761580D01*
X29999000Y-46682611D01*
X29999000Y-46357389D01*
X30062447Y-46038422D01*
X30186902Y-45737960D01*
X30367584Y-45467551D01*
X30367585Y-45467549D01*
X30597549Y-45237585D01*
X30867958Y-45056903D01*
X31168421Y-44932447D01*
X31274744Y-44911298D01*
X31487389Y-44869000D01*
X31812611Y-44869000D01*
X32025256Y-44911298D01*
G37*
G36*
X-14774744Y-44911298D02*
G01*
X-14668421Y-44932447D01*
X-14367958Y-45056903D01*
X-14097549Y-45237585D01*
X-13867585Y-45467549D01*
X-13867584Y-45467551D01*
X-13686902Y-45737960D01*
X-13562447Y-46038422D01*
X-13499000Y-46357389D01*
X-13499000Y-46682611D01*
X-13514708Y-46761580D01*
X-13562447Y-47001579D01*
X-13686903Y-47302042D01*
X-13867585Y-47572451D01*
X-14097549Y-47802415D01*
X-14367958Y-47983097D01*
X-14668421Y-48107553D01*
X-14774744Y-48128702D01*
X-14987389Y-48171000D01*
X-15312611Y-48171000D01*
X-15525256Y-48128702D01*
X-15631579Y-48107553D01*
X-15932042Y-47983097D01*
X-16202451Y-47802415D01*
X-16432415Y-47572451D01*
X-16613097Y-47302042D01*
X-16737553Y-47001579D01*
X-16785292Y-46761580D01*
X-16801000Y-46682611D01*
X-16801000Y-46357389D01*
X-16737553Y-46038422D01*
X-16613098Y-45737960D01*
X-16432416Y-45467551D01*
X-16432415Y-45467549D01*
X-16202451Y-45237585D01*
X-15932042Y-45056903D01*
X-15631579Y-44932447D01*
X-15525256Y-44911298D01*
X-15312611Y-44869000D01*
X-14987389Y-44869000D01*
X-14774744Y-44911298D01*
G37*
G36*
X24257617Y-44678420D02*
G01*
X24348403Y-44705960D01*
X24380335Y-44715646D01*
X24493424Y-44776094D01*
X24592554Y-44857447D01*
X24673906Y-44956575D01*
X24734354Y-45069664D01*
X24744040Y-45101596D01*
X24771580Y-45192382D01*
X24781000Y-45288027D01*
X24781000Y-46151973D01*
X24771580Y-46247618D01*
X24744040Y-46338404D01*
X24734354Y-46370336D01*
X24673906Y-46483425D01*
X24592554Y-46582554D01*
X24493425Y-46663906D01*
X24380336Y-46724354D01*
X24348404Y-46734040D01*
X24257618Y-46761580D01*
X24130000Y-46774149D01*
X24002383Y-46761580D01*
X23911597Y-46734040D01*
X23879665Y-46724354D01*
X23766576Y-46663906D01*
X23667447Y-46582554D01*
X23586095Y-46483425D01*
X23525647Y-46370336D01*
X23521282Y-46355946D01*
X23488420Y-46247618D01*
X23479000Y-46151973D01*
X23479000Y-45288028D01*
X23488420Y-45192383D01*
X23525645Y-45069669D01*
X23525646Y-45069665D01*
X23586094Y-44956576D01*
X23667447Y-44857446D01*
X23766575Y-44776094D01*
X23879664Y-44715646D01*
X23911596Y-44705960D01*
X24002382Y-44678420D01*
X24130000Y-44665851D01*
X24257617Y-44678420D01*
G37*
G36*
X21717617Y-44678420D02*
G01*
X21808403Y-44705960D01*
X21840335Y-44715646D01*
X21953424Y-44776094D01*
X22052554Y-44857447D01*
X22133906Y-44956575D01*
X22194354Y-45069664D01*
X22204040Y-45101596D01*
X22231580Y-45192382D01*
X22241000Y-45288027D01*
X22241000Y-46151973D01*
X22231580Y-46247618D01*
X22204040Y-46338404D01*
X22194354Y-46370336D01*
X22133906Y-46483425D01*
X22052554Y-46582554D01*
X21953425Y-46663906D01*
X21840336Y-46724354D01*
X21808404Y-46734040D01*
X21717618Y-46761580D01*
X21590000Y-46774149D01*
X21462383Y-46761580D01*
X21371597Y-46734040D01*
X21339665Y-46724354D01*
X21226576Y-46663906D01*
X21127447Y-46582554D01*
X21046095Y-46483425D01*
X20985647Y-46370336D01*
X20981282Y-46355946D01*
X20948420Y-46247618D01*
X20939000Y-46151973D01*
X20939000Y-45288028D01*
X20948420Y-45192383D01*
X20985645Y-45069669D01*
X20985646Y-45069665D01*
X21046094Y-44956576D01*
X21127447Y-44857446D01*
X21226575Y-44776094D01*
X21339664Y-44715646D01*
X21371596Y-44705960D01*
X21462382Y-44678420D01*
X21590000Y-44665851D01*
X21717617Y-44678420D01*
G37*
G36*
X-11302383Y-44678420D02*
G01*
X-11211597Y-44705960D01*
X-11179665Y-44715646D01*
X-11066576Y-44776094D01*
X-10967446Y-44857447D01*
X-10886094Y-44956575D01*
X-10825646Y-45069664D01*
X-10815960Y-45101596D01*
X-10788420Y-45192382D01*
X-10779000Y-45288027D01*
X-10779000Y-46151973D01*
X-10788420Y-46247618D01*
X-10815960Y-46338404D01*
X-10825646Y-46370336D01*
X-10886094Y-46483425D01*
X-10967446Y-46582554D01*
X-11066575Y-46663906D01*
X-11179664Y-46724354D01*
X-11211596Y-46734040D01*
X-11302382Y-46761580D01*
X-11430000Y-46774149D01*
X-11557617Y-46761580D01*
X-11648403Y-46734040D01*
X-11680335Y-46724354D01*
X-11793424Y-46663906D01*
X-11892553Y-46582554D01*
X-11973905Y-46483425D01*
X-12034353Y-46370336D01*
X-12038718Y-46355946D01*
X-12071580Y-46247618D01*
X-12081000Y-46151973D01*
X-12081000Y-45288028D01*
X-12071580Y-45192383D01*
X-12034355Y-45069669D01*
X-12034354Y-45069665D01*
X-11973906Y-44956576D01*
X-11892553Y-44857446D01*
X-11793425Y-44776094D01*
X-11680336Y-44715646D01*
X-11648404Y-44705960D01*
X-11557618Y-44678420D01*
X-11430000Y-44665851D01*
X-11302383Y-44678420D01*
G37*
G36*
X19177617Y-44678420D02*
G01*
X19268403Y-44705960D01*
X19300335Y-44715646D01*
X19413424Y-44776094D01*
X19512554Y-44857447D01*
X19593906Y-44956575D01*
X19654354Y-45069664D01*
X19664040Y-45101596D01*
X19691580Y-45192382D01*
X19701000Y-45288027D01*
X19701000Y-46151973D01*
X19691580Y-46247618D01*
X19664040Y-46338404D01*
X19654354Y-46370336D01*
X19593906Y-46483425D01*
X19512554Y-46582554D01*
X19413425Y-46663906D01*
X19300336Y-46724354D01*
X19268404Y-46734040D01*
X19177618Y-46761580D01*
X19050000Y-46774149D01*
X18922383Y-46761580D01*
X18831597Y-46734040D01*
X18799665Y-46724354D01*
X18686576Y-46663906D01*
X18587447Y-46582554D01*
X18506095Y-46483425D01*
X18445647Y-46370336D01*
X18441282Y-46355946D01*
X18408420Y-46247618D01*
X18399000Y-46151973D01*
X18399000Y-45288028D01*
X18408420Y-45192383D01*
X18445645Y-45069669D01*
X18445646Y-45069665D01*
X18506094Y-44956576D01*
X18587447Y-44857446D01*
X18686575Y-44776094D01*
X18799664Y-44715646D01*
X18831596Y-44705960D01*
X18922382Y-44678420D01*
X19050000Y-44665851D01*
X19177617Y-44678420D01*
G37*
G36*
X-8762383Y-44678420D02*
G01*
X-8671597Y-44705960D01*
X-8639665Y-44715646D01*
X-8526576Y-44776094D01*
X-8427446Y-44857447D01*
X-8346094Y-44956575D01*
X-8285646Y-45069664D01*
X-8275960Y-45101596D01*
X-8248420Y-45192382D01*
X-8239000Y-45288027D01*
X-8239000Y-46151973D01*
X-8248420Y-46247618D01*
X-8275960Y-46338404D01*
X-8285646Y-46370336D01*
X-8346094Y-46483425D01*
X-8427446Y-46582554D01*
X-8526575Y-46663906D01*
X-8639664Y-46724354D01*
X-8671596Y-46734040D01*
X-8762382Y-46761580D01*
X-8890000Y-46774149D01*
X-9017617Y-46761580D01*
X-9108403Y-46734040D01*
X-9140335Y-46724354D01*
X-9253424Y-46663906D01*
X-9352553Y-46582554D01*
X-9433905Y-46483425D01*
X-9494353Y-46370336D01*
X-9498718Y-46355946D01*
X-9531580Y-46247618D01*
X-9541000Y-46151973D01*
X-9541000Y-45288028D01*
X-9531580Y-45192383D01*
X-9494355Y-45069669D01*
X-9494354Y-45069665D01*
X-9433906Y-44956576D01*
X-9352553Y-44857446D01*
X-9253425Y-44776094D01*
X-9140336Y-44715646D01*
X-9108404Y-44705960D01*
X-9017618Y-44678420D01*
X-8890000Y-44665851D01*
X-8762383Y-44678420D01*
G37*
G36*
X16637617Y-44678420D02*
G01*
X16728403Y-44705960D01*
X16760335Y-44715646D01*
X16873424Y-44776094D01*
X16972554Y-44857447D01*
X17053906Y-44956575D01*
X17114354Y-45069664D01*
X17124040Y-45101596D01*
X17151580Y-45192382D01*
X17161000Y-45288027D01*
X17161000Y-46151973D01*
X17151580Y-46247618D01*
X17124040Y-46338404D01*
X17114354Y-46370336D01*
X17053906Y-46483425D01*
X16972554Y-46582554D01*
X16873425Y-46663906D01*
X16760336Y-46724354D01*
X16728404Y-46734040D01*
X16637618Y-46761580D01*
X16510000Y-46774149D01*
X16382383Y-46761580D01*
X16291597Y-46734040D01*
X16259665Y-46724354D01*
X16146576Y-46663906D01*
X16047447Y-46582554D01*
X15966095Y-46483425D01*
X15905647Y-46370336D01*
X15901282Y-46355946D01*
X15868420Y-46247618D01*
X15859000Y-46151973D01*
X15859000Y-45288028D01*
X15868420Y-45192383D01*
X15905645Y-45069669D01*
X15905646Y-45069665D01*
X15966094Y-44956576D01*
X16047447Y-44857446D01*
X16146575Y-44776094D01*
X16259664Y-44715646D01*
X16291596Y-44705960D01*
X16382382Y-44678420D01*
X16510000Y-44665851D01*
X16637617Y-44678420D01*
G37*
G36*
X-6222383Y-44678420D02*
G01*
X-6131597Y-44705960D01*
X-6099665Y-44715646D01*
X-5986576Y-44776094D01*
X-5887446Y-44857447D01*
X-5806094Y-44956575D01*
X-5745646Y-45069664D01*
X-5735960Y-45101596D01*
X-5708420Y-45192382D01*
X-5699000Y-45288027D01*
X-5699000Y-46151973D01*
X-5708420Y-46247618D01*
X-5735960Y-46338404D01*
X-5745646Y-46370336D01*
X-5806094Y-46483425D01*
X-5887446Y-46582554D01*
X-5986575Y-46663906D01*
X-6099664Y-46724354D01*
X-6131596Y-46734040D01*
X-6222382Y-46761580D01*
X-6350000Y-46774149D01*
X-6477617Y-46761580D01*
X-6568403Y-46734040D01*
X-6600335Y-46724354D01*
X-6713424Y-46663906D01*
X-6812553Y-46582554D01*
X-6893905Y-46483425D01*
X-6954353Y-46370336D01*
X-6958718Y-46355946D01*
X-6991580Y-46247618D01*
X-7001000Y-46151973D01*
X-7001000Y-45288028D01*
X-6991580Y-45192383D01*
X-6954355Y-45069669D01*
X-6954354Y-45069665D01*
X-6893906Y-44956576D01*
X-6812553Y-44857446D01*
X-6713425Y-44776094D01*
X-6600336Y-44715646D01*
X-6568404Y-44705960D01*
X-6477618Y-44678420D01*
X-6350000Y-44665851D01*
X-6222383Y-44678420D01*
G37*
G36*
X11557617Y-44678420D02*
G01*
X11648403Y-44705960D01*
X11680335Y-44715646D01*
X11793424Y-44776094D01*
X11892554Y-44857447D01*
X11973906Y-44956575D01*
X12034354Y-45069664D01*
X12044040Y-45101596D01*
X12071580Y-45192382D01*
X12081000Y-45288027D01*
X12081000Y-46151973D01*
X12071580Y-46247618D01*
X12044040Y-46338404D01*
X12034354Y-46370336D01*
X11973906Y-46483425D01*
X11892554Y-46582554D01*
X11793425Y-46663906D01*
X11680336Y-46724354D01*
X11648404Y-46734040D01*
X11557618Y-46761580D01*
X11430000Y-46774149D01*
X11302383Y-46761580D01*
X11211597Y-46734040D01*
X11179665Y-46724354D01*
X11066576Y-46663906D01*
X10967447Y-46582554D01*
X10886095Y-46483425D01*
X10825647Y-46370336D01*
X10821282Y-46355946D01*
X10788420Y-46247618D01*
X10779000Y-46151973D01*
X10779000Y-45288028D01*
X10788420Y-45192383D01*
X10825645Y-45069669D01*
X10825646Y-45069665D01*
X10886094Y-44956576D01*
X10967447Y-44857446D01*
X11066575Y-44776094D01*
X11179664Y-44715646D01*
X11211596Y-44705960D01*
X11302382Y-44678420D01*
X11430000Y-44665851D01*
X11557617Y-44678420D01*
G37*
G36*
X-1142383Y-44678420D02*
G01*
X-1051597Y-44705960D01*
X-1019665Y-44715646D01*
X-906576Y-44776094D01*
X-807446Y-44857447D01*
X-726094Y-44956575D01*
X-665646Y-45069664D01*
X-655960Y-45101596D01*
X-628420Y-45192382D01*
X-619000Y-45288027D01*
X-619000Y-46151973D01*
X-628420Y-46247618D01*
X-655960Y-46338404D01*
X-665646Y-46370336D01*
X-726094Y-46483425D01*
X-807446Y-46582554D01*
X-906575Y-46663906D01*
X-1019664Y-46724354D01*
X-1051596Y-46734040D01*
X-1142382Y-46761580D01*
X-1270000Y-46774149D01*
X-1397617Y-46761580D01*
X-1488403Y-46734040D01*
X-1520335Y-46724354D01*
X-1633424Y-46663906D01*
X-1732553Y-46582554D01*
X-1813905Y-46483425D01*
X-1874353Y-46370336D01*
X-1878718Y-46355946D01*
X-1911580Y-46247618D01*
X-1921000Y-46151973D01*
X-1921000Y-45288028D01*
X-1911580Y-45192383D01*
X-1874355Y-45069669D01*
X-1874354Y-45069665D01*
X-1813906Y-44956576D01*
X-1732553Y-44857446D01*
X-1633425Y-44776094D01*
X-1520336Y-44715646D01*
X-1488404Y-44705960D01*
X-1397618Y-44678420D01*
X-1270000Y-44665851D01*
X-1142383Y-44678420D01*
G37*
G36*
X9017617Y-44678420D02*
G01*
X9108403Y-44705960D01*
X9140335Y-44715646D01*
X9253424Y-44776094D01*
X9352554Y-44857447D01*
X9433906Y-44956575D01*
X9494354Y-45069664D01*
X9504040Y-45101596D01*
X9531580Y-45192382D01*
X9541000Y-45288027D01*
X9541000Y-46151973D01*
X9531580Y-46247618D01*
X9504040Y-46338404D01*
X9494354Y-46370336D01*
X9433906Y-46483425D01*
X9352554Y-46582554D01*
X9253425Y-46663906D01*
X9140336Y-46724354D01*
X9108404Y-46734040D01*
X9017618Y-46761580D01*
X8890000Y-46774149D01*
X8762383Y-46761580D01*
X8671597Y-46734040D01*
X8639665Y-46724354D01*
X8526576Y-46663906D01*
X8427447Y-46582554D01*
X8346095Y-46483425D01*
X8285647Y-46370336D01*
X8281282Y-46355946D01*
X8248420Y-46247618D01*
X8239000Y-46151973D01*
X8239000Y-45288028D01*
X8248420Y-45192383D01*
X8285645Y-45069669D01*
X8285646Y-45069665D01*
X8346094Y-44956576D01*
X8427447Y-44857446D01*
X8526575Y-44776094D01*
X8639664Y-44715646D01*
X8671596Y-44705960D01*
X8762382Y-44678420D01*
X8890000Y-44665851D01*
X9017617Y-44678420D01*
G37*
G36*
X1397617Y-44678420D02*
G01*
X1488403Y-44705960D01*
X1520335Y-44715646D01*
X1633424Y-44776094D01*
X1732554Y-44857447D01*
X1813906Y-44956575D01*
X1874354Y-45069664D01*
X1884040Y-45101596D01*
X1911580Y-45192382D01*
X1921000Y-45288027D01*
X1921000Y-46151973D01*
X1911580Y-46247618D01*
X1884040Y-46338404D01*
X1874354Y-46370336D01*
X1813906Y-46483425D01*
X1732554Y-46582554D01*
X1633425Y-46663906D01*
X1520336Y-46724354D01*
X1488404Y-46734040D01*
X1397618Y-46761580D01*
X1270000Y-46774149D01*
X1142383Y-46761580D01*
X1051597Y-46734040D01*
X1019665Y-46724354D01*
X906576Y-46663906D01*
X807447Y-46582554D01*
X726095Y-46483425D01*
X665647Y-46370336D01*
X661282Y-46355946D01*
X628420Y-46247618D01*
X619000Y-46151973D01*
X619000Y-45288028D01*
X628420Y-45192383D01*
X665645Y-45069669D01*
X665646Y-45069665D01*
X726094Y-44956576D01*
X807447Y-44857446D01*
X906575Y-44776094D01*
X1019664Y-44715646D01*
X1051596Y-44705960D01*
X1142382Y-44678420D01*
X1270000Y-44665851D01*
X1397617Y-44678420D01*
G37*
G36*
X6477617Y-44678420D02*
G01*
X6568403Y-44705960D01*
X6600335Y-44715646D01*
X6713424Y-44776094D01*
X6812554Y-44857447D01*
X6893906Y-44956575D01*
X6954354Y-45069664D01*
X6964040Y-45101596D01*
X6991580Y-45192382D01*
X7001000Y-45288027D01*
X7001000Y-46151973D01*
X6991580Y-46247618D01*
X6964040Y-46338404D01*
X6954354Y-46370336D01*
X6893906Y-46483425D01*
X6812554Y-46582554D01*
X6713425Y-46663906D01*
X6600336Y-46724354D01*
X6568404Y-46734040D01*
X6477618Y-46761580D01*
X6350000Y-46774149D01*
X6222383Y-46761580D01*
X6131597Y-46734040D01*
X6099665Y-46724354D01*
X5986576Y-46663906D01*
X5887447Y-46582554D01*
X5806095Y-46483425D01*
X5745647Y-46370336D01*
X5741282Y-46355946D01*
X5708420Y-46247618D01*
X5699000Y-46151973D01*
X5699000Y-45288028D01*
X5708420Y-45192383D01*
X5745645Y-45069669D01*
X5745646Y-45069665D01*
X5806094Y-44956576D01*
X5887447Y-44857446D01*
X5986575Y-44776094D01*
X6099664Y-44715646D01*
X6131596Y-44705960D01*
X6222382Y-44678420D01*
X6350000Y-44665851D01*
X6477617Y-44678420D01*
G37*
G36*
X14097617Y-44678420D02*
G01*
X14188403Y-44705960D01*
X14220335Y-44715646D01*
X14333424Y-44776094D01*
X14432554Y-44857447D01*
X14513906Y-44956575D01*
X14574354Y-45069664D01*
X14584040Y-45101596D01*
X14611580Y-45192382D01*
X14621000Y-45288027D01*
X14621000Y-46151973D01*
X14611580Y-46247618D01*
X14584040Y-46338404D01*
X14574354Y-46370336D01*
X14513906Y-46483425D01*
X14432554Y-46582554D01*
X14333425Y-46663906D01*
X14220336Y-46724354D01*
X14188404Y-46734040D01*
X14097618Y-46761580D01*
X13970000Y-46774149D01*
X13842383Y-46761580D01*
X13751597Y-46734040D01*
X13719665Y-46724354D01*
X13606576Y-46663906D01*
X13507447Y-46582554D01*
X13426095Y-46483425D01*
X13365647Y-46370336D01*
X13361282Y-46355946D01*
X13328420Y-46247618D01*
X13319000Y-46151973D01*
X13319000Y-45288028D01*
X13328420Y-45192383D01*
X13365645Y-45069669D01*
X13365646Y-45069665D01*
X13426094Y-44956576D01*
X13507447Y-44857446D01*
X13606575Y-44776094D01*
X13719664Y-44715646D01*
X13751596Y-44705960D01*
X13842382Y-44678420D01*
X13970000Y-44665851D01*
X14097617Y-44678420D01*
G37*
G36*
X3937617Y-44678420D02*
G01*
X4028403Y-44705960D01*
X4060335Y-44715646D01*
X4173424Y-44776094D01*
X4272554Y-44857447D01*
X4353906Y-44956575D01*
X4414354Y-45069664D01*
X4424040Y-45101596D01*
X4451580Y-45192382D01*
X4461000Y-45288027D01*
X4461000Y-46151973D01*
X4451580Y-46247618D01*
X4424040Y-46338404D01*
X4414354Y-46370336D01*
X4353906Y-46483425D01*
X4272554Y-46582554D01*
X4173425Y-46663906D01*
X4060336Y-46724354D01*
X4028404Y-46734040D01*
X3937618Y-46761580D01*
X3810000Y-46774149D01*
X3682383Y-46761580D01*
X3591597Y-46734040D01*
X3559665Y-46724354D01*
X3446576Y-46663906D01*
X3347447Y-46582554D01*
X3266095Y-46483425D01*
X3205647Y-46370336D01*
X3201282Y-46355946D01*
X3168420Y-46247618D01*
X3159000Y-46151973D01*
X3159000Y-45288028D01*
X3168420Y-45192383D01*
X3205645Y-45069669D01*
X3205646Y-45069665D01*
X3266094Y-44956576D01*
X3347447Y-44857446D01*
X3446575Y-44776094D01*
X3559664Y-44715646D01*
X3591596Y-44705960D01*
X3682382Y-44678420D01*
X3810000Y-44665851D01*
X3937617Y-44678420D01*
G37*
G36*
X-3682383Y-44678420D02*
G01*
X-3591597Y-44705960D01*
X-3559665Y-44715646D01*
X-3446576Y-44776094D01*
X-3347446Y-44857447D01*
X-3266094Y-44956575D01*
X-3205646Y-45069664D01*
X-3195960Y-45101596D01*
X-3168420Y-45192382D01*
X-3159000Y-45288027D01*
X-3159000Y-46151973D01*
X-3168420Y-46247618D01*
X-3195960Y-46338404D01*
X-3205646Y-46370336D01*
X-3266094Y-46483425D01*
X-3347446Y-46582554D01*
X-3446575Y-46663906D01*
X-3559664Y-46724354D01*
X-3591596Y-46734040D01*
X-3682382Y-46761580D01*
X-3810000Y-46774149D01*
X-3937617Y-46761580D01*
X-4028403Y-46734040D01*
X-4060335Y-46724354D01*
X-4173424Y-46663906D01*
X-4272553Y-46582554D01*
X-4353905Y-46483425D01*
X-4414353Y-46370336D01*
X-4418718Y-46355946D01*
X-4451580Y-46247618D01*
X-4461000Y-46151973D01*
X-4461000Y-45288028D01*
X-4451580Y-45192383D01*
X-4414355Y-45069669D01*
X-4414354Y-45069665D01*
X-4353906Y-44956576D01*
X-4272553Y-44857446D01*
X-4173425Y-44776094D01*
X-4060336Y-44715646D01*
X-4028404Y-44705960D01*
X-3937618Y-44678420D01*
X-3810000Y-44665851D01*
X-3682383Y-44678420D01*
G37*
G36*
X-37001772Y-38901703D02*
G01*
X-36846900Y-38965853D01*
X-36707519Y-39058985D01*
X-36588985Y-39177519D01*
X-36495853Y-39316900D01*
X-36431703Y-39471772D01*
X-36399000Y-39636184D01*
X-36399000Y-39803816D01*
X-36431703Y-39968228D01*
X-36495853Y-40123100D01*
X-36588985Y-40262481D01*
X-36707519Y-40381015D01*
X-36846900Y-40474147D01*
X-37001772Y-40538297D01*
X-37166184Y-40571000D01*
X-37333816Y-40571000D01*
X-37498228Y-40538297D01*
X-37653100Y-40474147D01*
X-37792481Y-40381015D01*
X-37911015Y-40262481D01*
X-38004147Y-40123100D01*
X-38068297Y-39968228D01*
X-38101000Y-39803816D01*
X-38101000Y-39636184D01*
X-38068297Y-39471772D01*
X-38004147Y-39316900D01*
X-37911015Y-39177519D01*
X-37792481Y-39058985D01*
X-37653100Y-38965853D01*
X-37498228Y-38901703D01*
X-37333816Y-38869000D01*
X-37166184Y-38869000D01*
X-37001772Y-38901703D01*
G37*
G36*
X-26001772Y-38901703D02*
G01*
X-25846900Y-38965853D01*
X-25707519Y-39058985D01*
X-25588985Y-39177519D01*
X-25495853Y-39316900D01*
X-25431703Y-39471772D01*
X-25399000Y-39636184D01*
X-25399000Y-39803816D01*
X-25431703Y-39968228D01*
X-25495853Y-40123100D01*
X-25588985Y-40262481D01*
X-25707519Y-40381015D01*
X-25846900Y-40474147D01*
X-26001772Y-40538297D01*
X-26166184Y-40571000D01*
X-26333816Y-40571000D01*
X-26498228Y-40538297D01*
X-26653100Y-40474147D01*
X-26792481Y-40381015D01*
X-26911015Y-40262481D01*
X-27004147Y-40123100D01*
X-27068297Y-39968228D01*
X-27101000Y-39803816D01*
X-27101000Y-39636184D01*
X-27068297Y-39471772D01*
X-27004147Y-39316900D01*
X-26911015Y-39177519D01*
X-26792481Y-39058985D01*
X-26653100Y-38965853D01*
X-26498228Y-38901703D01*
X-26333816Y-38869000D01*
X-26166184Y-38869000D01*
X-26001772Y-38901703D01*
G37*
G36*
X3429434Y-10053686D02*
G01*
X3469284Y-10065774D01*
X3505999Y-10085399D01*
X3538186Y-10111814D01*
X3564601Y-10144001D01*
X3584226Y-10180716D01*
X3596314Y-10220566D01*
X3601000Y-10268141D01*
X3601000Y-10931859D01*
X3596314Y-10979434D01*
X3584226Y-11019284D01*
X3564601Y-11055999D01*
X3538186Y-11088186D01*
X3505999Y-11114601D01*
X3469284Y-11134226D01*
X3429434Y-11146314D01*
X3381859Y-11151000D01*
X2018141Y-11151000D01*
X1970566Y-11146314D01*
X1930716Y-11134226D01*
X1894001Y-11114601D01*
X1861814Y-11088186D01*
X1835399Y-11055999D01*
X1815774Y-11019284D01*
X1803686Y-10979434D01*
X1799000Y-10931859D01*
X1799000Y-10268141D01*
X1803686Y-10220566D01*
X1815774Y-10180716D01*
X1835399Y-10144001D01*
X1861814Y-10111814D01*
X1894001Y-10085399D01*
X1930716Y-10065774D01*
X1970566Y-10053686D01*
X2018141Y-10049000D01*
X3381859Y-10049000D01*
X3429434Y-10053686D01*
G37*
G36*
X-1970566Y-10053686D02*
G01*
X-1930716Y-10065774D01*
X-1894001Y-10085399D01*
X-1861814Y-10111814D01*
X-1835399Y-10144001D01*
X-1815774Y-10180716D01*
X-1803686Y-10220566D01*
X-1799000Y-10268141D01*
X-1799000Y-10931859D01*
X-1803686Y-10979434D01*
X-1815774Y-11019284D01*
X-1835399Y-11055999D01*
X-1861814Y-11088186D01*
X-1894001Y-11114601D01*
X-1930716Y-11134226D01*
X-1970566Y-11146314D01*
X-2018141Y-11151000D01*
X-3381859Y-11151000D01*
X-3429434Y-11146314D01*
X-3469284Y-11134226D01*
X-3505999Y-11114601D01*
X-3538186Y-11088186D01*
X-3564601Y-11055999D01*
X-3584226Y-11019284D01*
X-3596314Y-10979434D01*
X-3601000Y-10931859D01*
X-3601000Y-10268141D01*
X-3596314Y-10220566D01*
X-3584226Y-10180716D01*
X-3564601Y-10144001D01*
X-3538186Y-10111814D01*
X-3505999Y-10085399D01*
X-3469284Y-10065774D01*
X-3429434Y-10053686D01*
X-3381859Y-10049000D01*
X-2018141Y-10049000D01*
X-1970566Y-10053686D01*
G37*
G36*
X30375256Y-7641298D02*
G01*
X30481579Y-7662447D01*
X30642848Y-7729247D01*
X30764011Y-7779434D01*
X30782042Y-7786903D01*
X31052451Y-7967585D01*
X31282415Y-8197549D01*
X31463097Y-8467958D01*
X31587553Y-8768421D01*
X31651000Y-9087391D01*
X31651000Y-9412609D01*
X31587553Y-9731579D01*
X31463097Y-10032042D01*
X31282415Y-10302451D01*
X31052451Y-10532415D01*
X30782042Y-10713097D01*
X30481579Y-10837553D01*
X30375256Y-10858702D01*
X30162611Y-10901000D01*
X29837389Y-10901000D01*
X29624744Y-10858702D01*
X29518421Y-10837553D01*
X29217958Y-10713097D01*
X28947549Y-10532415D01*
X28717585Y-10302451D01*
X28536903Y-10032042D01*
X28412447Y-9731579D01*
X28349000Y-9412609D01*
X28349000Y-9087391D01*
X28412447Y-8768421D01*
X28536903Y-8467958D01*
X28717585Y-8197549D01*
X28947549Y-7967585D01*
X29217958Y-7786903D01*
X29235990Y-7779434D01*
X29357152Y-7729247D01*
X29518421Y-7662447D01*
X29624744Y-7641298D01*
X29837389Y-7599000D01*
X30162611Y-7599000D01*
X30375256Y-7641298D01*
G37*
G36*
X-29624744Y-7641298D02*
G01*
X-29518421Y-7662447D01*
X-29357152Y-7729247D01*
X-29235989Y-7779434D01*
X-29217958Y-7786903D01*
X-28947549Y-7967585D01*
X-28717585Y-8197549D01*
X-28536903Y-8467958D01*
X-28412447Y-8768421D01*
X-28349000Y-9087391D01*
X-28349000Y-9412609D01*
X-28412447Y-9731579D01*
X-28536903Y-10032042D01*
X-28717585Y-10302451D01*
X-28947549Y-10532415D01*
X-29217958Y-10713097D01*
X-29518421Y-10837553D01*
X-29624744Y-10858702D01*
X-29837389Y-10901000D01*
X-30162611Y-10901000D01*
X-30375256Y-10858702D01*
X-30481579Y-10837553D01*
X-30782042Y-10713097D01*
X-31052451Y-10532415D01*
X-31282415Y-10302451D01*
X-31463097Y-10032042D01*
X-31587553Y-9731579D01*
X-31651000Y-9412609D01*
X-31651000Y-9087391D01*
X-31587553Y-8768421D01*
X-31463097Y-8467958D01*
X-31282415Y-8197549D01*
X-31052451Y-7967585D01*
X-30782042Y-7786903D01*
X-30764010Y-7779434D01*
X-30642848Y-7729247D01*
X-30481579Y-7662447D01*
X-30375256Y-7641298D01*
X-30162611Y-7599000D01*
X-29837389Y-7599000D01*
X-29624744Y-7641298D01*
G37*
G36*
X-1970566Y-6853686D02*
G01*
X-1930716Y-6865774D01*
X-1894001Y-6885399D01*
X-1861814Y-6911814D01*
X-1835399Y-6944001D01*
X-1815774Y-6980716D01*
X-1803686Y-7020566D01*
X-1799000Y-7068141D01*
X-1799000Y-7731859D01*
X-1803686Y-7779434D01*
X-1815774Y-7819284D01*
X-1835399Y-7855999D01*
X-1861814Y-7888186D01*
X-1894001Y-7914601D01*
X-1930716Y-7934226D01*
X-1970566Y-7946314D01*
X-2018141Y-7951000D01*
X-3381859Y-7951000D01*
X-3429434Y-7946314D01*
X-3469284Y-7934226D01*
X-3505999Y-7914601D01*
X-3538186Y-7888186D01*
X-3564601Y-7855999D01*
X-3584226Y-7819284D01*
X-3596314Y-7779434D01*
X-3601000Y-7731859D01*
X-3601000Y-7068141D01*
X-3596314Y-7020566D01*
X-3584226Y-6980716D01*
X-3564601Y-6944001D01*
X-3538186Y-6911814D01*
X-3505999Y-6885399D01*
X-3469284Y-6865774D01*
X-3429434Y-6853686D01*
X-3381859Y-6849000D01*
X-2018141Y-6849000D01*
X-1970566Y-6853686D01*
G37*
G36*
X3429434Y-6853686D02*
G01*
X3469284Y-6865774D01*
X3505999Y-6885399D01*
X3538186Y-6911814D01*
X3564601Y-6944001D01*
X3584226Y-6980716D01*
X3596314Y-7020566D01*
X3601000Y-7068141D01*
X3601000Y-7731859D01*
X3596314Y-7779434D01*
X3584226Y-7819284D01*
X3564601Y-7855999D01*
X3538186Y-7888186D01*
X3505999Y-7914601D01*
X3469284Y-7934226D01*
X3429434Y-7946314D01*
X3381859Y-7951000D01*
X2018141Y-7951000D01*
X1970566Y-7946314D01*
X1930716Y-7934226D01*
X1894001Y-7914601D01*
X1861814Y-7888186D01*
X1835399Y-7855999D01*
X1815774Y-7819284D01*
X1803686Y-7779434D01*
X1799000Y-7731859D01*
X1799000Y-7068141D01*
X1803686Y-7020566D01*
X1815774Y-6980716D01*
X1835399Y-6944001D01*
X1861814Y-6911814D01*
X1894001Y-6885399D01*
X1930716Y-6865774D01*
X1970566Y-6853686D01*
X2018141Y-6849000D01*
X3381859Y-6849000D01*
X3429434Y-6853686D01*
G37*
G36*
X17981552Y-266331D02*
G01*
X18063627Y-300328D01*
X18063629Y-300329D01*
X18100813Y-325175D01*
X18137495Y-349685D01*
X18200315Y-412505D01*
X18249672Y-486373D01*
X18283669Y-568448D01*
X18301000Y-655579D01*
X18301000Y-744421D01*
X18283669Y-831552D01*
X18249672Y-913627D01*
X18249671Y-913629D01*
X18200314Y-987496D01*
X18137496Y-1050314D01*
X18063629Y-1099671D01*
X18063628Y-1099672D01*
X18063627Y-1099672D01*
X17981552Y-1133669D01*
X17894421Y-1151000D01*
X17805579Y-1151000D01*
X17718448Y-1133669D01*
X17636373Y-1099672D01*
X17636372Y-1099672D01*
X17636371Y-1099671D01*
X17562504Y-1050314D01*
X17499686Y-987496D01*
X17450329Y-913629D01*
X17450328Y-913627D01*
X17416331Y-831552D01*
X17399000Y-744421D01*
X17399000Y-655579D01*
X17416331Y-568448D01*
X17450328Y-486373D01*
X17499685Y-412505D01*
X17562505Y-349685D01*
X17599187Y-325175D01*
X17636371Y-300329D01*
X17636373Y-300328D01*
X17718448Y-266331D01*
X17805579Y-249000D01*
X17894421Y-249000D01*
X17981552Y-266331D01*
G37*
G36*
X-17718448Y-266331D02*
G01*
X-17636373Y-300328D01*
X-17636371Y-300329D01*
X-17599187Y-325175D01*
X-17562505Y-349685D01*
X-17499685Y-412505D01*
X-17450328Y-486373D01*
X-17416331Y-568448D01*
X-17399000Y-655579D01*
X-17399000Y-744421D01*
X-17416331Y-831552D01*
X-17450328Y-913627D01*
X-17450329Y-913629D01*
X-17499686Y-987496D01*
X-17562504Y-1050314D01*
X-17636371Y-1099671D01*
X-17636372Y-1099672D01*
X-17636373Y-1099672D01*
X-17718448Y-1133669D01*
X-17805579Y-1151000D01*
X-17894421Y-1151000D01*
X-17981552Y-1133669D01*
X-18063627Y-1099672D01*
X-18063628Y-1099672D01*
X-18063629Y-1099671D01*
X-18137496Y-1050314D01*
X-18200314Y-987496D01*
X-18249671Y-913629D01*
X-18249672Y-913627D01*
X-18283669Y-831552D01*
X-18301000Y-744421D01*
X-18301000Y-655579D01*
X-18283669Y-568448D01*
X-18249672Y-486373D01*
X-18200315Y-412505D01*
X-18137495Y-349685D01*
X-18100813Y-325175D01*
X-18063629Y-300329D01*
X-18063627Y-300328D01*
X-17981552Y-266331D01*
X-17894421Y-249000D01*
X-17805579Y-249000D01*
X-17718448Y-266331D01*
G37*
G36*
X-18918448Y-266331D02*
G01*
X-18836373Y-300328D01*
X-18836371Y-300329D01*
X-18799187Y-325175D01*
X-18762505Y-349685D01*
X-18699685Y-412505D01*
X-18650328Y-486373D01*
X-18616331Y-568448D01*
X-18599000Y-655579D01*
X-18599000Y-744421D01*
X-18616331Y-831552D01*
X-18650328Y-913627D01*
X-18650329Y-913629D01*
X-18699686Y-987496D01*
X-18762504Y-1050314D01*
X-18836371Y-1099671D01*
X-18836372Y-1099672D01*
X-18836373Y-1099672D01*
X-18918448Y-1133669D01*
X-19005579Y-1151000D01*
X-19094421Y-1151000D01*
X-19181552Y-1133669D01*
X-19263627Y-1099672D01*
X-19263628Y-1099672D01*
X-19263629Y-1099671D01*
X-19337496Y-1050314D01*
X-19400314Y-987496D01*
X-19449671Y-913629D01*
X-19449672Y-913627D01*
X-19483669Y-831552D01*
X-19501000Y-744421D01*
X-19501000Y-655579D01*
X-19483669Y-568448D01*
X-19449672Y-486373D01*
X-19400315Y-412505D01*
X-19337495Y-349685D01*
X-19300813Y-325175D01*
X-19263629Y-300329D01*
X-19263627Y-300328D01*
X-19181552Y-266331D01*
X-19094421Y-249000D01*
X-19005579Y-249000D01*
X-18918448Y-266331D01*
G37*
G36*
X19181552Y-266331D02*
G01*
X19263627Y-300328D01*
X19263629Y-300329D01*
X19300813Y-325175D01*
X19337495Y-349685D01*
X19400315Y-412505D01*
X19449672Y-486373D01*
X19483669Y-568448D01*
X19501000Y-655579D01*
X19501000Y-744421D01*
X19483669Y-831552D01*
X19449672Y-913627D01*
X19449671Y-913629D01*
X19400314Y-987496D01*
X19337496Y-1050314D01*
X19263629Y-1099671D01*
X19263628Y-1099672D01*
X19263627Y-1099672D01*
X19181552Y-1133669D01*
X19094421Y-1151000D01*
X19005579Y-1151000D01*
X18918448Y-1133669D01*
X18836373Y-1099672D01*
X18836372Y-1099672D01*
X18836371Y-1099671D01*
X18762504Y-1050314D01*
X18699686Y-987496D01*
X18650329Y-913629D01*
X18650328Y-913627D01*
X18616331Y-831552D01*
X18599000Y-744421D01*
X18599000Y-655579D01*
X18616331Y-568448D01*
X18650328Y-486373D01*
X18699685Y-412505D01*
X18762505Y-349685D01*
X18799187Y-325175D01*
X18836371Y-300329D01*
X18836373Y-300328D01*
X18918448Y-266331D01*
X19005579Y-249000D01*
X19094421Y-249000D01*
X19181552Y-266331D01*
G37*
G36*
X20381552Y-266331D02*
G01*
X20463627Y-300328D01*
X20463629Y-300329D01*
X20500813Y-325175D01*
X20537495Y-349685D01*
X20600315Y-412505D01*
X20649672Y-486373D01*
X20683669Y-568448D01*
X20701000Y-655579D01*
X20701000Y-744421D01*
X20683669Y-831552D01*
X20649672Y-913627D01*
X20649671Y-913629D01*
X20600314Y-987496D01*
X20537496Y-1050314D01*
X20463629Y-1099671D01*
X20463628Y-1099672D01*
X20463627Y-1099672D01*
X20381552Y-1133669D01*
X20294421Y-1151000D01*
X20205579Y-1151000D01*
X20118448Y-1133669D01*
X20036373Y-1099672D01*
X20036372Y-1099672D01*
X20036371Y-1099671D01*
X19962504Y-1050314D01*
X19899686Y-987496D01*
X19850329Y-913629D01*
X19850328Y-913627D01*
X19816331Y-831552D01*
X19799000Y-744421D01*
X19799000Y-655579D01*
X19816331Y-568448D01*
X19850328Y-486373D01*
X19899685Y-412505D01*
X19962505Y-349685D01*
X19999187Y-325175D01*
X20036371Y-300329D01*
X20036373Y-300328D01*
X20118448Y-266331D01*
X20205579Y-249000D01*
X20294421Y-249000D01*
X20381552Y-266331D01*
G37*
G36*
X-20118448Y-266331D02*
G01*
X-20036373Y-300328D01*
X-20036371Y-300329D01*
X-19999187Y-325175D01*
X-19962505Y-349685D01*
X-19899685Y-412505D01*
X-19850328Y-486373D01*
X-19816331Y-568448D01*
X-19799000Y-655579D01*
X-19799000Y-744421D01*
X-19816331Y-831552D01*
X-19850328Y-913627D01*
X-19850329Y-913629D01*
X-19899686Y-987496D01*
X-19962504Y-1050314D01*
X-20036371Y-1099671D01*
X-20036372Y-1099672D01*
X-20036373Y-1099672D01*
X-20118448Y-1133669D01*
X-20205579Y-1151000D01*
X-20294421Y-1151000D01*
X-20381552Y-1133669D01*
X-20463627Y-1099672D01*
X-20463628Y-1099672D01*
X-20463629Y-1099671D01*
X-20537496Y-1050314D01*
X-20600314Y-987496D01*
X-20649671Y-913629D01*
X-20649672Y-913627D01*
X-20683669Y-831552D01*
X-20701000Y-744421D01*
X-20701000Y-655579D01*
X-20683669Y-568448D01*
X-20649672Y-486373D01*
X-20600315Y-412505D01*
X-20537495Y-349685D01*
X-20500813Y-325175D01*
X-20463629Y-300329D01*
X-20463627Y-300328D01*
X-20381552Y-266331D01*
X-20294421Y-249000D01*
X-20205579Y-249000D01*
X-20118448Y-266331D01*
G37*
G36*
X-20118448Y1133669D02*
G01*
X-20036373Y1099672D01*
X-20036371Y1099671D01*
X-19999187Y1074825D01*
X-19962505Y1050315D01*
X-19899685Y987495D01*
X-19850328Y913627D01*
X-19816331Y831552D01*
X-19799000Y744421D01*
X-19799000Y655579D01*
X-19816331Y568448D01*
X-19850328Y486373D01*
X-19850329Y486371D01*
X-19899686Y412504D01*
X-19962504Y349686D01*
X-20036371Y300329D01*
X-20036372Y300328D01*
X-20036373Y300328D01*
X-20118448Y266331D01*
X-20205579Y249000D01*
X-20294421Y249000D01*
X-20381552Y266331D01*
X-20463627Y300328D01*
X-20463628Y300328D01*
X-20463629Y300329D01*
X-20537496Y349686D01*
X-20600314Y412504D01*
X-20649671Y486371D01*
X-20649672Y486373D01*
X-20683669Y568448D01*
X-20701000Y655579D01*
X-20701000Y744421D01*
X-20683669Y831552D01*
X-20649672Y913627D01*
X-20600315Y987495D01*
X-20537495Y1050315D01*
X-20500813Y1074825D01*
X-20463629Y1099671D01*
X-20463627Y1099672D01*
X-20381552Y1133669D01*
X-20294421Y1151000D01*
X-20205579Y1151000D01*
X-20118448Y1133669D01*
G37*
G36*
X-18918448Y1133669D02*
G01*
X-18836373Y1099672D01*
X-18836371Y1099671D01*
X-18799187Y1074825D01*
X-18762505Y1050315D01*
X-18699685Y987495D01*
X-18650328Y913627D01*
X-18616331Y831552D01*
X-18599000Y744421D01*
X-18599000Y655579D01*
X-18616331Y568448D01*
X-18650328Y486373D01*
X-18650329Y486371D01*
X-18699686Y412504D01*
X-18762504Y349686D01*
X-18836371Y300329D01*
X-18836372Y300328D01*
X-18836373Y300328D01*
X-18918448Y266331D01*
X-19005579Y249000D01*
X-19094421Y249000D01*
X-19181552Y266331D01*
X-19263627Y300328D01*
X-19263628Y300328D01*
X-19263629Y300329D01*
X-19337496Y349686D01*
X-19400314Y412504D01*
X-19449671Y486371D01*
X-19449672Y486373D01*
X-19483669Y568448D01*
X-19501000Y655579D01*
X-19501000Y744421D01*
X-19483669Y831552D01*
X-19449672Y913627D01*
X-19400315Y987495D01*
X-19337495Y1050315D01*
X-19300813Y1074825D01*
X-19263629Y1099671D01*
X-19263627Y1099672D01*
X-19181552Y1133669D01*
X-19094421Y1151000D01*
X-19005579Y1151000D01*
X-18918448Y1133669D01*
G37*
G36*
X-17718448Y1133669D02*
G01*
X-17636373Y1099672D01*
X-17636371Y1099671D01*
X-17599187Y1074825D01*
X-17562505Y1050315D01*
X-17499685Y987495D01*
X-17450328Y913627D01*
X-17416331Y831552D01*
X-17399000Y744421D01*
X-17399000Y655579D01*
X-17416331Y568448D01*
X-17450328Y486373D01*
X-17450329Y486371D01*
X-17499686Y412504D01*
X-17562504Y349686D01*
X-17636371Y300329D01*
X-17636372Y300328D01*
X-17636373Y300328D01*
X-17718448Y266331D01*
X-17805579Y249000D01*
X-17894421Y249000D01*
X-17981552Y266331D01*
X-18063627Y300328D01*
X-18063628Y300328D01*
X-18063629Y300329D01*
X-18137496Y349686D01*
X-18200314Y412504D01*
X-18249671Y486371D01*
X-18249672Y486373D01*
X-18283669Y568448D01*
X-18301000Y655579D01*
X-18301000Y744421D01*
X-18283669Y831552D01*
X-18249672Y913627D01*
X-18200315Y987495D01*
X-18137495Y1050315D01*
X-18100813Y1074825D01*
X-18063629Y1099671D01*
X-18063627Y1099672D01*
X-17981552Y1133669D01*
X-17894421Y1151000D01*
X-17805579Y1151000D01*
X-17718448Y1133669D01*
G37*
G36*
X19181552Y1133669D02*
G01*
X19263627Y1099672D01*
X19263629Y1099671D01*
X19300813Y1074825D01*
X19337495Y1050315D01*
X19400315Y987495D01*
X19449672Y913627D01*
X19483669Y831552D01*
X19501000Y744421D01*
X19501000Y655579D01*
X19483669Y568448D01*
X19449672Y486373D01*
X19449671Y486371D01*
X19400314Y412504D01*
X19337496Y349686D01*
X19263629Y300329D01*
X19263628Y300328D01*
X19263627Y300328D01*
X19181552Y266331D01*
X19094421Y249000D01*
X19005579Y249000D01*
X18918448Y266331D01*
X18836373Y300328D01*
X18836372Y300328D01*
X18836371Y300329D01*
X18762504Y349686D01*
X18699686Y412504D01*
X18650329Y486371D01*
X18650328Y486373D01*
X18616331Y568448D01*
X18599000Y655579D01*
X18599000Y744421D01*
X18616331Y831552D01*
X18650328Y913627D01*
X18699685Y987495D01*
X18762505Y1050315D01*
X18799187Y1074825D01*
X18836371Y1099671D01*
X18836373Y1099672D01*
X18918448Y1133669D01*
X19005579Y1151000D01*
X19094421Y1151000D01*
X19181552Y1133669D01*
G37*
G36*
X20381552Y1133669D02*
G01*
X20463627Y1099672D01*
X20463629Y1099671D01*
X20500813Y1074825D01*
X20537495Y1050315D01*
X20600315Y987495D01*
X20649672Y913627D01*
X20683669Y831552D01*
X20701000Y744421D01*
X20701000Y655579D01*
X20683669Y568448D01*
X20649672Y486373D01*
X20649671Y486371D01*
X20600314Y412504D01*
X20537496Y349686D01*
X20463629Y300329D01*
X20463628Y300328D01*
X20463627Y300328D01*
X20381552Y266331D01*
X20294421Y249000D01*
X20205579Y249000D01*
X20118448Y266331D01*
X20036373Y300328D01*
X20036372Y300328D01*
X20036371Y300329D01*
X19962504Y349686D01*
X19899686Y412504D01*
X19850329Y486371D01*
X19850328Y486373D01*
X19816331Y568448D01*
X19799000Y655579D01*
X19799000Y744421D01*
X19816331Y831552D01*
X19850328Y913627D01*
X19899685Y987495D01*
X19962505Y1050315D01*
X19999187Y1074825D01*
X20036371Y1099671D01*
X20036373Y1099672D01*
X20118448Y1133669D01*
X20205579Y1151000D01*
X20294421Y1151000D01*
X20381552Y1133669D01*
G37*
G36*
X17981552Y1133669D02*
G01*
X18063627Y1099672D01*
X18063629Y1099671D01*
X18100813Y1074825D01*
X18137495Y1050315D01*
X18200315Y987495D01*
X18249672Y913627D01*
X18283669Y831552D01*
X18301000Y744421D01*
X18301000Y655579D01*
X18283669Y568448D01*
X18249672Y486373D01*
X18249671Y486371D01*
X18200314Y412504D01*
X18137496Y349686D01*
X18063629Y300329D01*
X18063628Y300328D01*
X18063627Y300328D01*
X17981552Y266331D01*
X17894421Y249000D01*
X17805579Y249000D01*
X17718448Y266331D01*
X17636373Y300328D01*
X17636372Y300328D01*
X17636371Y300329D01*
X17562504Y349686D01*
X17499686Y412504D01*
X17450329Y486371D01*
X17450328Y486373D01*
X17416331Y568448D01*
X17399000Y655579D01*
X17399000Y744421D01*
X17416331Y831552D01*
X17450328Y913627D01*
X17499685Y987495D01*
X17562505Y1050315D01*
X17599187Y1074825D01*
X17636371Y1099671D01*
X17636373Y1099672D01*
X17718448Y1133669D01*
X17805579Y1151000D01*
X17894421Y1151000D01*
X17981552Y1133669D01*
G37*
G36*
X-21352858Y9671758D02*
G01*
X-21204899Y9610471D01*
X-21071745Y9521501D01*
X-20958499Y9408255D01*
X-20869529Y9275101D01*
X-20808242Y9127142D01*
X-20777000Y8970075D01*
X-20777000Y8809925D01*
X-20808242Y8652858D01*
X-20870313Y8503006D01*
X-20877426Y8479557D01*
X-20879828Y8455171D01*
X-20877426Y8430785D01*
X-20870313Y8407336D01*
X-20858762Y8385726D01*
X-20843217Y8366784D01*
X-20824275Y8351238D01*
X-20802664Y8339687D01*
X-20779215Y8332574D01*
X-20754829Y8330172D01*
X-20730443Y8332574D01*
X-20706994Y8339687D01*
X-20557142Y8401758D01*
X-20400075Y8433000D01*
X-20239925Y8433000D01*
X-20082858Y8401758D01*
X-19933006Y8339687D01*
X-19909557Y8332574D01*
X-19885171Y8330172D01*
X-19860785Y8332574D01*
X-19837336Y8339687D01*
X-19815726Y8351238D01*
X-19796784Y8366783D01*
X-19781238Y8385725D01*
X-19769687Y8407336D01*
X-19762574Y8430785D01*
X-19760172Y8455171D01*
X-19762574Y8479557D01*
X-19769687Y8503006D01*
X-19831758Y8652858D01*
X-19863000Y8809925D01*
X-19863000Y8970075D01*
X-19831758Y9127142D01*
X-19770471Y9275101D01*
X-19681501Y9408255D01*
X-19568255Y9521501D01*
X-19435101Y9610471D01*
X-19287142Y9671758D01*
X-19130075Y9703000D01*
X-18969925Y9703000D01*
X-18812858Y9671758D01*
X-18664899Y9610471D01*
X-18531745Y9521501D01*
X-18418499Y9408255D01*
X-18329529Y9275101D01*
X-18268242Y9127142D01*
X-18237000Y8970075D01*
X-18237000Y8809925D01*
X-18268242Y8652858D01*
X-18330313Y8503006D01*
X-18337426Y8479557D01*
X-18339828Y8455171D01*
X-18337426Y8430785D01*
X-18330313Y8407336D01*
X-18318762Y8385726D01*
X-18303217Y8366784D01*
X-18284275Y8351238D01*
X-18262664Y8339687D01*
X-18239215Y8332574D01*
X-18214829Y8330172D01*
X-18190443Y8332574D01*
X-18166994Y8339687D01*
X-18017142Y8401758D01*
X-17860075Y8433000D01*
X-17699925Y8433000D01*
X-17542858Y8401758D01*
X-17393006Y8339687D01*
X-17369557Y8332574D01*
X-17345171Y8330172D01*
X-17320785Y8332574D01*
X-17297336Y8339687D01*
X-17275726Y8351238D01*
X-17256784Y8366783D01*
X-17241238Y8385725D01*
X-17229687Y8407336D01*
X-17222574Y8430785D01*
X-17220172Y8455171D01*
X-17222574Y8479557D01*
X-17229687Y8503006D01*
X-17291758Y8652858D01*
X-17323000Y8809925D01*
X-17323000Y8970075D01*
X-17291758Y9127142D01*
X-17230471Y9275101D01*
X-17141501Y9408255D01*
X-17028255Y9521501D01*
X-16895101Y9610471D01*
X-16747142Y9671758D01*
X-16590075Y9703000D01*
X-16429925Y9703000D01*
X-16272858Y9671758D01*
X-16124899Y9610471D01*
X-15991745Y9521501D01*
X-15878499Y9408255D01*
X-15789529Y9275101D01*
X-15728242Y9127142D01*
X-15697000Y8970075D01*
X-15697000Y8809925D01*
X-15728242Y8652858D01*
X-15790313Y8503006D01*
X-15797426Y8479557D01*
X-15799828Y8455171D01*
X-15797426Y8430785D01*
X-15790313Y8407336D01*
X-15778762Y8385726D01*
X-15763217Y8366784D01*
X-15744275Y8351238D01*
X-15722664Y8339687D01*
X-15699215Y8332574D01*
X-15674829Y8330172D01*
X-15650443Y8332574D01*
X-15626994Y8339687D01*
X-15477142Y8401758D01*
X-15320075Y8433000D01*
X-15159925Y8433000D01*
X-15002858Y8401758D01*
X-14854899Y8340471D01*
X-14721745Y8251501D01*
X-14608499Y8138255D01*
X-14519529Y8005101D01*
X-14458242Y7857142D01*
X-14427000Y7700075D01*
X-14427000Y7539925D01*
X-14458242Y7382858D01*
X-14519529Y7234899D01*
X-14608499Y7101745D01*
X-14721745Y6988499D01*
X-14854899Y6899529D01*
X-15002858Y6838242D01*
X-15159925Y6807000D01*
X-15320075Y6807000D01*
X-15477142Y6838242D01*
X-15625101Y6899529D01*
X-15758255Y6988499D01*
X-15871501Y7101745D01*
X-15960471Y7234899D01*
X-16021758Y7382858D01*
X-16053000Y7539925D01*
X-16053000Y7700075D01*
X-16021758Y7857142D01*
X-15959687Y8006994D01*
X-15952574Y8030443D01*
X-15950172Y8054829D01*
X-15952574Y8079215D01*
X-15959687Y8102664D01*
X-15971238Y8124274D01*
X-15986783Y8143216D01*
X-16005725Y8158762D01*
X-16027336Y8170313D01*
X-16050785Y8177426D01*
X-16075171Y8179828D01*
X-16099557Y8177426D01*
X-16123006Y8170313D01*
X-16272858Y8108242D01*
X-16429925Y8077000D01*
X-16590075Y8077000D01*
X-16747142Y8108242D01*
X-16896994Y8170313D01*
X-16920443Y8177426D01*
X-16944829Y8179828D01*
X-16969215Y8177426D01*
X-16992664Y8170313D01*
X-17014274Y8158762D01*
X-17033216Y8143217D01*
X-17048762Y8124275D01*
X-17060313Y8102664D01*
X-17067426Y8079215D01*
X-17069828Y8054829D01*
X-17067426Y8030443D01*
X-17060313Y8006994D01*
X-16998242Y7857142D01*
X-16967000Y7700075D01*
X-16967000Y7539925D01*
X-16998242Y7382858D01*
X-17059529Y7234899D01*
X-17148499Y7101745D01*
X-17261745Y6988499D01*
X-17394899Y6899529D01*
X-17542858Y6838242D01*
X-17699925Y6807000D01*
X-17860075Y6807000D01*
X-18017142Y6838242D01*
X-18165101Y6899529D01*
X-18298255Y6988499D01*
X-18411501Y7101745D01*
X-18500471Y7234899D01*
X-18561758Y7382858D01*
X-18593000Y7539925D01*
X-18593000Y7700075D01*
X-18561758Y7857142D01*
X-18499687Y8006994D01*
X-18492574Y8030443D01*
X-18490172Y8054829D01*
X-18492574Y8079215D01*
X-18499687Y8102664D01*
X-18511238Y8124274D01*
X-18526783Y8143216D01*
X-18545725Y8158762D01*
X-18567336Y8170313D01*
X-18590785Y8177426D01*
X-18615171Y8179828D01*
X-18639557Y8177426D01*
X-18663006Y8170313D01*
X-18812858Y8108242D01*
X-18969925Y8077000D01*
X-19130075Y8077000D01*
X-19287142Y8108242D01*
X-19436994Y8170313D01*
X-19460443Y8177426D01*
X-19484829Y8179828D01*
X-19509215Y8177426D01*
X-19532664Y8170313D01*
X-19554274Y8158762D01*
X-19573216Y8143217D01*
X-19588762Y8124275D01*
X-19600313Y8102664D01*
X-19607426Y8079215D01*
X-19609828Y8054829D01*
X-19607426Y8030443D01*
X-19600313Y8006994D01*
X-19538242Y7857142D01*
X-19507000Y7700075D01*
X-19507000Y7539925D01*
X-19538242Y7382858D01*
X-19599529Y7234899D01*
X-19688499Y7101745D01*
X-19801745Y6988499D01*
X-19934899Y6899529D01*
X-20082858Y6838242D01*
X-20239925Y6807000D01*
X-20400075Y6807000D01*
X-20557142Y6838242D01*
X-20705101Y6899529D01*
X-20838255Y6988499D01*
X-20951501Y7101745D01*
X-21040471Y7234899D01*
X-21101758Y7382858D01*
X-21133000Y7539925D01*
X-21133000Y7700075D01*
X-21101758Y7857142D01*
X-21039687Y8006994D01*
X-21032574Y8030443D01*
X-21030172Y8054829D01*
X-21032574Y8079215D01*
X-21039687Y8102664D01*
X-21051238Y8124274D01*
X-21066783Y8143216D01*
X-21085725Y8158762D01*
X-21107336Y8170313D01*
X-21130785Y8177426D01*
X-21155171Y8179828D01*
X-21179557Y8177426D01*
X-21203006Y8170313D01*
X-21352858Y8108242D01*
X-21509925Y8077000D01*
X-21670075Y8077000D01*
X-21827142Y8108242D01*
X-21975101Y8169529D01*
X-22108255Y8258499D01*
X-22221501Y8371745D01*
X-22310471Y8504899D01*
X-22371758Y8652858D01*
X-22403000Y8809925D01*
X-22403000Y8970075D01*
X-22371758Y9127142D01*
X-22310471Y9275101D01*
X-22221501Y9408255D01*
X-22108255Y9521501D01*
X-21975101Y9610471D01*
X-21827142Y9671758D01*
X-21670075Y9703000D01*
X-21509925Y9703000D01*
X-21352858Y9671758D01*
G37*
G36*
X15477142Y9671758D02*
G01*
X15625101Y9610471D01*
X15758255Y9521501D01*
X15871501Y9408255D01*
X15960471Y9275101D01*
X16021758Y9127142D01*
X16053000Y8970075D01*
X16053000Y8809925D01*
X16021758Y8652858D01*
X15959687Y8503006D01*
X15952574Y8479557D01*
X15950172Y8455171D01*
X15952574Y8430785D01*
X15959687Y8407336D01*
X15971238Y8385726D01*
X15986783Y8366784D01*
X16005725Y8351238D01*
X16027336Y8339687D01*
X16050785Y8332574D01*
X16075171Y8330172D01*
X16099557Y8332574D01*
X16123006Y8339687D01*
X16272858Y8401758D01*
X16429925Y8433000D01*
X16590075Y8433000D01*
X16747142Y8401758D01*
X16896994Y8339687D01*
X16920443Y8332574D01*
X16944829Y8330172D01*
X16969215Y8332574D01*
X16992664Y8339687D01*
X17014274Y8351238D01*
X17033216Y8366783D01*
X17048762Y8385725D01*
X17060313Y8407336D01*
X17067426Y8430785D01*
X17069828Y8455171D01*
X17067426Y8479557D01*
X17060313Y8503006D01*
X16998242Y8652858D01*
X16967000Y8809925D01*
X16967000Y8970075D01*
X16998242Y9127142D01*
X17059529Y9275101D01*
X17148499Y9408255D01*
X17261745Y9521501D01*
X17394899Y9610471D01*
X17542858Y9671758D01*
X17699925Y9703000D01*
X17860075Y9703000D01*
X18017142Y9671758D01*
X18165101Y9610471D01*
X18298255Y9521501D01*
X18411501Y9408255D01*
X18500471Y9275101D01*
X18561758Y9127142D01*
X18593000Y8970075D01*
X18593000Y8809925D01*
X18561758Y8652858D01*
X18499687Y8503006D01*
X18492574Y8479557D01*
X18490172Y8455171D01*
X18492574Y8430785D01*
X18499687Y8407336D01*
X18511238Y8385726D01*
X18526783Y8366784D01*
X18545725Y8351238D01*
X18567336Y8339687D01*
X18590785Y8332574D01*
X18615171Y8330172D01*
X18639557Y8332574D01*
X18663006Y8339687D01*
X18812858Y8401758D01*
X18969925Y8433000D01*
X19130075Y8433000D01*
X19287142Y8401758D01*
X19436994Y8339687D01*
X19460443Y8332574D01*
X19484829Y8330172D01*
X19509215Y8332574D01*
X19532664Y8339687D01*
X19554274Y8351238D01*
X19573216Y8366783D01*
X19588762Y8385725D01*
X19600313Y8407336D01*
X19607426Y8430785D01*
X19609828Y8455171D01*
X19607426Y8479557D01*
X19600313Y8503006D01*
X19538242Y8652858D01*
X19507000Y8809925D01*
X19507000Y8970075D01*
X19538242Y9127142D01*
X19599529Y9275101D01*
X19688499Y9408255D01*
X19801745Y9521501D01*
X19934899Y9610471D01*
X20082858Y9671758D01*
X20239925Y9703000D01*
X20400075Y9703000D01*
X20557142Y9671758D01*
X20705101Y9610471D01*
X20838255Y9521501D01*
X20951501Y9408255D01*
X21040471Y9275101D01*
X21101758Y9127142D01*
X21133000Y8970075D01*
X21133000Y8809925D01*
X21101758Y8652858D01*
X21039687Y8503006D01*
X21032574Y8479557D01*
X21030172Y8455171D01*
X21032574Y8430785D01*
X21039687Y8407336D01*
X21051238Y8385726D01*
X21066783Y8366784D01*
X21085725Y8351238D01*
X21107336Y8339687D01*
X21130785Y8332574D01*
X21155171Y8330172D01*
X21179557Y8332574D01*
X21203006Y8339687D01*
X21352858Y8401758D01*
X21509925Y8433000D01*
X21670075Y8433000D01*
X21827142Y8401758D01*
X21975101Y8340471D01*
X22108255Y8251501D01*
X22221501Y8138255D01*
X22310471Y8005101D01*
X22371758Y7857142D01*
X22403000Y7700075D01*
X22403000Y7539925D01*
X22371758Y7382858D01*
X22310471Y7234899D01*
X22221501Y7101745D01*
X22108255Y6988499D01*
X21975101Y6899529D01*
X21827142Y6838242D01*
X21670075Y6807000D01*
X21509925Y6807000D01*
X21352858Y6838242D01*
X21204899Y6899529D01*
X21071745Y6988499D01*
X20958499Y7101745D01*
X20869529Y7234899D01*
X20808242Y7382858D01*
X20777000Y7539925D01*
X20777000Y7700075D01*
X20808242Y7857142D01*
X20870313Y8006994D01*
X20877426Y8030443D01*
X20879828Y8054829D01*
X20877426Y8079215D01*
X20870313Y8102664D01*
X20858762Y8124274D01*
X20843217Y8143216D01*
X20824275Y8158762D01*
X20802664Y8170313D01*
X20779215Y8177426D01*
X20754829Y8179828D01*
X20730443Y8177426D01*
X20706994Y8170313D01*
X20557142Y8108242D01*
X20400075Y8077000D01*
X20239925Y8077000D01*
X20082858Y8108242D01*
X19933006Y8170313D01*
X19909557Y8177426D01*
X19885171Y8179828D01*
X19860785Y8177426D01*
X19837336Y8170313D01*
X19815726Y8158762D01*
X19796784Y8143217D01*
X19781238Y8124275D01*
X19769687Y8102664D01*
X19762574Y8079215D01*
X19760172Y8054829D01*
X19762574Y8030443D01*
X19769687Y8006994D01*
X19831758Y7857142D01*
X19863000Y7700075D01*
X19863000Y7539925D01*
X19831758Y7382858D01*
X19770471Y7234899D01*
X19681501Y7101745D01*
X19568255Y6988499D01*
X19435101Y6899529D01*
X19287142Y6838242D01*
X19130075Y6807000D01*
X18969925Y6807000D01*
X18812858Y6838242D01*
X18664899Y6899529D01*
X18531745Y6988499D01*
X18418499Y7101745D01*
X18329529Y7234899D01*
X18268242Y7382858D01*
X18237000Y7539925D01*
X18237000Y7700075D01*
X18268242Y7857142D01*
X18330313Y8006994D01*
X18337426Y8030443D01*
X18339828Y8054829D01*
X18337426Y8079215D01*
X18330313Y8102664D01*
X18318762Y8124274D01*
X18303217Y8143216D01*
X18284275Y8158762D01*
X18262664Y8170313D01*
X18239215Y8177426D01*
X18214829Y8179828D01*
X18190443Y8177426D01*
X18166994Y8170313D01*
X18017142Y8108242D01*
X17860075Y8077000D01*
X17699925Y8077000D01*
X17542858Y8108242D01*
X17393006Y8170313D01*
X17369557Y8177426D01*
X17345171Y8179828D01*
X17320785Y8177426D01*
X17297336Y8170313D01*
X17275726Y8158762D01*
X17256784Y8143217D01*
X17241238Y8124275D01*
X17229687Y8102664D01*
X17222574Y8079215D01*
X17220172Y8054829D01*
X17222574Y8030443D01*
X17229687Y8006994D01*
X17291758Y7857142D01*
X17323000Y7700075D01*
X17323000Y7539925D01*
X17291758Y7382858D01*
X17230471Y7234899D01*
X17141501Y7101745D01*
X17028255Y6988499D01*
X16895101Y6899529D01*
X16747142Y6838242D01*
X16590075Y6807000D01*
X16429925Y6807000D01*
X16272858Y6838242D01*
X16124899Y6899529D01*
X15991745Y6988499D01*
X15878499Y7101745D01*
X15789529Y7234899D01*
X15728242Y7382858D01*
X15697000Y7539925D01*
X15697000Y7700075D01*
X15728242Y7857142D01*
X15790313Y8006994D01*
X15797426Y8030443D01*
X15799828Y8054829D01*
X15797426Y8079215D01*
X15790313Y8102664D01*
X15778762Y8124274D01*
X15763217Y8143216D01*
X15744275Y8158762D01*
X15722664Y8170313D01*
X15699215Y8177426D01*
X15674829Y8179828D01*
X15650443Y8177426D01*
X15626994Y8170313D01*
X15477142Y8108242D01*
X15320075Y8077000D01*
X15159925Y8077000D01*
X15002858Y8108242D01*
X14854899Y8169529D01*
X14721745Y8258499D01*
X14608499Y8371745D01*
X14519529Y8504899D01*
X14458242Y8652858D01*
X14427000Y8809925D01*
X14427000Y8970075D01*
X14458242Y9127142D01*
X14519529Y9275101D01*
X14608499Y9408255D01*
X14721745Y9521501D01*
X14854899Y9610471D01*
X15002858Y9671758D01*
X15159925Y9703000D01*
X15320075Y9703000D01*
X15477142Y9671758D01*
G37*
G36*
X30375256Y10858702D02*
G01*
X30481579Y10837553D01*
X30782042Y10713097D01*
X31052451Y10532415D01*
X31282415Y10302451D01*
X31282416Y10302449D01*
X31463098Y10032040D01*
X31587553Y9731578D01*
X31651000Y9412611D01*
X31651000Y9087389D01*
X31587553Y8768422D01*
X31467902Y8479557D01*
X31463097Y8467958D01*
X31282415Y8197549D01*
X31052451Y7967585D01*
X30782042Y7786903D01*
X30481579Y7662447D01*
X30375256Y7641298D01*
X30162611Y7599000D01*
X29837389Y7599000D01*
X29624744Y7641298D01*
X29518421Y7662447D01*
X29217958Y7786903D01*
X28947549Y7967585D01*
X28717585Y8197549D01*
X28536903Y8467958D01*
X28532099Y8479557D01*
X28412447Y8768422D01*
X28349000Y9087389D01*
X28349000Y9412611D01*
X28412447Y9731578D01*
X28536902Y10032040D01*
X28717584Y10302449D01*
X28717585Y10302451D01*
X28947549Y10532415D01*
X29217958Y10713097D01*
X29518421Y10837553D01*
X29624744Y10858702D01*
X29837389Y10901000D01*
X30162611Y10901000D01*
X30375256Y10858702D01*
G37*
G36*
X375256Y10858702D02*
G01*
X481579Y10837553D01*
X782042Y10713097D01*
X1052451Y10532415D01*
X1282415Y10302451D01*
X1282416Y10302449D01*
X1463098Y10032040D01*
X1587553Y9731578D01*
X1651000Y9412611D01*
X1651000Y9087389D01*
X1587553Y8768422D01*
X1467902Y8479557D01*
X1463097Y8467958D01*
X1282415Y8197549D01*
X1052451Y7967585D01*
X782042Y7786903D01*
X481579Y7662447D01*
X375256Y7641298D01*
X162611Y7599000D01*
X-162611Y7599000D01*
X-375256Y7641298D01*
X-481579Y7662447D01*
X-782042Y7786903D01*
X-1052451Y7967585D01*
X-1282415Y8197549D01*
X-1463097Y8467958D01*
X-1467901Y8479557D01*
X-1587553Y8768422D01*
X-1651000Y9087389D01*
X-1651000Y9412611D01*
X-1587553Y9731578D01*
X-1463098Y10032040D01*
X-1282416Y10302449D01*
X-1282415Y10302451D01*
X-1052451Y10532415D01*
X-782042Y10713097D01*
X-481579Y10837553D01*
X-375256Y10858702D01*
X-162611Y10901000D01*
X162611Y10901000D01*
X375256Y10858702D01*
G37*
G36*
X-29624744Y10858702D02*
G01*
X-29518421Y10837553D01*
X-29217958Y10713097D01*
X-28947549Y10532415D01*
X-28717585Y10302451D01*
X-28717584Y10302449D01*
X-28536902Y10032040D01*
X-28412447Y9731578D01*
X-28349000Y9412611D01*
X-28349000Y9087389D01*
X-28412447Y8768422D01*
X-28532098Y8479557D01*
X-28536903Y8467958D01*
X-28717585Y8197549D01*
X-28947549Y7967585D01*
X-29217958Y7786903D01*
X-29518421Y7662447D01*
X-29624744Y7641298D01*
X-29837389Y7599000D01*
X-30162611Y7599000D01*
X-30375256Y7641298D01*
X-30481579Y7662447D01*
X-30782042Y7786903D01*
X-31052451Y7967585D01*
X-31282415Y8197549D01*
X-31463097Y8467958D01*
X-31467901Y8479557D01*
X-31587553Y8768422D01*
X-31651000Y9087389D01*
X-31651000Y9412611D01*
X-31587553Y9731578D01*
X-31463098Y10032040D01*
X-31282416Y10302449D01*
X-31282415Y10302451D01*
X-31052451Y10532415D01*
X-30782042Y10713097D01*
X-30481579Y10837553D01*
X-30375256Y10858702D01*
X-30162611Y10901000D01*
X-29837389Y10901000D01*
X-29624744Y10858702D01*
G37*
M02*
