G04 #@! TF.GenerationSoftware,KiCad,Pcbnew,5.1.6*
G04 #@! TF.CreationDate,2020-08-26T23:46:25+02:00*
G04 #@! TF.ProjectId,line_follower,6c696e65-5f66-46f6-9c6c-6f7765722e6b,rev?*
G04 #@! TF.SameCoordinates,Original*
G04 #@! TF.FileFunction,Legend,Bot*
G04 #@! TF.FilePolarity,Positive*
%FSLAX46Y46*%
G04 Gerber Fmt 4.6, Leading zero omitted, Abs format (unit mm)*
G04 Created by KiCad (PCBNEW 5.1.6) date 2020-08-26 23:46:25*
%MOMM*%
%LPD*%
G01*
G04 APERTURE LIST*
%ADD10C,0.120000*%
%ADD11C,0.150000*%
G04 APERTURE END LIST*
D10*
X3473750Y233750D02*
X4261250Y233750D01*
X3867500Y627500D02*
X3867500Y-160000D01*
X8060563Y-400000D02*
X9125000Y-1464437D01*
X3369437Y-400000D02*
X2305000Y-1464437D01*
X3369437Y-400000D02*
X4655000Y-400000D01*
X8060563Y-400000D02*
X6775000Y-400000D01*
X9125000Y-1464437D02*
X9125000Y-7220000D01*
X2305000Y-1464437D02*
X2305000Y-7220000D01*
X2305000Y-7220000D02*
X4655000Y-7220000D01*
X9125000Y-7220000D02*
X6775000Y-7220000D01*
X-7956250Y233750D02*
X-7168750Y233750D01*
X-7562500Y627500D02*
X-7562500Y-160000D01*
X-3369437Y-400000D02*
X-2305000Y-1464437D01*
X-8060563Y-400000D02*
X-9125000Y-1464437D01*
X-8060563Y-400000D02*
X-6775000Y-400000D01*
X-3369437Y-400000D02*
X-4655000Y-400000D01*
X-2305000Y-1464437D02*
X-2305000Y-7220000D01*
X-9125000Y-1464437D02*
X-9125000Y-7220000D01*
X-9125000Y-7220000D02*
X-6775000Y-7220000D01*
X-2305000Y-7220000D02*
X-4655000Y-7220000D01*
X-16490000Y0D02*
X-16490000Y-3450000D01*
X-16490000Y0D02*
X-16490000Y1950000D01*
X-21610000Y0D02*
X-21610000Y-1950000D01*
X-21610000Y0D02*
X-21610000Y1950000D01*
X-23420000Y2801252D02*
X-23420000Y2278748D01*
X-24840000Y2801252D02*
X-24840000Y2278748D01*
X21610000Y0D02*
X21610000Y-3450000D01*
X21610000Y0D02*
X21610000Y1950000D01*
X16490000Y0D02*
X16490000Y-1950000D01*
X16490000Y0D02*
X16490000Y1950000D01*
X14680000Y2801252D02*
X14680000Y2278748D01*
X13260000Y2801252D02*
X13260000Y2278748D01*
X-34220000Y-29840000D02*
X-35320000Y-29840000D01*
X-34220000Y-29570000D02*
X-34220000Y-29840000D01*
X-32720000Y-29570000D02*
X-34220000Y-29570000D01*
X-34220000Y-36200000D02*
X-37050000Y-36200000D01*
X-34220000Y-36470000D02*
X-34220000Y-36200000D01*
X-32720000Y-36470000D02*
X-34220000Y-36470000D01*
X21328748Y-50090000D02*
X21851252Y-50090000D01*
X21328748Y-51510000D02*
X21851252Y-51510000D01*
X16248748Y-50090000D02*
X16771252Y-50090000D01*
X16248748Y-51510000D02*
X16771252Y-51510000D01*
X1980000Y-58158748D02*
X1980000Y-58681252D01*
X560000Y-58158748D02*
X560000Y-58681252D01*
X7060000Y-58158748D02*
X7060000Y-58681252D01*
X5640000Y-58158748D02*
X5640000Y-58681252D01*
X12140000Y-58158748D02*
X12140000Y-58681252D01*
X10720000Y-58158748D02*
X10720000Y-58681252D01*
X17220000Y-58158748D02*
X17220000Y-58681252D01*
X15800000Y-58158748D02*
X15800000Y-58681252D01*
X22300000Y-58158748D02*
X22300000Y-58681252D01*
X20880000Y-58158748D02*
X20880000Y-58681252D01*
X-19187595Y-81064249D02*
X-20487595Y-81064249D01*
X-20487595Y-81064249D02*
X-20487595Y-78664249D01*
X-19187595Y-78664249D02*
X-19187595Y-81064249D01*
X-9343286Y-82888784D02*
X-10643286Y-82888784D01*
X-10643286Y-82888784D02*
X-10643286Y-80488784D01*
X-9343286Y-80488784D02*
X-9343286Y-82888784D01*
X650000Y-83500000D02*
X-650000Y-83500000D01*
X-650000Y-83500000D02*
X-650000Y-81100000D01*
X650000Y-81100000D02*
X650000Y-83500000D01*
X10643286Y-82888784D02*
X9343286Y-82888784D01*
X9343286Y-82888784D02*
X9343286Y-80488784D01*
X10643286Y-80488784D02*
X10643286Y-82888784D01*
X20487595Y-81064249D02*
X19187595Y-81064249D01*
X19187595Y-81064249D02*
X19187595Y-78664249D01*
X20487595Y-78664249D02*
X20487595Y-81064249D01*
X-25617875Y-80064789D02*
X-25617875Y-77204789D01*
X-23697875Y-80064789D02*
X-25617875Y-80064789D01*
X-23697875Y-77204789D02*
X-23697875Y-80064789D01*
X-15903313Y-82486902D02*
X-15903313Y-79626902D01*
X-13983313Y-82486902D02*
X-15903313Y-82486902D01*
X-13983313Y-79626902D02*
X-13983313Y-82486902D01*
X-5965980Y-83707053D02*
X-5965980Y-80847053D01*
X-4045980Y-83707053D02*
X-5965980Y-83707053D01*
X-4045980Y-80847053D02*
X-4045980Y-83707053D01*
X4045980Y-83707053D02*
X4045980Y-80847053D01*
X5965980Y-83707053D02*
X4045980Y-83707053D01*
X5965980Y-80847053D02*
X5965980Y-83707053D01*
X13983313Y-82486902D02*
X13983313Y-79626902D01*
X15903313Y-82486902D02*
X13983313Y-82486902D01*
X15903313Y-79626902D02*
X15903313Y-82486902D01*
X23697875Y-80064789D02*
X23697875Y-77204789D01*
X25617875Y-80064789D02*
X23697875Y-80064789D01*
X25617875Y-77204789D02*
X25617875Y-80064789D01*
X-32646252Y-27230000D02*
X-32123748Y-27230000D01*
X-32646252Y-28650000D02*
X-32123748Y-28650000D01*
X-32646252Y-37390000D02*
X-32123748Y-37390000D01*
X-32646252Y-38810000D02*
X-32123748Y-38810000D01*
X-560000Y-63238748D02*
X-560000Y-63761252D01*
X-1980000Y-63238748D02*
X-1980000Y-63761252D01*
X4520000Y-63238748D02*
X4520000Y-63761252D01*
X3100000Y-63238748D02*
X3100000Y-63761252D01*
X9600000Y-63238748D02*
X9600000Y-63761252D01*
X8180000Y-63238748D02*
X8180000Y-63761252D01*
X14680000Y-63238748D02*
X14680000Y-63761252D01*
X13260000Y-63238748D02*
X13260000Y-63761252D01*
X19760000Y-63238748D02*
X19760000Y-63761252D01*
X18340000Y-63238748D02*
X18340000Y-63761252D01*
D11*
X1722142Y-3643333D02*
X1769761Y-3595714D01*
X1817380Y-3452857D01*
X1817380Y-3357619D01*
X1769761Y-3214761D01*
X1674523Y-3119523D01*
X1579285Y-3071904D01*
X1388809Y-3024285D01*
X1245952Y-3024285D01*
X1055476Y-3071904D01*
X960238Y-3119523D01*
X865000Y-3214761D01*
X817380Y-3357619D01*
X817380Y-3452857D01*
X865000Y-3595714D01*
X912619Y-3643333D01*
X1245952Y-4214761D02*
X1198333Y-4119523D01*
X1150714Y-4071904D01*
X1055476Y-4024285D01*
X1007857Y-4024285D01*
X912619Y-4071904D01*
X865000Y-4119523D01*
X817380Y-4214761D01*
X817380Y-4405238D01*
X865000Y-4500476D01*
X912619Y-4548095D01*
X1007857Y-4595714D01*
X1055476Y-4595714D01*
X1150714Y-4548095D01*
X1198333Y-4500476D01*
X1245952Y-4405238D01*
X1245952Y-4214761D01*
X1293571Y-4119523D01*
X1341190Y-4071904D01*
X1436428Y-4024285D01*
X1626904Y-4024285D01*
X1722142Y-4071904D01*
X1769761Y-4119523D01*
X1817380Y-4214761D01*
X1817380Y-4405238D01*
X1769761Y-4500476D01*
X1722142Y-4548095D01*
X1626904Y-4595714D01*
X1436428Y-4595714D01*
X1341190Y-4548095D01*
X1293571Y-4500476D01*
X1245952Y-4405238D01*
X-9707857Y-3643333D02*
X-9660238Y-3595714D01*
X-9612619Y-3452857D01*
X-9612619Y-3357619D01*
X-9660238Y-3214761D01*
X-9755476Y-3119523D01*
X-9850714Y-3071904D01*
X-10041190Y-3024285D01*
X-10184047Y-3024285D01*
X-10374523Y-3071904D01*
X-10469761Y-3119523D01*
X-10565000Y-3214761D01*
X-10612619Y-3357619D01*
X-10612619Y-3452857D01*
X-10565000Y-3595714D01*
X-10517380Y-3643333D01*
X-9612619Y-4119523D02*
X-9612619Y-4310000D01*
X-9660238Y-4405238D01*
X-9707857Y-4452857D01*
X-9850714Y-4548095D01*
X-10041190Y-4595714D01*
X-10422142Y-4595714D01*
X-10517380Y-4548095D01*
X-10565000Y-4500476D01*
X-10612619Y-4405238D01*
X-10612619Y-4214761D01*
X-10565000Y-4119523D01*
X-10517380Y-4071904D01*
X-10422142Y-4024285D01*
X-10184047Y-4024285D01*
X-10088809Y-4071904D01*
X-10041190Y-4119523D01*
X-9993571Y-4214761D01*
X-9993571Y-4405238D01*
X-10041190Y-4500476D01*
X-10088809Y-4548095D01*
X-10184047Y-4595714D01*
X-16197619Y761904D02*
X-15388095Y761904D01*
X-15292857Y714285D01*
X-15245238Y666666D01*
X-15197619Y571428D01*
X-15197619Y380952D01*
X-15245238Y285714D01*
X-15292857Y238095D01*
X-15388095Y190476D01*
X-16197619Y190476D01*
X-16102380Y-238095D02*
X-16150000Y-285714D01*
X-16197619Y-380952D01*
X-16197619Y-619047D01*
X-16150000Y-714285D01*
X-16102380Y-761904D01*
X-16007142Y-809523D01*
X-15911904Y-809523D01*
X-15769047Y-761904D01*
X-15197619Y-190476D01*
X-15197619Y-809523D01*
X-25422857Y2706666D02*
X-25375238Y2754285D01*
X-25327619Y2897142D01*
X-25327619Y2992380D01*
X-25375238Y3135238D01*
X-25470476Y3230476D01*
X-25565714Y3278095D01*
X-25756190Y3325714D01*
X-25899047Y3325714D01*
X-26089523Y3278095D01*
X-26184761Y3230476D01*
X-26280000Y3135238D01*
X-26327619Y2992380D01*
X-26327619Y2897142D01*
X-26280000Y2754285D01*
X-26232380Y2706666D01*
X-26327619Y2373333D02*
X-26327619Y1706666D01*
X-25327619Y2135238D01*
X21902380Y761904D02*
X22711904Y761904D01*
X22807142Y714285D01*
X22854761Y666666D01*
X22902380Y571428D01*
X22902380Y380952D01*
X22854761Y285714D01*
X22807142Y238095D01*
X22711904Y190476D01*
X21902380Y190476D01*
X22902380Y-809523D02*
X22902380Y-238095D01*
X22902380Y-523809D02*
X21902380Y-523809D01*
X22045238Y-428571D01*
X22140476Y-333333D01*
X22188095Y-238095D01*
X12677142Y2706666D02*
X12724761Y2754285D01*
X12772380Y2897142D01*
X12772380Y2992380D01*
X12724761Y3135238D01*
X12629523Y3230476D01*
X12534285Y3278095D01*
X12343809Y3325714D01*
X12200952Y3325714D01*
X12010476Y3278095D01*
X11915238Y3230476D01*
X11820000Y3135238D01*
X11772380Y2992380D01*
X11772380Y2897142D01*
X11820000Y2754285D01*
X11867619Y2706666D01*
X11772380Y1849523D02*
X11772380Y2040000D01*
X11820000Y2135238D01*
X11867619Y2182857D01*
X12010476Y2278095D01*
X12200952Y2325714D01*
X12581904Y2325714D01*
X12677142Y2278095D01*
X12724761Y2230476D01*
X12772380Y2135238D01*
X12772380Y1944761D01*
X12724761Y1849523D01*
X12677142Y1801904D01*
X12581904Y1754285D01*
X12343809Y1754285D01*
X12248571Y1801904D01*
X12200952Y1849523D01*
X12153333Y1944761D01*
X12153333Y2135238D01*
X12200952Y2230476D01*
X12248571Y2278095D01*
X12343809Y2325714D01*
X-23368095Y-32472380D02*
X-23368095Y-33281904D01*
X-23415714Y-33377142D01*
X-23463333Y-33424761D01*
X-23558571Y-33472380D01*
X-23749047Y-33472380D01*
X-23844285Y-33424761D01*
X-23891904Y-33377142D01*
X-23939523Y-33281904D01*
X-23939523Y-32472380D01*
X-24320476Y-32472380D02*
X-24939523Y-32472380D01*
X-24606190Y-32853333D01*
X-24749047Y-32853333D01*
X-24844285Y-32900952D01*
X-24891904Y-32948571D01*
X-24939523Y-33043809D01*
X-24939523Y-33281904D01*
X-24891904Y-33377142D01*
X-24844285Y-33424761D01*
X-24749047Y-33472380D01*
X-24463333Y-33472380D01*
X-24368095Y-33424761D01*
X-24320476Y-33377142D01*
X22042380Y-53173333D02*
X21566190Y-52840000D01*
X22042380Y-52601904D02*
X21042380Y-52601904D01*
X21042380Y-52982857D01*
X21090000Y-53078095D01*
X21137619Y-53125714D01*
X21232857Y-53173333D01*
X21375714Y-53173333D01*
X21470952Y-53125714D01*
X21518571Y-53078095D01*
X21566190Y-52982857D01*
X21566190Y-52601904D01*
X21042380Y-53506666D02*
X21042380Y-54173333D01*
X22042380Y-53744761D01*
X16962380Y-53173333D02*
X16486190Y-52840000D01*
X16962380Y-52601904D02*
X15962380Y-52601904D01*
X15962380Y-52982857D01*
X16010000Y-53078095D01*
X16057619Y-53125714D01*
X16152857Y-53173333D01*
X16295714Y-53173333D01*
X16390952Y-53125714D01*
X16438571Y-53078095D01*
X16486190Y-52982857D01*
X16486190Y-52601904D01*
X15962380Y-54030476D02*
X15962380Y-53840000D01*
X16010000Y-53744761D01*
X16057619Y-53697142D01*
X16200476Y-53601904D01*
X16390952Y-53554285D01*
X16771904Y-53554285D01*
X16867142Y-53601904D01*
X16914761Y-53649523D01*
X16962380Y-53744761D01*
X16962380Y-53935238D01*
X16914761Y-54030476D01*
X16867142Y-54078095D01*
X16771904Y-54125714D01*
X16533809Y-54125714D01*
X16438571Y-54078095D01*
X16390952Y-54030476D01*
X16343333Y-53935238D01*
X16343333Y-53744761D01*
X16390952Y-53649523D01*
X16438571Y-53601904D01*
X16533809Y-53554285D01*
X72380Y-58253333D02*
X-403809Y-57920000D01*
X72380Y-57681904D02*
X-927619Y-57681904D01*
X-927619Y-58062857D01*
X-880000Y-58158095D01*
X-832380Y-58205714D01*
X-737142Y-58253333D01*
X-594285Y-58253333D01*
X-499047Y-58205714D01*
X-451428Y-58158095D01*
X-403809Y-58062857D01*
X-403809Y-57681904D01*
X-927619Y-59158095D02*
X-927619Y-58681904D01*
X-451428Y-58634285D01*
X-499047Y-58681904D01*
X-546666Y-58777142D01*
X-546666Y-59015238D01*
X-499047Y-59110476D01*
X-451428Y-59158095D01*
X-356190Y-59205714D01*
X-118095Y-59205714D01*
X-22857Y-59158095D01*
X24761Y-59110476D01*
X72380Y-59015238D01*
X72380Y-58777142D01*
X24761Y-58681904D01*
X-22857Y-58634285D01*
X5152380Y-58253333D02*
X4676190Y-57920000D01*
X5152380Y-57681904D02*
X4152380Y-57681904D01*
X4152380Y-58062857D01*
X4200000Y-58158095D01*
X4247619Y-58205714D01*
X4342857Y-58253333D01*
X4485714Y-58253333D01*
X4580952Y-58205714D01*
X4628571Y-58158095D01*
X4676190Y-58062857D01*
X4676190Y-57681904D01*
X4485714Y-59110476D02*
X5152380Y-59110476D01*
X4104761Y-58872380D02*
X4819047Y-58634285D01*
X4819047Y-59253333D01*
X10232380Y-58253333D02*
X9756190Y-57920000D01*
X10232380Y-57681904D02*
X9232380Y-57681904D01*
X9232380Y-58062857D01*
X9280000Y-58158095D01*
X9327619Y-58205714D01*
X9422857Y-58253333D01*
X9565714Y-58253333D01*
X9660952Y-58205714D01*
X9708571Y-58158095D01*
X9756190Y-58062857D01*
X9756190Y-57681904D01*
X9232380Y-58586666D02*
X9232380Y-59205714D01*
X9613333Y-58872380D01*
X9613333Y-59015238D01*
X9660952Y-59110476D01*
X9708571Y-59158095D01*
X9803809Y-59205714D01*
X10041904Y-59205714D01*
X10137142Y-59158095D01*
X10184761Y-59110476D01*
X10232380Y-59015238D01*
X10232380Y-58729523D01*
X10184761Y-58634285D01*
X10137142Y-58586666D01*
X15312380Y-58253333D02*
X14836190Y-57920000D01*
X15312380Y-57681904D02*
X14312380Y-57681904D01*
X14312380Y-58062857D01*
X14360000Y-58158095D01*
X14407619Y-58205714D01*
X14502857Y-58253333D01*
X14645714Y-58253333D01*
X14740952Y-58205714D01*
X14788571Y-58158095D01*
X14836190Y-58062857D01*
X14836190Y-57681904D01*
X14407619Y-58634285D02*
X14360000Y-58681904D01*
X14312380Y-58777142D01*
X14312380Y-59015238D01*
X14360000Y-59110476D01*
X14407619Y-59158095D01*
X14502857Y-59205714D01*
X14598095Y-59205714D01*
X14740952Y-59158095D01*
X15312380Y-58586666D01*
X15312380Y-59205714D01*
X20392380Y-58253333D02*
X19916190Y-57920000D01*
X20392380Y-57681904D02*
X19392380Y-57681904D01*
X19392380Y-58062857D01*
X19440000Y-58158095D01*
X19487619Y-58205714D01*
X19582857Y-58253333D01*
X19725714Y-58253333D01*
X19820952Y-58205714D01*
X19868571Y-58158095D01*
X19916190Y-58062857D01*
X19916190Y-57681904D01*
X20392380Y-59205714D02*
X20392380Y-58634285D01*
X20392380Y-58920000D02*
X19392380Y-58920000D01*
X19535238Y-58824761D01*
X19630476Y-58729523D01*
X19678095Y-58634285D01*
X-17384975Y-79469010D02*
X-17432595Y-79373772D01*
X-17527833Y-79278534D01*
X-17670690Y-79135677D01*
X-17718309Y-79040439D01*
X-17718309Y-78945201D01*
X-17480214Y-78992820D02*
X-17527833Y-78897582D01*
X-17623071Y-78802344D01*
X-17813547Y-78754725D01*
X-18146880Y-78754725D01*
X-18337356Y-78802344D01*
X-18432595Y-78897582D01*
X-18480214Y-78992820D01*
X-18480214Y-79183296D01*
X-18432595Y-79278534D01*
X-18337356Y-79373772D01*
X-18146880Y-79421391D01*
X-17813547Y-79421391D01*
X-17623071Y-79373772D01*
X-17527833Y-79278534D01*
X-17480214Y-79183296D01*
X-17480214Y-78992820D01*
X-18480214Y-80326153D02*
X-18480214Y-79849963D01*
X-18004023Y-79802344D01*
X-18051642Y-79849963D01*
X-18099261Y-79945201D01*
X-18099261Y-80183296D01*
X-18051642Y-80278534D01*
X-18004023Y-80326153D01*
X-17908785Y-80373772D01*
X-17670690Y-80373772D01*
X-17575452Y-80326153D01*
X-17527833Y-80278534D01*
X-17480214Y-80183296D01*
X-17480214Y-79945201D01*
X-17527833Y-79849963D01*
X-17575452Y-79802344D01*
X-7540666Y-81293545D02*
X-7588286Y-81198307D01*
X-7683524Y-81103069D01*
X-7826381Y-80960212D01*
X-7874000Y-80864974D01*
X-7874000Y-80769736D01*
X-7635905Y-80817355D02*
X-7683524Y-80722117D01*
X-7778762Y-80626879D01*
X-7969238Y-80579260D01*
X-8302571Y-80579260D01*
X-8493047Y-80626879D01*
X-8588286Y-80722117D01*
X-8635905Y-80817355D01*
X-8635905Y-81007831D01*
X-8588286Y-81103069D01*
X-8493047Y-81198307D01*
X-8302571Y-81245926D01*
X-7969238Y-81245926D01*
X-7778762Y-81198307D01*
X-7683524Y-81103069D01*
X-7635905Y-81007831D01*
X-7635905Y-80817355D01*
X-8302571Y-82103069D02*
X-7635905Y-82103069D01*
X-8683524Y-81864974D02*
X-7969238Y-81626879D01*
X-7969238Y-82245926D01*
X2452619Y-81904761D02*
X2405000Y-81809523D01*
X2309761Y-81714285D01*
X2166904Y-81571428D01*
X2119285Y-81476190D01*
X2119285Y-81380952D01*
X2357380Y-81428571D02*
X2309761Y-81333333D01*
X2214523Y-81238095D01*
X2024047Y-81190476D01*
X1690714Y-81190476D01*
X1500238Y-81238095D01*
X1405000Y-81333333D01*
X1357380Y-81428571D01*
X1357380Y-81619047D01*
X1405000Y-81714285D01*
X1500238Y-81809523D01*
X1690714Y-81857142D01*
X2024047Y-81857142D01*
X2214523Y-81809523D01*
X2309761Y-81714285D01*
X2357380Y-81619047D01*
X2357380Y-81428571D01*
X1357380Y-82190476D02*
X1357380Y-82809523D01*
X1738333Y-82476190D01*
X1738333Y-82619047D01*
X1785952Y-82714285D01*
X1833571Y-82761904D01*
X1928809Y-82809523D01*
X2166904Y-82809523D01*
X2262142Y-82761904D01*
X2309761Y-82714285D01*
X2357380Y-82619047D01*
X2357380Y-82333333D01*
X2309761Y-82238095D01*
X2262142Y-82190476D01*
X12445905Y-81293545D02*
X12398286Y-81198307D01*
X12303047Y-81103069D01*
X12160190Y-80960212D01*
X12112571Y-80864974D01*
X12112571Y-80769736D01*
X12350666Y-80817355D02*
X12303047Y-80722117D01*
X12207809Y-80626879D01*
X12017333Y-80579260D01*
X11684000Y-80579260D01*
X11493524Y-80626879D01*
X11398286Y-80722117D01*
X11350666Y-80817355D01*
X11350666Y-81007831D01*
X11398286Y-81103069D01*
X11493524Y-81198307D01*
X11684000Y-81245926D01*
X12017333Y-81245926D01*
X12207809Y-81198307D01*
X12303047Y-81103069D01*
X12350666Y-81007831D01*
X12350666Y-80817355D01*
X11445905Y-81626879D02*
X11398286Y-81674498D01*
X11350666Y-81769736D01*
X11350666Y-82007831D01*
X11398286Y-82103069D01*
X11445905Y-82150688D01*
X11541143Y-82198307D01*
X11636381Y-82198307D01*
X11779238Y-82150688D01*
X12350666Y-81579260D01*
X12350666Y-82198307D01*
X22290214Y-79469010D02*
X22242595Y-79373772D01*
X22147356Y-79278534D01*
X22004499Y-79135677D01*
X21956880Y-79040439D01*
X21956880Y-78945201D01*
X22194975Y-78992820D02*
X22147356Y-78897582D01*
X22052118Y-78802344D01*
X21861642Y-78754725D01*
X21528309Y-78754725D01*
X21337833Y-78802344D01*
X21242595Y-78897582D01*
X21194975Y-78992820D01*
X21194975Y-79183296D01*
X21242595Y-79278534D01*
X21337833Y-79373772D01*
X21528309Y-79421391D01*
X21861642Y-79421391D01*
X22052118Y-79373772D01*
X22147356Y-79278534D01*
X22194975Y-79183296D01*
X22194975Y-78992820D01*
X22194975Y-80373772D02*
X22194975Y-79802344D01*
X22194975Y-80088058D02*
X21194975Y-80088058D01*
X21337833Y-79992820D01*
X21433071Y-79897582D01*
X21480690Y-79802344D01*
X-22555494Y-77466693D02*
X-23555494Y-77466693D01*
X-23555494Y-77704789D01*
X-23507875Y-77847646D01*
X-23412636Y-77942884D01*
X-23317398Y-77990503D01*
X-23126922Y-78038122D01*
X-22984065Y-78038122D01*
X-22793589Y-77990503D01*
X-22698351Y-77942884D01*
X-22603113Y-77847646D01*
X-22555494Y-77704789D01*
X-22555494Y-77466693D01*
X-23555494Y-78895265D02*
X-23555494Y-78704789D01*
X-23507875Y-78609550D01*
X-23460255Y-78561931D01*
X-23317398Y-78466693D01*
X-23126922Y-78419074D01*
X-22745970Y-78419074D01*
X-22650732Y-78466693D01*
X-22603113Y-78514312D01*
X-22555494Y-78609550D01*
X-22555494Y-78800027D01*
X-22603113Y-78895265D01*
X-22650732Y-78942884D01*
X-22745970Y-78990503D01*
X-22984065Y-78990503D01*
X-23079303Y-78942884D01*
X-23126922Y-78895265D01*
X-23174541Y-78800027D01*
X-23174541Y-78609550D01*
X-23126922Y-78514312D01*
X-23079303Y-78466693D01*
X-22984065Y-78419074D01*
X-12840932Y-79888806D02*
X-13840932Y-79888806D01*
X-13840932Y-80126902D01*
X-13793313Y-80269759D01*
X-13698074Y-80364997D01*
X-13602836Y-80412616D01*
X-13412360Y-80460235D01*
X-13269503Y-80460235D01*
X-13079027Y-80412616D01*
X-12983789Y-80364997D01*
X-12888551Y-80269759D01*
X-12840932Y-80126902D01*
X-12840932Y-79888806D01*
X-13840932Y-81364997D02*
X-13840932Y-80888806D01*
X-13364741Y-80841187D01*
X-13412360Y-80888806D01*
X-13459979Y-80984044D01*
X-13459979Y-81222140D01*
X-13412360Y-81317378D01*
X-13364741Y-81364997D01*
X-13269503Y-81412616D01*
X-13031408Y-81412616D01*
X-12936170Y-81364997D01*
X-12888551Y-81317378D01*
X-12840932Y-81222140D01*
X-12840932Y-80984044D01*
X-12888551Y-80888806D01*
X-12936170Y-80841187D01*
X-2903599Y-81108957D02*
X-3903599Y-81108957D01*
X-3903599Y-81347053D01*
X-3855980Y-81489910D01*
X-3760741Y-81585148D01*
X-3665503Y-81632767D01*
X-3475027Y-81680386D01*
X-3332170Y-81680386D01*
X-3141694Y-81632767D01*
X-3046456Y-81585148D01*
X-2951218Y-81489910D01*
X-2903599Y-81347053D01*
X-2903599Y-81108957D01*
X-3570265Y-82537529D02*
X-2903599Y-82537529D01*
X-3951218Y-82299433D02*
X-3236932Y-82061338D01*
X-3236932Y-82680386D01*
X7108360Y-81108957D02*
X6108360Y-81108957D01*
X6108360Y-81347053D01*
X6155980Y-81489910D01*
X6251218Y-81585148D01*
X6346456Y-81632767D01*
X6536932Y-81680386D01*
X6679789Y-81680386D01*
X6870265Y-81632767D01*
X6965503Y-81585148D01*
X7060741Y-81489910D01*
X7108360Y-81347053D01*
X7108360Y-81108957D01*
X6108360Y-82013719D02*
X6108360Y-82632767D01*
X6489313Y-82299433D01*
X6489313Y-82442291D01*
X6536932Y-82537529D01*
X6584551Y-82585148D01*
X6679789Y-82632767D01*
X6917884Y-82632767D01*
X7013122Y-82585148D01*
X7060741Y-82537529D01*
X7108360Y-82442291D01*
X7108360Y-82156576D01*
X7060741Y-82061338D01*
X7013122Y-82013719D01*
X17045693Y-79888806D02*
X16045693Y-79888806D01*
X16045693Y-80126902D01*
X16093313Y-80269759D01*
X16188551Y-80364997D01*
X16283789Y-80412616D01*
X16474265Y-80460235D01*
X16617122Y-80460235D01*
X16807598Y-80412616D01*
X16902836Y-80364997D01*
X16998074Y-80269759D01*
X17045693Y-80126902D01*
X17045693Y-79888806D01*
X16140932Y-80841187D02*
X16093313Y-80888806D01*
X16045693Y-80984044D01*
X16045693Y-81222140D01*
X16093313Y-81317378D01*
X16140932Y-81364997D01*
X16236170Y-81412616D01*
X16331408Y-81412616D01*
X16474265Y-81364997D01*
X17045693Y-80793568D01*
X17045693Y-81412616D01*
X26760255Y-77466693D02*
X25760255Y-77466693D01*
X25760255Y-77704789D01*
X25807875Y-77847646D01*
X25903113Y-77942884D01*
X25998351Y-77990503D01*
X26188827Y-78038122D01*
X26331684Y-78038122D01*
X26522160Y-77990503D01*
X26617398Y-77942884D01*
X26712636Y-77847646D01*
X26760255Y-77704789D01*
X26760255Y-77466693D01*
X26760255Y-78990503D02*
X26760255Y-78419074D01*
X26760255Y-78704789D02*
X25760255Y-78704789D01*
X25903113Y-78609550D01*
X25998351Y-78514312D01*
X26045970Y-78419074D01*
X-32027857Y-24757142D02*
X-31980238Y-24709523D01*
X-31932619Y-24566666D01*
X-31932619Y-24471428D01*
X-31980238Y-24328571D01*
X-32075476Y-24233333D01*
X-32170714Y-24185714D01*
X-32361190Y-24138095D01*
X-32504047Y-24138095D01*
X-32694523Y-24185714D01*
X-32789761Y-24233333D01*
X-32885000Y-24328571D01*
X-32932619Y-24471428D01*
X-32932619Y-24566666D01*
X-32885000Y-24709523D01*
X-32837380Y-24757142D01*
X-31932619Y-25709523D02*
X-31932619Y-25138095D01*
X-31932619Y-25423809D02*
X-32932619Y-25423809D01*
X-32789761Y-25328571D01*
X-32694523Y-25233333D01*
X-32646904Y-25138095D01*
X-31932619Y-26661904D02*
X-31932619Y-26090476D01*
X-31932619Y-26376190D02*
X-32932619Y-26376190D01*
X-32789761Y-26280952D01*
X-32694523Y-26185714D01*
X-32646904Y-26090476D01*
X-32027857Y-39997142D02*
X-31980238Y-39949523D01*
X-31932619Y-39806666D01*
X-31932619Y-39711428D01*
X-31980238Y-39568571D01*
X-32075476Y-39473333D01*
X-32170714Y-39425714D01*
X-32361190Y-39378095D01*
X-32504047Y-39378095D01*
X-32694523Y-39425714D01*
X-32789761Y-39473333D01*
X-32885000Y-39568571D01*
X-32932619Y-39711428D01*
X-32932619Y-39806666D01*
X-32885000Y-39949523D01*
X-32837380Y-39997142D01*
X-31932619Y-40949523D02*
X-31932619Y-40378095D01*
X-31932619Y-40663809D02*
X-32932619Y-40663809D01*
X-32789761Y-40568571D01*
X-32694523Y-40473333D01*
X-32646904Y-40378095D01*
X-32932619Y-41568571D02*
X-32932619Y-41663809D01*
X-32885000Y-41759047D01*
X-32837380Y-41806666D01*
X-32742142Y-41854285D01*
X-32551666Y-41901904D01*
X-32313571Y-41901904D01*
X-32123095Y-41854285D01*
X-32027857Y-41806666D01*
X-31980238Y-41759047D01*
X-31932619Y-41663809D01*
X-31932619Y-41568571D01*
X-31980238Y-41473333D01*
X-32027857Y-41425714D01*
X-32123095Y-41378095D01*
X-32313571Y-41330476D01*
X-32551666Y-41330476D01*
X-32742142Y-41378095D01*
X-32837380Y-41425714D01*
X-32885000Y-41473333D01*
X-32932619Y-41568571D01*
X-2562857Y-63333333D02*
X-2515238Y-63285714D01*
X-2467619Y-63142857D01*
X-2467619Y-63047619D01*
X-2515238Y-62904761D01*
X-2610476Y-62809523D01*
X-2705714Y-62761904D01*
X-2896190Y-62714285D01*
X-3039047Y-62714285D01*
X-3229523Y-62761904D01*
X-3324761Y-62809523D01*
X-3420000Y-62904761D01*
X-3467619Y-63047619D01*
X-3467619Y-63142857D01*
X-3420000Y-63285714D01*
X-3372380Y-63333333D01*
X-3467619Y-64238095D02*
X-3467619Y-63761904D01*
X-2991428Y-63714285D01*
X-3039047Y-63761904D01*
X-3086666Y-63857142D01*
X-3086666Y-64095238D01*
X-3039047Y-64190476D01*
X-2991428Y-64238095D01*
X-2896190Y-64285714D01*
X-2658095Y-64285714D01*
X-2562857Y-64238095D01*
X-2515238Y-64190476D01*
X-2467619Y-64095238D01*
X-2467619Y-63857142D01*
X-2515238Y-63761904D01*
X-2562857Y-63714285D01*
X2517142Y-63333333D02*
X2564761Y-63285714D01*
X2612380Y-63142857D01*
X2612380Y-63047619D01*
X2564761Y-62904761D01*
X2469523Y-62809523D01*
X2374285Y-62761904D01*
X2183809Y-62714285D01*
X2040952Y-62714285D01*
X1850476Y-62761904D01*
X1755238Y-62809523D01*
X1660000Y-62904761D01*
X1612380Y-63047619D01*
X1612380Y-63142857D01*
X1660000Y-63285714D01*
X1707619Y-63333333D01*
X1945714Y-64190476D02*
X2612380Y-64190476D01*
X1564761Y-63952380D02*
X2279047Y-63714285D01*
X2279047Y-64333333D01*
X7597142Y-63333333D02*
X7644761Y-63285714D01*
X7692380Y-63142857D01*
X7692380Y-63047619D01*
X7644761Y-62904761D01*
X7549523Y-62809523D01*
X7454285Y-62761904D01*
X7263809Y-62714285D01*
X7120952Y-62714285D01*
X6930476Y-62761904D01*
X6835238Y-62809523D01*
X6740000Y-62904761D01*
X6692380Y-63047619D01*
X6692380Y-63142857D01*
X6740000Y-63285714D01*
X6787619Y-63333333D01*
X6692380Y-63666666D02*
X6692380Y-64285714D01*
X7073333Y-63952380D01*
X7073333Y-64095238D01*
X7120952Y-64190476D01*
X7168571Y-64238095D01*
X7263809Y-64285714D01*
X7501904Y-64285714D01*
X7597142Y-64238095D01*
X7644761Y-64190476D01*
X7692380Y-64095238D01*
X7692380Y-63809523D01*
X7644761Y-63714285D01*
X7597142Y-63666666D01*
X12677142Y-63333333D02*
X12724761Y-63285714D01*
X12772380Y-63142857D01*
X12772380Y-63047619D01*
X12724761Y-62904761D01*
X12629523Y-62809523D01*
X12534285Y-62761904D01*
X12343809Y-62714285D01*
X12200952Y-62714285D01*
X12010476Y-62761904D01*
X11915238Y-62809523D01*
X11820000Y-62904761D01*
X11772380Y-63047619D01*
X11772380Y-63142857D01*
X11820000Y-63285714D01*
X11867619Y-63333333D01*
X11867619Y-63714285D02*
X11820000Y-63761904D01*
X11772380Y-63857142D01*
X11772380Y-64095238D01*
X11820000Y-64190476D01*
X11867619Y-64238095D01*
X11962857Y-64285714D01*
X12058095Y-64285714D01*
X12200952Y-64238095D01*
X12772380Y-63666666D01*
X12772380Y-64285714D01*
X17757142Y-63333333D02*
X17804761Y-63285714D01*
X17852380Y-63142857D01*
X17852380Y-63047619D01*
X17804761Y-62904761D01*
X17709523Y-62809523D01*
X17614285Y-62761904D01*
X17423809Y-62714285D01*
X17280952Y-62714285D01*
X17090476Y-62761904D01*
X16995238Y-62809523D01*
X16900000Y-62904761D01*
X16852380Y-63047619D01*
X16852380Y-63142857D01*
X16900000Y-63285714D01*
X16947619Y-63333333D01*
X17852380Y-64285714D02*
X17852380Y-63714285D01*
X17852380Y-64000000D02*
X16852380Y-64000000D01*
X16995238Y-63904761D01*
X17090476Y-63809523D01*
X17138095Y-63714285D01*
M02*
