M48
; DRILL file {KiCad 5.1.6} date Wed Aug 26 23:47:59 2020
; FORMAT={-:-/ absolute / inch / decimal}
; #@! TF.CreationDate,2020-08-26T23:47:59+02:00
; #@! TF.GenerationSoftware,Kicad,Pcbnew,5.1.6
FMAT,2
INCH
T1C0.0197
T2C0.0236
T3C0.0300
T4C0.0354
T5C0.0394
T6C0.0472
T7C0.0787
T8C0.1260
%
G90
G05
T1
X-0.95Y-2.95
X-0.9Y-3.15
X-0.85Y-0.2
X-0.65Y-3.2
X-0.55Y-2.0
X-0.55Y-3.05
X-0.45Y-3.0
X-0.4Y-0.15
X-0.4Y-1.9
X-0.25Y-1.3
X-0.25Y-3.1
X-0.2Y-2.5
X-0.1Y-3.025
X-0.1Y-3.3
X0.1Y-0.475
X0.1Y-3.25
X0.15Y-2.6
X0.25Y-3.1
X0.4Y-0.1
X0.5Y-3.15
X0.5Y-3.25
X0.6Y-0.2
X0.6Y-3.05
X0.7Y-0.2
X0.8Y-0.2
X0.8Y-3.0
X0.85Y-2.2
X0.9Y-3.1
X0.95Y-2.25
X1.0Y-2.95
X-1.0Y0.0
X-1.0Y-0.05
X-1.0Y-0.1
X-0.95Y0.0
X-0.95Y-0.05
X-0.95Y-0.1
X-0.9Y0.0
X-0.9Y-0.05
X-0.9Y-0.1
X0.9Y0.0
X0.9Y-0.05
X0.9Y-0.1
X0.95Y0.0
X0.95Y-0.05
X0.95Y-0.1
X1.0Y0.0
X1.0Y-0.05
X1.0Y-0.1
X-0.625Y0.0
X-0.625Y-0.05
X-0.625Y-0.1
X-0.575Y0.0
X-0.575Y-0.05
X-0.575Y-0.1
X-0.525Y0.0
X-0.525Y-0.05
X-0.525Y-0.1
X0.475Y0.0
X0.475Y-0.05
X0.475Y-0.1
X0.525Y0.0
X0.525Y-0.05
X0.525Y-0.1
X0.575Y0.0
X0.575Y-0.05
X0.575Y-0.1
T2
X-0.7972Y0.0276
X-0.7972Y-0.0276
X-0.75Y0.0276
X-0.75Y-0.0276
X-0.7028Y0.0276
X-0.7028Y-0.0276
X0.7028Y0.0276
X0.7028Y-0.0276
X0.75Y0.0276
X0.75Y-0.0276
X0.7972Y0.0276
X0.7972Y-0.0276
T3
X-0.85Y0.35
X-0.8Y0.3
X-0.75Y0.35
X-0.7Y0.3
X-0.65Y0.35
X-0.6Y0.3
X0.6Y0.35
X0.65Y0.3
X0.7Y0.35
X0.75Y0.3
X0.8Y0.35
X0.85Y0.3
T4
X-0.45Y-1.8
X-0.45Y-2.8
X-0.35Y-1.8
X-0.35Y-2.8
X-0.25Y-1.8
X-0.25Y-2.8
X-0.15Y-1.8
X-0.15Y-2.8
X-0.05Y-1.8
X-0.05Y-2.8
X0.05Y-1.8
X0.05Y-2.8
X0.15Y-1.8
X0.15Y-2.8
X0.25Y-1.8
X0.25Y-2.8
X0.35Y-1.8
X0.35Y-2.8
X0.45Y-1.8
X0.45Y-2.8
X0.55Y-1.8
X0.55Y-2.8
X0.65Y-1.8
X0.65Y-2.8
X0.75Y-1.8
X0.75Y-2.8
X0.85Y-1.8
X0.85Y-2.8
X0.95Y-1.8
X0.95Y-2.8
X-0.8Y-2.1
X-0.8Y-2.2
X-0.8Y-2.3
X-0.8Y-2.4
X-0.8Y-2.5
X-0.8Y-2.6
X-0.8Y-2.7
X-0.8Y-2.8
T5
X-1.1516Y-1.7016
X-0.95Y-2.05
X-0.875Y0.125
X-0.4Y-0.85
X-0.35Y0.05
X0.0Y-0.05
X-1.4665Y-1.5638
X-1.0335Y-1.5638
T6
X1.15Y-2.2
X1.15Y-2.3
X1.15Y-2.4
T7
X-1.3484Y-1.9575
X-1.1516Y-1.9575
T8
X-0.5965Y-1.8315
X-0.5965Y-2.7567
X1.2461Y-1.8315
X1.2461Y-2.7567
X1.1811Y-0.3642
X-1.2697Y-2.15
X-1.2697Y-2.75
X-1.1811Y-0.3642
X0.0Y0.3642
X1.1811Y0.3642
X-1.1811Y0.3642
T0
M30
