0
SECTION
2
HEADER
9
$INSUNITS
70
4
9
$ACADVER
1
AC1014
9
$HANDSEED
5
FFFF
0
ENDSEC
0
SECTION
2
TABLES
0
TABLE
2
VPORT
5
8
100
AcDbSymbolTable
0
ENDTAB
0
TABLE
2
LTYPE
5
5
100
AcDbSymbolTable
0
LTYPE
5
14
100
AcDbSymbolTableRecord
100
AcDbLinetypeTableRecord
2
BYBLOCK
70
0
0
LTYPE
5
15
100
AcDbSymbolTableRecord
100
AcDbLinetypeTableRecord
2
BYLAYER
70
0
0
ENDTAB
0
TABLE
2
LAYER
5
2
100
AcDbSymbolTable
70
2
0
LAYER
5
50
100
AcDbSymbolTableRecord
100
AcDbLayerTableRecord
2
0
70
0
6
CONTINUOUS
0
ENDTAB
0
TABLE
2
STYLE
5
3
100
AcDbSymbolTable
70
1
0
STYLE
5
11
100
AcDbSymbolTableRecord
100
AcDbTextStyleTableRecord
2
STANDARD
70
0
0
ENDTAB
0
TABLE
2
VIEW
5
6
100
AcDbSymbolTable
70
0
0
ENDTAB
0
TABLE
2
UCS
5
7
100
AcDbSymbolTable
70
0
0
ENDTAB
0
TABLE
2
APPID
5
9
100
AcDbSymbolTable
70
2
0
APPID
5
12
100
AcDbSymbolTableRecord
100
AcDbRegAppTableRecord
2
ACAD
70
0
0
ENDTAB
0
TABLE
2
DIMSTYLE
5
A
100
AcDbSymbolTable
70
1
0
ENDTAB
0
TABLE
2
BLOCK_RECORD
5
1
100
AcDbSymbolTable
70
1
0
BLOCK_RECORD
5
1F
100
AcDbSymbolTableRecord
100
AcDbBlockTableRecord
2
*MODEL_SPACE
0
BLOCK_RECORD
5
1B
100
AcDbSymbolTableRecord
100
AcDbBlockTableRecord
2
*PAPER_SPACE
0
ENDTAB
0
ENDSEC
0
SECTION
2
BLOCKS
0
BLOCK
5
20
100
AcDbEntity
100
AcDbBlockBegin
2
*MODEL_SPACE
0
ENDBLK
5
21
100
AcDbEntity
100
AcDbBlockEnd
0
BLOCK
5
1C
100
AcDbEntity
100
AcDbBlockBegin
2
*PAPER_SPACE
0
ENDBLK
5
1D
100
AcDbEntity
100
AcDbBlockEnd
0
ENDSEC
0
SECTION
2
ENTITIES
0
SPLINE
5
100
100
AcDbEntity
8
OUTER_PROFILES
100
AcDbSpline
70
0
71
3
72
8
73
4
74
0
42
0.000000001
43
0.0000000001
44
0.0000000001
40
1.3007750511756058
40
1.3007750511756058
40
1.3007750511756058
40
1.3007750511756058
40
1.570796326794959
40
1.570796326794959
40
1.570796326794959
40
1.570796326794959
10
31.983566302541035
20
-1.5283204200055223
30
0
10
32.013246521582403
20
-1.0188802800036802
30
0
10
32.044039911708126
20
-0.50944014000183657
30
0
10
32.074836020953718
20
5.5511151231257827e-15
30
0
0
LINE
5
101
100
AcDbEntity
8
OUTER_PROFILES
100
AcDbLine
10
32.074836020953711
20
5.5200284183915088e-15
30
0
11
35.08992109469726
21
44.060604713655906
31
0
0
SPLINE
5
102
100
AcDbEntity
8
OUTER_PROFILES
100
AcDbSpline
70
0
71
3
72
8
73
4
74
0
42
0.000000001
43
0.0000000001
44
0.0000000001
40
-1.5707963267949365
40
-1.5707963267949365
40
-1.5707963267949365
40
-1.5707963267949365
40
-1.3007750511755833
40
-1.3007750511755833
40
-1.3007750511755833
40
-1.3007750511755833
10
35.207694441198583
20
45.587111479628106
30
0
10
35.167700564882082
20
45.078377107382011
30
0
10
35.128809482903279
20
44.569491095722171
30
0
10
35.089921094697267
20
44.060604713655891
30
0
0
SPLINE
5
103
100
AcDbEntity
8
OUTER_PROFILES
100
AcDbSpline
70
0
71
3
72
8
73
4
74
0
42
0.000000001
43
0.0000000001
44
0.0000000001
40
1.2848420564119487
40
1.2848420564119487
40
1.2848420564119487
40
1.2848420564119487
40
1.5707963267948968
40
1.5707963267948968
40
1.5707963267948968
40
1.5707963267948968
10
35.967169716689654
20
47.116410515430971
30
0
10
35.711539184806796
20
46.606984096476708
30
0
10
35.455928871226988
20
46.097554897410589
30
0
10
35.207694441198598
20
45.587111479628106
30
0
0
LINE
5
104
100
AcDbEntity
8
OUTER_PROFILES
100
AcDbLine
10
35.967169716689654
20
47.116410515430971
30
0
11
44.692209065027768
21
62.906010466042716
31
0
0
LINE
5
105
100
AcDbEntity
8
OUTER_PROFILES
100
AcDbLine
10
44.692209065027768
20
62.906010466042716
30
0
11
18.499732196621721
21
77.379486172969905
31
0
0
LINE
5
106
100
AcDbEntity
8
OUTER_PROFILES
100
AcDbLine
10
18.499732196621721
20
77.379486172969905
30
0
11
4.1913285693457958
21
51.485738284073307
31
0
0
SPLINE
5
107
100
AcDbEntity
8
OUTER_PROFILES
100
AcDbSpline
70
0
71
3
72
8
73
4
74
0
42
0.000000001
43
0.0000000001
44
0.0000000001
40
1.3325504888104993
40
1.3325504888104993
40
1.3325504888104993
40
1.3325504888104993
40
1.5707963267948817
40
1.5707963267948817
40
1.5707963267948817
40
1.5707963267948817
10
3.4213922577965583
20
50.230448262896601
30
0
10
3.6743263147643983
20
50.64938860220947
30
0
10
3.9328221598026687
20
51.067564169475958
30
0
10
4.1913285693457558
20
51.485738284073292
30
0
0
SPLINE
5
108
100
AcDbEntity
8
OUTER_PROFILES
100
AcDbSpline
70
0
71
3
72
8
73
4
74
0
42
0.000000001
43
0.0000000001
44
0.0000000001
40
4.7123889803846382
40
4.7123889803846382
40
4.7123889803846382
40
4.7123889803846382
40
5.0301186884025579
40
5.0301186884025579
40
5.0301186884025579
40
5.0301186884025579
10
3.3140799473532701
20
48.429932482298227
30
0
10
3.3490694430192742
20
49.030211838084085
30
0
10
3.3840668277098773
20
49.630490109091909
30
0
10
3.4213922577965672
20
50.230448262896594
30
0
0
LINE
5
109
100
AcDbEntity
8
OUTER_PROFILES
100
AcDbLine
10
3.3140799473532701
20
48.429932482298227
30
0
11
0
21
0
31
0
0
SPLINE
5
110
100
AcDbEntity
8
OUTER_PROFILES
100
AcDbSpline
70
0
71
3
72
8
73
4
74
0
42
0.000000001
43
0.0000000001
44
0.0000000001
40
1.2530666187770396
40
1.2530666187770396
40
1.2530666187770396
40
1.2530666187770396
40
1.5707963267949596
40
1.5707963267949596
40
1.5707963267949596
40
1.5707963267949596
10
-0.13895954652220932
20
-1.798350147381393
30
0
10
-0.094208986197799049
20
-1.1989000982542484
30
0
10
-0.047108474727082232
20
-0.59945004912710309
30
0
10
2.6645352591003757e-14
20
4.0523140398818214e-14
30
0
0
SPLINE
5
111
100
AcDbEntity
8
OUTER_PROFILES
100
AcDbSpline
70
0
71
3
72
8
73
4
74
0
42
0.000000001
43
0.0000000001
44
0.0000000001
40
4.7123889803847003
40
4.7123889803847003
40
4.7123889803847003
40
4.7123889803847003
40
4.9506348183690863
40
4.9506348183690863
40
4.9506348183690863
40
4.9506348183690863
10
0.4528003106359979
20
-3.1468215903730257
30
0
10
0.25366854173150966
20
-2.6973311093758139
30
0
10
0.054547436738581062
20
-2.2478406283786008
30
0
10
-0.13895954652220932
20
-1.7983501473813892
30
0
0
LINE
5
112
100
AcDbEntity
8
OUTER_PROFILES
100
AcDbLine
10
0.4528003106359979
20
-3.1468215903730257
30
0
11
11.100502104781196
21
-30.748325908031834
31
0
0
LINE
5
113
100
AcDbEntity
8
OUTER_PROFILES
100
AcDbLine
10
11.100502104781196
20
-30.748325908031834
30
0
11
39.020437313677469
21
-19.977784534821712
31
0
0
LINE
5
114
100
AcDbEntity
8
OUTER_PROFILES
100
AcDbLine
10
39.020437313677469
20
-19.977784534821712
30
0
11
32.527636331589612
21
-3.1468215903730012
31
0
0
SPLINE
5
115
100
AcDbEntity
8
OUTER_PROFILES
100
AcDbSpline
70
0
71
3
72
8
73
4
74
0
42
0.000000001
43
0.0000000001
44
0.0000000001
40
4.712388980384687
40
4.712388980384687
40
4.712388980384687
40
4.712388980384687
40
4.9983432507676362
40
4.9983432507676362
40
4.9983432507676362
40
4.9983432507676362
10
32.527636331589591
20
-3.1468215903730092
30
0
10
32.343784287225226
20
-2.6073212002505159
30
0
10
32.159952651408091
20
-2.0678208101280173
30
0
10
31.983566302541028
20
-1.5283204200055245
30
0
0
CIRCLE
5
116
100
AcDbEntity
8
INTERIOR_PROFILES
100
AcDbCircle
10
-23.555826908741231
20
22.71642335799757
30
0
40
1.7499999999999987
210
0
220
0
230
-1
0
CIRCLE
5
117
100
AcDbEntity
8
INTERIOR_PROFILES
100
AcDbCircle
10
-26.544889527988094
20
-10.882764270129856
30
0
40
1.7500000000000004
210
0
220
0
230
-1
0
CIRCLE
5
118
100
AcDbEntity
8
INTERIOR_PROFILES
100
AcDbCircle
10
-30.395212223082098
20
34.777634264120486
30
0
40
1.7499999999999987
210
0
220
0
230
-1
0
CIRCLE
5
119
100
AcDbEntity
8
INTERIOR_PROFILES
100
AcDbCircle
10
-28.688443563456172
20
9.835963495254207
30
0
40
1.7499999999999991
210
0
220
0
230
-1
0
CIRCLE
5
120
100
AcDbEntity
8
INTERIOR_PROFILES
100
AcDbCircle
10
-31.094005508254625
20
55.595227594370407
30
0
40
1.7499999999999993
210
0
220
0
230
-1
0
LINE
5
121
100
AcDbEntity
8
BEND
100
AcDbLine
10
-0.076510581207297479
20
-1.5734108050367452
30
-2.2204460567141679e-15
11
31.998325439746267
21
-1.5734108050367344
31
-4.4408921059644825e-15
0
LINE
5
122
100
AcDbEntity
8
BEND
100
AcDbLine
10
35.22845834063007
20
45.629771008538711
30
-1.9640380156644965e-14
11
3.4074880839604171
21
50.005286473015154
31
1.3037879179879944e-12
0
LINE
5
123
100
AcDbEntity
8
BEND_EXTENT
100
AcDbLine
10
32.074836020953718
20
8.8817841970012523e-15
30
8.8817841970012523e-15
11
0
21
4.4408920985006262e-15
31
0
0
LINE
5
124
100
AcDbEntity
8
BEND_EXTENT
100
AcDbLine
10
0.45280031063602344
20
-3.1468215903730168
30
8.8817841970012523e-15
11
32.527636331589612
21
-3.1468215903730012
31
-1.0658141036401503e-13
0
LINE
5
125
100
AcDbEntity
8
BEND_EXTENT
100
AcDbLine
10
3.3140799473532567
20
48.429932482298277
30
0
11
35.08992109469726
21
44.060604713655906
31
8.8817841970012523e-15
0
LINE
5
126
100
AcDbEntity
8
BEND_EXTENT
100
AcDbLine
10
35.967169716689682
20
47.116410515430971
30
-8.8817841970012523e-14
11
4.1913285693457958
21
51.485738284073307
31
2.6645352591003757e-14
0
ENDSEC
0
SECTION
2
OBJECTS
0
DICTIONARY
5
C
100
AcDbDictionary
3
ACAD_GROUP
350
D
3
ACAD_MLINESTYLE
350
17
0
DICTIONARY
5
D
100
AcDbDictionary
0
DICTIONARY
5
1A
330
C
100
AcDbDictionary
0
DICTIONARY
5
17
100
AcDbDictionary
0
ENDSEC
0
EOF
